<?xml version="1.0" standalone="no"?>
<!DOCTYPE svg PUBLIC "-//W3C//DTD SVG 1.1//EN" "http://www.w3.org/Graphics/SVG/1.1/DTD/svg11.dtd" >
<svg>
<metadata>
Created by FontForge 20120731 at Mon Jul  1 13:20:07 2019
 By www-data
Copyright 2015 Google Inc. All Rights Reserved.
</metadata>
<defs>
<font id="NotoIKEAArabic-Bold" horiz-adv-x="0" >
  <font-face 
    font-family="Noto IKEA Arabic"
    font-weight="700"
    font-stretch="normal"
    units-per-em="1000"
    panose-1="2 11 8 2 4 5 4 2 2 4"
    ascent="800"
    descent="-200"
    x-height="546"
    cap-height="714"
    bbox="-619 -616 2564 1155"
    underline-thickness="50"
    underline-position="-75"
    unicode-range="U+000A-FEFC"
  />
<missing-glyph horiz-adv-x="600" 
d="M94 0v714h411v-714h-411zM145 51h309v612h-309v-612z" />
    <glyph glyph-name="f_f#0#0" unicode="ff" horiz-adv-x="774" 
d="M380 434h-129v-434h-149v434h-82v72l82 40v40q0 70 23.5 108.5t67 54.5t102.5 16q44 0 79.5 -7t57.5 -16l-38 -109q-17 5 -37 9.5t-46 4.5q-31 0 -45.5 -19t-14.5 -48v-34h129v-112zM767 434h-129v-434h-149v434h-82v72l82 40v40q0 70 23.5 108.5t67 54.5t102.5 16
q44 0 79.5 -7t57.5 -16l-38 -109q-17 5 -37 9.5t-46 4.5q-31 0 -45.5 -19t-14.5 -48v-34h129v-112z" />
    <glyph glyph-name="fi#0#0" unicode="fi" horiz-adv-x="692" 
d="M380 434h-129v-434h-149v434h-82v72l82 40v40q0 70 23.5 108.5t67 54.5t102.5 16q44 0 79.5 -7t57.5 -16l-38 -109q-17 5 -37 9.5t-46 4.5q-31 0 -45.5 -19t-14.5 -48v-34h129v-112zM540 760q33 0 57 -15.5t24 -57.5q0 -41 -24 -57t-57 -16q-34 0 -57.5 16t-23.5 57
q0 42 23.5 57.5t57.5 15.5zM614 546v-546h-149v546h149z" />
    <glyph glyph-name="fl#0#0" unicode="fl" horiz-adv-x="692" 
d="M380 434h-129v-434h-149v434h-82v72l82 40v40q0 70 23.5 108.5t67 54.5t102.5 16q44 0 79.5 -7t57.5 -16l-38 -109q-17 5 -37 9.5t-46 4.5q-31 0 -45.5 -19t-14.5 -48v-34h129v-112zM614 0h-149v760h149v-760z" />
    <glyph glyph-name="f_f_i#0#0" unicode="ffi" horiz-adv-x="1079" 
d="M380 434h-129v-434h-149v434h-82v72l82 40v40q0 70 23.5 108.5t67 54.5t102.5 16q44 0 79.5 -7t57.5 -16l-38 -109q-17 5 -37 9.5t-46 4.5q-31 0 -45.5 -19t-14.5 -48v-34h129v-112zM767 434h-129v-434h-149v434h-82v72l82 40v40q0 70 23.5 108.5t67 54.5t102.5 16
q44 0 79.5 -7t57.5 -16l-38 -109q-17 5 -37 9.5t-46 4.5q-31 0 -45.5 -19t-14.5 -48v-34h129v-112zM927 760q33 0 57 -15.5t24 -57.5q0 -41 -24 -57t-57 -16q-34 0 -57.5 16t-23.5 57q0 42 23.5 57.5t57.5 15.5zM1001 546v-546h-149v546h149z" />
    <glyph glyph-name="f_f_l#0#0" unicode="ffl" horiz-adv-x="1079" 
d="M380 434h-129v-434h-149v434h-82v72l82 40v40q0 70 23.5 108.5t67 54.5t102.5 16q44 0 79.5 -7t57.5 -16l-38 -109q-17 5 -37 9.5t-46 4.5q-31 0 -45.5 -19t-14.5 -48v-34h129v-112zM767 434h-129v-434h-149v434h-82v72l82 40v40q0 70 23.5 108.5t67 54.5t102.5 16
q44 0 79.5 -7t57.5 -16l-38 -109q-17 5 -37 9.5t-46 4.5q-31 0 -45.5 -19t-14.5 -48v-34h129v-112zM1001 0h-149v760h149v-760z" />
    <glyph glyph-name="uniFEFB#0#1" unicode="&#xfedf;&#xfe8e;" horiz-adv-x="632" arabic-form="isolated" 
d="M394 536q0 50 -7.5 98.5t-13.5 81.5l140 20q4 -20 8 -53t7 -69.5t3 -69.5q0 -119 -49 -210q58 -61 77.5 -107t19.5 -80q0 -38 -16.5 -72t-53.5 -54.5t-99 -20.5h-294v134q132 95 198 180q-54 44 -124 94t-150 100l73 107q84 -52 149.5 -98t114.5 -87q17 50 17 106z
M296 135h65q51 0 67 9t16 24q0 20 -38 61q-45 -48 -110 -94z" />
    <glyph glyph-name="uniFEFC#0#1" unicode="&#xfee0;&#xfe8e;" horiz-adv-x="681" arabic-form="final" 
d="M142 -5q-27 0 -54.5 4.5t-38.5 6.5l19 145q72 -10 140 -3.5t120 36.5q-41 60 -114 143t-174 177l87 95q88 -84 145 -142.5t91.5 -98.5t54.5 -69q17 44 17 99l-13 344h140l21 -489q2 -46 10 -69t30.5 -31t66.5 -8q38 0 54.5 -19.5t16.5 -48.5q0 -31 -21 -51.5t-60 -20.5
q-79 0 -126.5 13.5t-72 42t-32.5 71.5q-28 -44 -67 -70t-82 -38t-84 -15.5t-74 -3.5z" />
    <glyph glyph-name="uniFEF7#0#1" unicode="&#xfedf;&#xfe84;" horiz-adv-x="662" arabic-form="isolated" 
d="M394 536q0 50 -7.5 98.5t-13.5 81.5l140 20q4 -20 8 -53t7 -69.5t3 -69.5q0 -119 -49 -210q58 -61 77.5 -107t19.5 -80q0 -38 -16.5 -72t-53.5 -54.5t-99 -20.5h-294v134q132 95 198 180q-54 44 -124 94t-150 100l73 107q84 -52 149.5 -98t114.5 -87q17 50 17 106z
M296 135h65q51 0 67 9t16 24q0 20 -38 61q-45 -48 -110 -94zM57 630l-17 70q32 6 51 10q-18 13 -31 34t-13 46q0 36 16 58t41 32t52 10q29 0 53 -8l-8 -72l-20 4t-22 2q-13 0 -23.5 -8.5t-10.5 -20.5q0 -20 16.5 -34.5t33.5 -20.5q32 9 59 20l20 -67q-38 -14 -92.5 -29.5
t-104.5 -25.5z" />
    <glyph glyph-name="uniFEF8#0#1" unicode="&#xfee0;&#xfe84;" horiz-adv-x="711" arabic-form="final" 
d="M142 -5q-27 0 -54.5 4.5t-38.5 6.5l19 145q72 -10 140 -3.5t120 36.5q-41 60 -114 143t-174 177l87 95q88 -84 145 -142.5t91.5 -98.5t54.5 -69q17 44 17 99l-13 344h140l21 -489q2 -46 10 -69t30.5 -31t66.5 -8q38 0 54.5 -19.5t16.5 -48.5q0 -31 -21 -51.5t-60 -20.5
q-79 0 -126.5 13.5t-72 42t-32.5 71.5q-28 -44 -67 -70t-82 -38t-84 -15.5t-74 -3.5zM57 630l-17 70q32 6 51 10q-18 13 -31 34t-13 46q0 36 16 58t41 32t52 10q29 0 53 -8l-8 -72l-20 4t-22 2q-13 0 -23.5 -8.5t-10.5 -20.5q0 -20 16.5 -34.5t33.5 -20.5q32 9 59 20l20 -67
q-38 -14 -92.5 -29.5t-104.5 -25.5z" />
    <glyph glyph-name="uniFEF9#0#1" unicode="&#xfedf;&#xfe88;" horiz-adv-x="632" arabic-form="isolated" 
d="M394 536q0 50 -7.5 98.5t-13.5 81.5l140 20q4 -20 8 -53t7 -69.5t3 -69.5q0 -119 -49 -210q58 -61 77.5 -107t19.5 -80q0 -38 -16.5 -72t-53.5 -54.5t-99 -20.5h-294v134q132 95 198 180q-54 44 -124 94t-150 100l73 107q84 -52 149.5 -98t114.5 -87q17 50 17 106z
M296 135h65q51 0 67 9t16 24q0 20 -38 61q-45 -48 -110 -94zM102 -309l-17 70q32 6 51 10q-18 13 -31 34t-13 46q0 36 16 58t41 32t52 10q29 0 53 -8l-8 -72l-20 4t-22 2q-13 0 -23.5 -8.5t-10.5 -20.5q0 -20 16.5 -34.5t33.5 -20.5q32 9 59 20l20 -67q-38 -14 -92.5 -29.5
t-104.5 -25.5z" />
    <glyph glyph-name="uniFEFA#0#1" unicode="&#xfee0;&#xfe88;" horiz-adv-x="681" arabic-form="final" 
d="M142 -5q-27 0 -54.5 4.5t-38.5 6.5l19 145q72 -10 140 -3.5t120 36.5q-41 60 -114 143t-174 177l87 95q88 -84 145 -142.5t91.5 -98.5t54.5 -69q17 44 17 99l-13 344h140l21 -489q2 -46 10 -69t30.5 -31t66.5 -8q38 0 54.5 -19.5t16.5 -48.5q0 -31 -21 -51.5t-60 -20.5
q-79 0 -126.5 13.5t-72 42t-32.5 71.5q-28 -44 -67 -70t-82 -38t-84 -15.5t-74 -3.5zM102 -309l-17 70q32 6 51 10q-18 13 -31 34t-13 46q0 36 16 58t41 32t52 10q29 0 53 -8l-8 -72l-20 4t-22 2q-13 0 -23.5 -8.5t-10.5 -20.5q0 -20 16.5 -34.5t33.5 -20.5q32 9 59 20
l20 -67q-38 -14 -92.5 -29.5t-104.5 -25.5z" />
    <glyph glyph-name="uniFEF5#0#1" unicode="&#xfedf;&#xfe82;" horiz-adv-x="732" arabic-form="isolated" 
d="M394 536q0 50 -7.5 98.5t-13.5 81.5l140 20q4 -20 8 -53t7 -69.5t3 -69.5q0 -119 -49 -210q58 -61 77.5 -107t19.5 -80q0 -38 -16.5 -72t-53.5 -54.5t-99 -20.5h-294v134q132 95 198 180q-54 44 -124 94t-150 100l73 107q84 -52 149.5 -98t114.5 -87q17 50 17 106z
M296 135h65q51 0 67 9t16 24q0 20 -38 61q-45 -48 -110 -94zM285 657q-30 0 -54 10.5t-44 20.5t-37 10q-18 0 -32.5 -9t-30.5 -25l-47 44q54 68 110 68q25 0 46 -10t42.5 -20t46.5 -10q16 0 30 5.5t34 17.5l35 -55q-36 -31 -59.5 -39t-39.5 -8z" />
    <glyph glyph-name="uniFEF6#0#1" unicode="&#xfee0;&#xfe82;" horiz-adv-x="756" arabic-form="final" 
d="M142 -5q-27 0 -54.5 4.5t-38.5 6.5l19 145q72 -10 140 -3.5t120 36.5q-41 60 -114 143t-174 177l87 95q88 -84 145 -142.5t91.5 -98.5t54.5 -69q17 44 17 99l-13 344h140l21 -489q2 -46 10 -69t30.5 -31t66.5 -8q38 0 54.5 -19.5t16.5 -48.5q0 -31 -21 -51.5t-60 -20.5
q-79 0 -126.5 13.5t-72 42t-32.5 71.5q-28 -44 -67 -70t-82 -38t-84 -15.5t-74 -3.5zM285 657q-30 0 -54 10.5t-44 20.5t-37 10q-18 0 -32.5 -9t-30.5 -25l-47 44q54 68 110 68q25 0 46 -10t42.5 -20t46.5 -10q16 0 30 5.5t34 17.5l35 -55q-36 -31 -59.5 -39t-39.5 -8z" />
    <glyph glyph-name="lam_alefWaslaar#0#1" unicode="&#xfedf;&#xfb51;" horiz-adv-x="588" 
d="M394 536q0 50 -7.5 98.5t-13.5 81.5l140 20q4 -20 8 -53t7 -69.5t3 -69.5q0 -119 -49 -210q58 -61 77.5 -107t19.5 -80q0 -38 -16.5 -72t-53.5 -54.5t-99 -20.5h-294v134q132 95 198 180q-54 44 -124 94t-150 100l73 107q84 -52 149.5 -98t114.5 -87q17 50 17 106z
M296 135h65q51 0 67 9t16 24q0 20 -38 61q-45 -48 -110 -94zM151 661q-22 0 -52.5 2t-57.5 5.5t-41 5.5l7 66q8 -1 19 -2.5t24 -2.5q13 31 35.5 63.5t53 54t69.5 21.5q41 0 71 -26t30 -73q0 -30 -12.5 -56t-46.5 -42t-99 -16zM205 806q-19 0 -41 -19.5t-40 -57.5
q15 -1 27 -1q56 0 73 12.5t17 29.5q0 18 -11 27t-25 9z" />
    <glyph glyph-name="lam_alefWaslaar.fina#0#1" unicode="&#xfee0;&#xfb51;" horiz-adv-x="770" 
d="M142 -5q-27 0 -54.5 4.5t-38.5 6.5l19 145q72 -10 140 -3.5t120 36.5q-41 60 -114 143t-174 177l87 95q88 -84 145 -142.5t91.5 -98.5t54.5 -69q17 44 17 99l-13 344h140l21 -489q2 -46 10 -69t30.5 -31t66.5 -8q38 0 54.5 -19.5t16.5 -48.5q0 -31 -21 -51.5t-60 -20.5
q-79 0 -126.5 13.5t-72 42t-32.5 71.5q-28 -44 -67 -70t-82 -38t-84 -15.5t-74 -3.5zM151 661q-22 0 -52.5 2t-57.5 5.5t-41 5.5l7 66q8 -1 19 -2.5t24 -2.5q13 31 35.5 63.5t53 54t69.5 21.5q41 0 71 -26t30 -73q0 -30 -12.5 -56t-46.5 -42t-99 -16zM205 806
q-19 0 -41 -19.5t-40 -57.5q15 -1 27 -1q56 0 73 12.5t17 29.5q0 18 -11 27t-25 9z" />
    <glyph glyph-name="uniFD82#0#1" unicode="&#xfee0;&#xfea4;&#xfef0;" horiz-adv-x="1798" arabic-form="final" 
d="M1454 -5l10 140q47 0 66.5 9.5t23.5 36t2 77.5l-16 474h142l17 -473q2 -50 12 -77t33.5 -37t63.5 -10q38 0 54 -19.5t16 -48.5q0 -31 -21 -51.5t-59 -20.5q-52 0 -95 14t-65 57q-28 -42 -72 -56.5t-112 -14.5zM1454 -5q-61 0 -111.5 13.5t-87.5 47.5t-60 97l79 63
q27 -48 72 -64.5t118 -16.5q38 0 54 -19.5t16 -48.5q0 -31 -20.5 -51.5t-59.5 -20.5zM800 -5l10 140q108 0 210 24t181 77q-46 27 -101.5 42t-121.5 15q-25 0 -51.5 -2.5t-53.5 -8.5l-20 137q29 8 61.5 11.5t57.5 3.5q68 0 122 -18t98.5 -42t83 -42t75.5 -18h37l16 -133
q-43 -2 -80.5 -16.5t-74 -36t-78 -44.5t-93.5 -43t-120 -33t-158 -13zM26 28q0 35 9.5 87.5t42.5 125.5l123 -43q-17 -47 -26 -80.5t-9 -65.5q0 -66 56.5 -104.5t162.5 -38.5q110 0 172.5 20.5t62.5 60.5q0 17 -27.5 34t-94.5 41l33 141q86 -36 155.5 -53.5t123.5 -17.5
q38 0 54 -19.5t16 -48.5q0 -31 -21 -51.5t-59 -20.5h-46q2 -10 2 -17.5v-14.5q0 -33 -22.5 -67t-69.5 -63t-119.5 -46.5t-172.5 -17.5q-163 0 -254.5 63t-91.5 196z" />
    <glyph glyph-name="uniFC43#0#1" unicode="&#xfedf;&#xfef0;" horiz-adv-x="1097" arabic-form="isolated" 
d="M800 -5l10 140q46 0 66 9.5t24 36t2 77.5l-18 474h141l20 -484q2 -58 -4.5 -104.5t-31 -79.5t-75 -51t-134.5 -18zM26 28q0 35 9.5 87.5t42.5 125.5l123 -43q-17 -47 -26 -80.5t-9 -65.5q0 -66 56.5 -104.5t162.5 -38.5q110 0 172.5 20.5t62.5 60.5q0 17 -27.5 34
t-94.5 41l33 141q86 -36 155.5 -53.5t123.5 -17.5q38 0 54 -19.5t16 -48.5q0 -31 -21 -51.5t-59 -20.5h-46q2 -10 2 -17.5v-14.5q0 -33 -22.5 -67t-69.5 -63t-119.5 -46.5t-172.5 -17.5q-163 0 -254.5 63t-91.5 196z" />
    <glyph glyph-name="uniFC86#0#1" unicode="&#xfee0;&#xfef0;" horiz-adv-x="1144" arabic-form="final" 
d="M800 -5l10 140q47 0 66.5 9.5t23.5 36t2 77.5l-16 474h142l17 -473q2 -50 12 -77t33.5 -37t63.5 -10q38 0 54 -19.5t16 -48.5q0 -31 -21 -51.5t-59 -20.5q-52 0 -95 14t-65 57q-28 -42 -72 -56.5t-112 -14.5zM26 28q0 35 9.5 87.5t42.5 125.5l123 -43q-17 -47 -26 -80.5
t-9 -65.5q0 -66 56.5 -104.5t162.5 -38.5q110 0 172.5 20.5t62.5 60.5q0 17 -27.5 34t-94.5 41l33 141q86 -36 155.5 -53.5t123.5 -17.5q38 0 54 -19.5t16 -48.5q0 -31 -21 -51.5t-59 -20.5h-46q2 -10 2 -17.5v-14.5q0 -33 -22.5 -67t-69.5 -63t-119.5 -46.5t-172.5 -17.5
q-163 0 -254.5 63t-91.5 196z" />
    <glyph glyph-name="lam_alefMaksura_meemar#0#1" unicode="&#xfedf;&#xfbe9;&#xfee2;" horiz-adv-x="1275" 
d="M978 -5l10 140q46 0 66 9.5t24 36t2 77.5l-18 474h141l20 -484q2 -58 -4.5 -104.5t-31 -79.5t-75 -51t-134.5 -18zM661 -5l10 140q65 0 91 14.5t26 61.5q0 28 -7.5 67t-19.5 81t-24 77l138 38q12 -34 24 -79t20.5 -92.5t8.5 -91.5q0 -68 -21 -110.5t-58.5 -65.5
t-85.5 -31.5t-102 -8.5zM82 -393q-34 123 -50.5 225t-16.5 163q0 89 28.5 158.5t74 120t98 83.5t102 49t84.5 16q36 0 59.5 -19t42 -54.5t39.5 -85.5q24 -54 42.5 -81.5t38.5 -37t45 -9.5q38 0 55 -19.5t17 -48.5q0 -31 -21 -51.5t-61 -20.5q-44 0 -78 13.5t-61 38.5
q-16 -29 -42.5 -47t-69.5 -18q-128 0 -229 131q-12 -29 -18 -61.5t-6 -63.5q0 -42 9.5 -103t24 -124.5t29.5 -116.5zM406 123q29 0 40.5 12.5t2.5 35.5q-21 53 -37 81t-35 28q-16 0 -39.5 -11.5t-44.5 -26.5t-29 -26q27 -42 65.5 -67.5t76.5 -25.5z" />
    <glyph glyph-name="uniFDF2#0#1" unicode="&#x627;&#xfedf;&#xfee0;&#xfeea;" horiz-adv-x="1470" arabic-form="isolated" 
d="M556 -5q-75 0 -128 20.5t-80 67.5q-63 -12 -121 -7.5t-103 25t-71 59t-26 95.5q0 67 36.5 117.5t100 86t143.5 53.5l-3 76h141l17 -354q3 -61 27.5 -80t76.5 -19q44 0 64 6.5t25 32.5t3 84l-14 401h142l15 -400q2 -53 12 -81.5t33.5 -38.5t63.5 -10q46 0 66 9.5t24 37.5
t2 82l-18 474h141l20 -484q2 -58 -4.5 -104.5t-31 -79.5t-75 -51t-134.5 -18q-52 0 -94.5 16.5t-65.5 55.5q-28 -38 -72 -55t-112 -17zM1277 0l-21 732h140l21 -732h-140zM320 219l-6 154q-68 -10 -107.5 -39.5t-39.5 -65.5q0 -23 22 -36t57.5 -16.5t73.5 3.5zM630 701
q-37 0 -50 26t-13 57q0 11 1.5 23.5t4.5 28.5l60 14q-6 -34 -6 -57q0 -27 19 -27q12 0 19.5 14t7.5 54v30l58 18v-61q0 -25 19 -25q14 0 19.5 8.5t5.5 20.5q0 17 -4 34.5t-11 34.5l55 14q10 -19 16.5 -43.5t6.5 -44.5q0 -33 -19 -59.5t-62 -26.5q-28 0 -47 18
q-9 -23 -30 -37t-50 -14zM651 926l-7 178h91l7 -178h-91z" />
    <glyph glyph-name="rial#1#0" unicode="&#xfdfc;" horiz-adv-x="1304" arabic-form="isolated" 
d="M348 -188q-93 0 -167.5 26t-118.5 80.5t-44 139.5q0 35 9.5 85t46.5 132l122 -47q-22 -54 -30 -84t-8 -60q0 -64 51.5 -101t142.5 -37q84 0 130.5 28t65 82.5t17.5 133.5q-54 -35 -91 -47t-77 -12q-55 0 -89.5 21t-50.5 56.5t-16 78.5q0 49 22 106.5t74 111.5l102 -69
q-30 -31 -46 -67.5t-16 -60.5q0 -21 11.5 -33.5t34.5 -12.5q25 -1 54.5 15.5t82.5 56.5l-14 380h142l9 -272l1 1q17 13 33 25.5t31 24.5l-9 221h141l6 -124q35 21 67.5 31t66.5 9q56 -2 100 -41.5t58 -117.5l-116 -34q-21 69 -67 69q-21 0 -44 -13t-59 -41l9 -209
q2 -49 10 -73.5t29.5 -32.5t65.5 -8q66 0 88.5 13t22.5 53q0 32 -12.5 74.5t-27.5 85.5l130 38q10 -27 20.5 -62t17.5 -72.5t7 -72.5q0 -100 -62.5 -145.5t-193.5 -45.5q-93 0 -143.5 19t-70.5 59.5t-22 102.5l-6 165h-1q-18 -14 -34 -26.5t-31 -24.5l2 -68
q2 -81 -13.5 -154.5t-56 -131.5t-110.5 -91t-176 -33zM995 -197q-26 0 -45.5 18.5t-19.5 44.5q0 28 19.5 47.5t45.5 19.5q27 0 46 -19.5t19 -47.5q0 -26 -19 -44.5t-46 -18.5zM1149 -197q-28 0 -46.5 18.5t-18.5 44.5q0 28 18.5 47.5t46.5 19.5q26 0 45.5 -19.5t19.5 -47.5
q0 -26 -19.5 -44.5t-45.5 -18.5z" />
    <glyph glyph-name="uniFE80#0#1" unicode="&#x621;" horiz-adv-x="470" arabic-form="isolated" 
d="M54 -57l-45 131q27 7 56.5 15.5t61.5 18.5q-28 20 -50 57.5t-22 81.5q0 55 26 97.5t70 67t97 24.5q29 0 53.5 -3.5t49.5 -10.5l-22 -130q-18 5 -34.5 7.5t-29.5 2.5q-31 0 -50.5 -19t-19.5 -49q0 -58 64 -82q32 11 64 23.5t65 25.5l52 -128q-40 -16 -89 -34.5t-102 -36.5
t-103 -33t-92 -26z" />
    <glyph glyph-name="uniFE8D#0#1" unicode="&#x627;" horiz-adv-x="273" arabic-form="isolated" 
d="M80 0l-21 732h140l21 -732h-140z" />
    <glyph glyph-name="uniFE8E#0#1" unicode="&#x627;" horiz-adv-x="318" arabic-form="final" 
d="M317 -5q-93 0 -143.5 19t-70.5 59.5t-23 102.5l-21 556h140l21 -489q2 -46 10 -69t30.5 -31t66.5 -8q38 0 54.5 -19.5t16.5 -48.5q0 -31 -21 -51.5t-60 -20.5z" />
    <glyph glyph-name="uniFE83#0#1" unicode="&#x623;" horiz-adv-x="271" arabic-form="isolated" 
d="M78 0l-19 662h140l19 -662h-140zM23 726l-17 70q32 6 51 10q-18 13 -31 34t-13 46q0 36 16 58t41 32t52 10q29 0 53 -8l-8 -72l-20 4t-22 2q-13 0 -23.5 -8.5t-10.5 -20.5q0 -20 16.5 -34.5t33.5 -20.5q32 9 59 20l20 -67q-38 -14 -92.5 -29.5t-104.5 -25.5z" />
    <glyph glyph-name="uniFE84#0#1" unicode="&#x623;" horiz-adv-x="316" arabic-form="final" 
d="M315 -5q-93 0 -143.5 19t-70.5 59.5t-23 102.5l-19 486h140l19 -419q2 -46 10 -69t30.5 -31t66.5 -8q38 0 54.5 -19.5t16.5 -48.5q0 -31 -21 -51.5t-60 -20.5zM30 726l-17 70q32 6 51 10q-18 13 -31 34t-13 46q0 36 16 58t41 32t52 10q29 0 53 -8l-8 -72l-20 4t-22 2
q-13 0 -23.5 -8.5t-10.5 -20.5q0 -20 16.5 -34.5t33.5 -20.5q32 9 59 20l20 -67q-38 -14 -92.5 -29.5t-104.5 -25.5z" />
    <glyph glyph-name="uniFE87#0#1" unicode="&#x625;" horiz-adv-x="273" arabic-form="isolated" 
d="M80 0l-21 732h140l21 -732h-140zM74 -309l-17 70q32 6 51 10q-18 13 -31 34t-13 46q0 36 16 58t41 32t52 10q29 0 53 -8l-8 -72l-20 4t-22 2q-13 0 -23.5 -8.5t-10.5 -20.5q0 -20 16.5 -34.5t33.5 -20.5q32 9 59 20l20 -67q-38 -14 -92.5 -29.5t-104.5 -25.5z" />
    <glyph glyph-name="uniFE88#0#1" unicode="&#x625;" horiz-adv-x="318" arabic-form="final" 
d="M317 -5q-93 0 -143.5 19t-70.5 59.5t-23 102.5l-21 556h140l21 -489q2 -46 10 -69t30.5 -31t66.5 -8q38 0 54.5 -19.5t16.5 -48.5q0 -31 -21 -51.5t-60 -20.5zM89 -314l-17 70q32 6 51 10q-18 13 -31 34t-13 46q0 36 16 58t41 32t52 10q29 0 53 -8l-8 -72l-20 4t-22 2
q-13 0 -23.5 -8.5t-10.5 -20.5q0 -20 16.5 -34.5t33.5 -20.5q32 9 59 20l20 -67q-38 -14 -92.5 -29.5t-104.5 -25.5z" />
    <glyph glyph-name="uni0672.fina#0#1" unicode="&#x672;" horiz-adv-x="316" 
d="M315 -5q-93 0 -143.5 19t-70.5 59.5t-23 102.5l-19 486h140l19 -419q2 -46 10 -69t30.5 -31t66.5 -8q38 0 54.5 -19.5t16.5 -48.5q0 -31 -21 -51.5t-60 -20.5zM2 727l-54 36q12 28 34 40.5t40 12.5q23 0 40.5 -11t31.5 -11h5q-18 14 -30 35.5t-12 45.5q0 45 31.5 71
t77.5 26q30 0 54 -8l-8 -62q-10 2 -19 4t-20 2q-47 0 -47 -33q0 -26 21 -42.5t40 -21.5q17 6 31.5 12t28.5 12l20 -60q-8 -4 -27.5 -12t-43.5 -16t-47 -13.5t-38 -5.5q-29 0 -47 11t-29 11q-10 0 -17 -6t-16 -17z" />
    <glyph glyph-name="uni0673.fina#0#1" unicode="&#x673;" horiz-adv-x="318" 
d="M317 -5q-93 0 -143.5 19t-70.5 59.5t-23 102.5l-21 556h140l21 -489q2 -46 10 -69t30.5 -31t66.5 -8q38 0 54.5 -19.5t16.5 -48.5q0 -31 -21 -51.5t-60 -20.5zM15 -313l-54 36q12 28 34 40.5t40 12.5q23 0 40.5 -11t31.5 -11h5q-18 14 -30 35.5t-12 45.5q0 45 31.5 71
t77.5 26q30 0 54 -8l-8 -62q-10 2 -19 4t-20 2q-47 0 -47 -33q0 -26 21 -42.5t40 -21.5q17 6 31.5 12t28.5 12l20 -60q-8 -4 -27.5 -12t-43.5 -16t-47 -13.5t-38 -5.5q-29 0 -47 11t-29 11q-10 0 -17 -6t-16 -17z" />
    <glyph glyph-name="uniFE81#0#1" unicode="&#x622;" horiz-adv-x="271" arabic-form="isolated" 
d="M78 0l-19 662h140l19 -662h-140zM192 759q-30 0 -54 10.5t-44 20.5t-37 10q-18 0 -32.5 -9t-30.5 -25l-47 44q54 68 110 68q25 0 46 -10t42.5 -20t46.5 -10q16 0 30 5.5t34 17.5l35 -55q-36 -31 -59.5 -39t-39.5 -8z" />
    <glyph glyph-name="uniFE82#0#1" unicode="&#x622;" horiz-adv-x="316" arabic-form="final" 
d="M315 -5q-93 0 -143.5 19t-70.5 59.5t-23 102.5l-19 486h140l19 -419q2 -46 10 -69t30.5 -31t66.5 -8q38 0 54.5 -19.5t16.5 -48.5q0 -31 -21 -51.5t-60 -20.5zM199 759q-30 0 -54 10.5t-44 20.5t-37 10q-18 0 -32.5 -9t-30.5 -25l-47 44q54 68 110 68q25 0 46 -10
t42.5 -20t46.5 -10q16 0 30 5.5t34 17.5l35 -55q-36 -31 -59.5 -39t-39.5 -8z" />
    <glyph glyph-name="uniFB50#0#1" unicode="&#x671;" horiz-adv-x="271" arabic-form="isolated" 
d="M78 0l-19 662h140l19 -662h-140zM104 749q-22 0 -52.5 2t-57.5 5.5t-41 5.5l7 66q8 -1 19 -2.5t24 -2.5q13 31 35.5 63.5t53 54t69.5 21.5q41 0 71 -26t30 -73q0 -30 -12.5 -56t-46.5 -42t-99 -16zM158 894q-19 0 -41 -19.5t-40 -57.5q15 -1 27 -1q56 0 73 12.5t17 29.5
q0 18 -11 27t-25 9z" />
    <glyph glyph-name="uniFB51#0#1" unicode="&#x671;" horiz-adv-x="271" arabic-form="final" 
d="M78 0l-19 662h140l19 -662h-140zM104 749q-22 0 -52.5 2t-57.5 5.5t-41 5.5l7 66q8 -1 19 -2.5t24 -2.5q13 31 35.5 63.5t53 54t69.5 21.5q41 0 71 -26t30 -73q0 -30 -12.5 -56t-46.5 -42t-99 -16zM158 894q-19 0 -41 -19.5t-40 -57.5q15 -1 27 -1q56 0 73 12.5t17 29.5
q0 18 -11 27t-25 9z" />
    <glyph glyph-name="uniFD3D#0#1" unicode="&#xfd3d;" horiz-adv-x="273" arabic-form="isolated" 
d="M80 0l-21 732h140l21 -732h-140zM255 648v70l236 70v-72zM255 543v70l236 70v-72z" />
    <glyph glyph-name="uniFD3C#0#1" unicode="&#xfd3c;" horiz-adv-x="548" arabic-form="final" 
d="M547 -5h-232q-92 0 -142 19t-70 59.5t-23 102.5l-21 556h140l21 -489q2 -45 10 -68.5t29.5 -31.5t64.5 -8h233q38 0 54.5 -19.5t16.5 -48.5q0 -31 -21 -51.5t-60 -20.5zM271 647v70l236 70v-72zM271 542v70l236 70v-72z" />
    <glyph glyph-name="uni0675.fina#0#1" unicode="&#x675;" horiz-adv-x="548" 
d="M547 -5h-232q-92 0 -142 19t-70 59.5t-23 102.5l-21 556h140l21 -489q2 -45 10 -68.5t29.5 -31.5t64.5 -8h233q38 0 54.5 -19.5t16.5 -48.5q0 -31 -21 -51.5t-60 -20.5zM271 578l-16 66q29 5 47 9q-18 13 -30.5 34t-12.5 45q0 36 16 58t41 32t52 10q29 0 53 -8l-8 -62
l-20 4t-22 2q-44 0 -44 -33q0 -24 18 -40t36 -22q37 11 68 23l19 -63q-38 -14 -92.5 -29.5t-104.5 -25.5z" />
    <glyph glyph-name="uni066E.init#0#1" unicode="&#x66e;" horiz-adv-x="317" 
d="M0 -5l10 140q65 0 91 14.5t26 61.5q0 28 -7.5 67t-19.5 81t-24 77l138 38q12 -34 24 -79t20.5 -92.5t8.5 -91.5q0 -68 -21 -110.5t-58.5 -65.5t-85.5 -31.5t-102 -8.5z" />
    <glyph glyph-name="uni066E.medi#0#1" unicode="&#x66e;" horiz-adv-x="384" 
d="M0 -5l10 140q38 0 60.5 7t36 28.5t23 63.5t19.5 112l131 -22q-4 -23 -9 -55t-5 -59q0 -24 10.5 -40.5t38 -25.5t79.5 -9q38 0 54 -19.5t16 -48.5q0 -31 -20.5 -51.5t-59.5 -20.5q-80 0 -124.5 17t-63.5 61q-37 -52 -87.5 -65t-108.5 -13z" />
    <glyph glyph-name="uni066E.fina#0#1" unicode="&#x66e;" horiz-adv-x="1142" 
d="M425 -21l26 140q72 0 138.5 7t127 28t113.5 62t96 110l112 -51q-6 -19 -10 -36.5t-4 -28.5q0 -35 27 -55t101 -20q38 0 54 -19.5t16 -48.5q0 -31 -20.5 -51.5t-59.5 -20.5q-90 0 -147.5 31.5t-76.5 83.5q-77 -68 -205.5 -99.5t-287.5 -31.5zM424 -21q-143 0 -229.5 29
t-124.5 80t-38 116q0 47 12 96.5t23 87.5l125 -29q-7 -28 -13.5 -59.5t-6.5 -55.5q0 -37 26.5 -65.5t87.5 -44t164 -15.5l20 -108z" />
    <glyph glyph-name="uniFE8F#0#1" unicode="&#x628;" horiz-adv-x="1024" arabic-form="isolated" 
d="M425 -21l26 140q194 0 288.5 22t94.5 77q0 36 -12 86.5t-31 102.5l131 38q13 -34 25 -74.5t19.5 -81t7.5 -75.5q0 -62 -27 -106.5t-89.5 -73t-168.5 -42t-264 -13.5zM424 -21q-143 0 -229.5 29t-124.5 80t-38 116q0 47 12 96.5t23 87.5l125 -29q-7 -28 -13.5 -59.5
t-6.5 -55.5q0 -37 26.5 -65.5t87.5 -44t164 -15.5l20 -108zM501 -255q-29 0 -49.5 20t-20.5 49t20.5 50.5t49.5 21.5t49.5 -21.5t20.5 -50.5t-20.5 -49t-49.5 -20z" />
    <glyph glyph-name="uniFE90#0#1" unicode="&#x628;" horiz-adv-x="1142" arabic-form="final" 
d="M425 -21l26 140q72 0 138.5 7t127 28t113.5 62t96 110l112 -51q-6 -19 -10 -36.5t-4 -28.5q0 -35 27 -55t101 -20q38 0 54 -19.5t16 -48.5q0 -31 -20.5 -51.5t-59.5 -20.5q-90 0 -147.5 31.5t-76.5 83.5q-77 -68 -205.5 -99.5t-287.5 -31.5zM424 -21q-143 0 -229.5 29
t-124.5 80t-38 116q0 47 12 96.5t23 87.5l125 -29q-7 -28 -13.5 -59.5t-6.5 -55.5q0 -37 26.5 -65.5t87.5 -44t164 -15.5l20 -108zM496 -255q-29 0 -49.5 20t-20.5 49t20.5 50.5t49.5 21.5t49.5 -21.5t20.5 -50.5t-20.5 -49t-49.5 -20z" />
    <glyph glyph-name="uniFE92#0#1" unicode="&#x628;" horiz-adv-x="384" arabic-form="medial" 
d="M0 -5l10 140q38 0 60.5 7t36 28.5t23 63.5t19.5 112l131 -22q-4 -23 -9 -55t-5 -59q0 -24 10.5 -40.5t38 -25.5t79.5 -9q38 0 54 -19.5t16 -48.5q0 -31 -20.5 -51.5t-59.5 -20.5q-80 0 -124.5 17t-63.5 61q-37 -52 -87.5 -65t-108.5 -13zM178 -235q-29 0 -49.5 20
t-20.5 49t20.5 50.5t49.5 21.5t49.5 -21.5t20.5 -50.5t-20.5 -49t-49.5 -20z" />
    <glyph glyph-name="uniFE91#0#1" unicode="&#x628;" horiz-adv-x="317" arabic-form="initial" 
d="M0 -5l10 140q65 0 91 14.5t26 61.5q0 28 -7.5 67t-19.5 81t-24 77l138 38q12 -34 24 -79t20.5 -92.5t8.5 -91.5q0 -68 -21 -110.5t-58.5 -65.5t-85.5 -31.5t-102 -8.5zM123 -235q-29 0 -49.5 20t-20.5 49t20.5 50.5t49.5 21.5t49.5 -21.5t20.5 -50.5t-20.5 -49t-49.5 -20
z" />
    <glyph glyph-name="uniFB56#0#1" unicode="&#x67e;" horiz-adv-x="1024" arabic-form="isolated" 
d="M425 -21l26 140q194 0 288.5 22t94.5 77q0 36 -12 86.5t-31 102.5l131 38q13 -34 25 -74.5t19.5 -81t7.5 -75.5q0 -62 -27 -106.5t-89.5 -73t-168.5 -42t-264 -13.5zM424 -21q-143 0 -229.5 29t-124.5 80t-38 116q0 47 12 96.5t23 87.5l125 -29q-7 -28 -13.5 -59.5
t-6.5 -55.5q0 -37 26.5 -65.5t87.5 -44t164 -15.5l20 -108zM429 -244q-26 0 -44.5 18t-18.5 44t18.5 45t44.5 19t44 -19t18 -45t-18 -44t-44 -18zM585 -244q-26 0 -44.5 18t-18.5 44t18.5 45t44.5 19t44 -19t18 -45t-18 -44t-44 -18zM505 -376q-26 0 -44.5 18t-18.5 44
t18.5 45t44.5 19t44 -19t18 -45t-18 -44t-44 -18z" />
    <glyph glyph-name="uniFB57#0#1" unicode="&#x67e;" horiz-adv-x="1142" arabic-form="final" 
d="M425 -21l26 140q72 0 138.5 7t127 28t113.5 62t96 110l112 -51q-6 -19 -10 -36.5t-4 -28.5q0 -35 27 -55t101 -20q38 0 54 -19.5t16 -48.5q0 -31 -20.5 -51.5t-59.5 -20.5q-90 0 -147.5 31.5t-76.5 83.5q-77 -68 -205.5 -99.5t-287.5 -31.5zM424 -21q-143 0 -229.5 29
t-124.5 80t-38 116q0 47 12 96.5t23 87.5l125 -29q-7 -28 -13.5 -59.5t-6.5 -55.5q0 -37 26.5 -65.5t87.5 -44t164 -15.5l20 -108zM424 -244q-26 0 -44.5 18t-18.5 44t18.5 45t44.5 19t44 -19t18 -45t-18 -44t-44 -18zM580 -244q-26 0 -44.5 18t-18.5 44t18.5 45t44.5 19
t44 -19t18 -45t-18 -44t-44 -18zM500 -376q-26 0 -44.5 18t-18.5 44t18.5 45t44.5 19t44 -19t18 -45t-18 -44t-44 -18z" />
    <glyph glyph-name="uniFB59#0#1" unicode="&#x67e;" horiz-adv-x="409" arabic-form="medial" 
d="M0 -5l10 140q36 0 62 7t44 28.5t30.5 63.5t22.5 112l131 -22q-4 -23 -9 -55t-5 -59q0 -36 30 -55.5t103 -19.5q38 0 54 -19.5t16 -48.5q0 -31 -20.5 -51.5t-59.5 -20.5q-70 0 -119.5 18t-72.5 64q-27 -36 -63.5 -53.5t-76 -23t-77.5 -5.5zM115 -224q-26 0 -44.5 18
t-18.5 44t18.5 45t44.5 19t44 -19t18 -45t-18 -44t-44 -18zM271 -224q-26 0 -44.5 18t-18.5 44t18.5 45t44.5 19t44 -19t18 -45t-18 -44t-44 -18zM191 -356q-26 0 -44.5 18t-18.5 44t18.5 45t44.5 19t44 -19t18 -45t-18 -44t-44 -18z" />
    <glyph glyph-name="uniFB58#0#1" unicode="&#x67e;" horiz-adv-x="359" arabic-form="initial" 
d="M0 -5l10 140q60 0 92 6t44.5 22.5t12.5 47.5q0 28 -7.5 67t-19 81t-24.5 77l138 38q13 -34 25 -79t20 -92.5t8 -91.5q0 -68 -22 -110.5t-61.5 -65.5t-94.5 -31.5t-121 -8.5zM83 -224q-26 0 -44.5 18t-18.5 44t18.5 45t44.5 19t44 -19t18 -45t-18 -44t-44 -18zM239 -224
q-26 0 -44.5 18t-18.5 44t18.5 45t44.5 19t44 -19t18 -45t-18 -44t-44 -18zM159 -356q-26 0 -44.5 18t-18.5 44t18.5 45t44.5 19t44 -19t18 -45t-18 -44t-44 -18z" />
    <glyph glyph-name="uniFB52#0#1" unicode="&#x67b;" horiz-adv-x="1024" arabic-form="isolated" 
d="M425 -21l26 140q194 0 288.5 22t94.5 77q0 36 -12 86.5t-31 102.5l131 38q13 -34 25 -74.5t19.5 -81t7.5 -75.5q0 -62 -27 -106.5t-89.5 -73t-168.5 -42t-264 -13.5zM424 -21q-143 0 -229.5 29t-124.5 80t-38 116q0 47 12 96.5t23 87.5l125 -29q-7 -28 -13.5 -59.5
t-6.5 -55.5q0 -37 26.5 -65.5t87.5 -44t164 -15.5l20 -108zM503 -239q-26 0 -44.5 18t-18.5 44t18.5 45t44.5 19t44.5 -19t18.5 -45t-18.5 -44t-44.5 -18zM503 -410q-26 0 -44.5 18t-18.5 44t18.5 45t44.5 19t44.5 -19t18.5 -45t-18.5 -44t-44.5 -18z" />
    <glyph glyph-name="uniFB53#0#1" unicode="&#x67b;" horiz-adv-x="1142" arabic-form="final" 
d="M425 -21l26 140q72 0 138.5 7t127 28t113.5 62t96 110l112 -51q-6 -19 -10 -36.5t-4 -28.5q0 -35 27 -55t101 -20q38 0 54 -19.5t16 -48.5q0 -31 -20.5 -51.5t-59.5 -20.5q-90 0 -147.5 31.5t-76.5 83.5q-77 -68 -205.5 -99.5t-287.5 -31.5zM424 -21q-143 0 -229.5 29
t-124.5 80t-38 116q0 47 12 96.5t23 87.5l125 -29q-7 -28 -13.5 -59.5t-6.5 -55.5q0 -37 26.5 -65.5t87.5 -44t164 -15.5l20 -108zM498 -239q-26 0 -44.5 18t-18.5 44t18.5 45t44.5 19t44.5 -19t18.5 -45t-18.5 -44t-44.5 -18zM498 -410q-26 0 -44.5 18t-18.5 44t18.5 45
t44.5 19t44.5 -19t18.5 -45t-18.5 -44t-44.5 -18z" />
    <glyph glyph-name="uniFB55#0#1" unicode="&#x67b;" horiz-adv-x="384" arabic-form="medial" 
d="M0 -5l10 140q38 0 60.5 7t36 28.5t23 63.5t19.5 112l131 -22q-4 -23 -9 -55t-5 -59q0 -24 10.5 -40.5t38 -25.5t79.5 -9q38 0 54 -19.5t16 -48.5q0 -31 -20.5 -51.5t-59.5 -20.5q-80 0 -124.5 17t-63.5 61q-37 -52 -87.5 -65t-108.5 -13zM180 -219q-26 0 -44.5 18
t-18.5 44t18.5 45t44.5 19t44.5 -19t18.5 -45t-18.5 -44t-44.5 -18zM180 -390q-26 0 -44.5 18t-18.5 44t18.5 45t44.5 19t44.5 -19t18.5 -45t-18.5 -44t-44.5 -18z" />
    <glyph glyph-name="uniFB54#0#1" unicode="&#x67b;" horiz-adv-x="317" arabic-form="initial" 
d="M0 -5l10 140q65 0 91 14.5t26 61.5q0 28 -7.5 67t-19.5 81t-24 77l138 38q12 -34 24 -79t20.5 -92.5t8.5 -91.5q0 -68 -21 -110.5t-58.5 -65.5t-85.5 -31.5t-102 -8.5zM125 -219q-26 0 -44.5 18t-18.5 44t18.5 45t44.5 19t44.5 -19t18.5 -45t-18.5 -44t-44.5 -18z
M125 -390q-26 0 -44.5 18t-18.5 44t18.5 45t44.5 19t44.5 -19t18.5 -45t-18.5 -44t-44.5 -18z" />
    <glyph glyph-name="uniFB5A#0#1" unicode="&#x680;" horiz-adv-x="1024" arabic-form="isolated" 
d="M425 -21l26 140q194 0 288.5 22t94.5 77q0 36 -12 86.5t-31 102.5l131 38q13 -34 25 -74.5t19.5 -81t7.5 -75.5q0 -62 -27 -106.5t-89.5 -73t-168.5 -42t-264 -13.5zM424 -21q-143 0 -229.5 29t-124.5 80t-38 116q0 47 12 96.5t23 87.5l125 -29q-7 -28 -13.5 -59.5
t-6.5 -55.5q0 -37 26.5 -65.5t87.5 -44t164 -15.5l20 -108zM580 -233q-24 0 -40.5 16.5t-16.5 40.5t16.5 41.5t40.5 17.5q23 0 40 -17.5t17 -41.5t-17 -40.5t-40 -16.5zM432 -233q-24 0 -40.5 16.5t-16.5 40.5t16.5 41.5t40.5 17.5q23 0 40 -17.5t17 -41.5t-17 -40.5
t-40 -16.5zM580 -372q-24 0 -40.5 16.5t-16.5 40.5t16.5 41.5t40.5 17.5q23 0 40 -17.5t17 -41.5t-17 -40.5t-40 -16.5zM432 -372q-24 0 -40.5 16.5t-16.5 40.5t16.5 41.5t40.5 17.5q23 0 40 -17.5t17 -41.5t-17 -40.5t-40 -16.5z" />
    <glyph glyph-name="uniFB5B#0#1" unicode="&#x680;" horiz-adv-x="1142" arabic-form="final" 
d="M425 -21l26 140q72 0 138.5 7t127 28t113.5 62t96 110l112 -51q-6 -19 -10 -36.5t-4 -28.5q0 -35 27 -55t101 -20q38 0 54 -19.5t16 -48.5q0 -31 -20.5 -51.5t-59.5 -20.5q-90 0 -147.5 31.5t-76.5 83.5q-77 -68 -205.5 -99.5t-287.5 -31.5zM424 -21q-143 0 -229.5 29
t-124.5 80t-38 116q0 47 12 96.5t23 87.5l125 -29q-7 -28 -13.5 -59.5t-6.5 -55.5q0 -37 26.5 -65.5t87.5 -44t164 -15.5l20 -108zM575 -233q-24 0 -40.5 16.5t-16.5 40.5t16.5 41.5t40.5 17.5q23 0 40 -17.5t17 -41.5t-17 -40.5t-40 -16.5zM427 -233q-24 0 -40.5 16.5
t-16.5 40.5t16.5 41.5t40.5 17.5q23 0 40 -17.5t17 -41.5t-17 -40.5t-40 -16.5zM575 -372q-24 0 -40.5 16.5t-16.5 40.5t16.5 41.5t40.5 17.5q23 0 40 -17.5t17 -41.5t-17 -40.5t-40 -16.5zM427 -372q-24 0 -40.5 16.5t-16.5 40.5t16.5 41.5t40.5 17.5q23 0 40 -17.5
t17 -41.5t-17 -40.5t-40 -16.5z" />
    <glyph glyph-name="uniFB5D#0#1" unicode="&#x680;" horiz-adv-x="409" arabic-form="medial" 
d="M0 -5l10 140q36 0 62 7t44 28.5t30.5 63.5t22.5 112l131 -22q-4 -23 -9 -55t-5 -59q0 -36 30 -55.5t103 -19.5q38 0 54 -19.5t16 -48.5q0 -31 -20.5 -51.5t-59.5 -20.5q-70 0 -119.5 18t-72.5 64q-27 -36 -63.5 -53.5t-76 -23t-77.5 -5.5zM266 -213q-24 0 -40.5 16.5
t-16.5 40.5t16.5 41.5t40.5 17.5q23 0 40 -17.5t17 -41.5t-17 -40.5t-40 -16.5zM118 -213q-24 0 -40.5 16.5t-16.5 40.5t16.5 41.5t40.5 17.5q23 0 40 -17.5t17 -41.5t-17 -40.5t-40 -16.5zM266 -352q-24 0 -40.5 16.5t-16.5 40.5t16.5 41.5t40.5 17.5q23 0 40 -17.5
t17 -41.5t-17 -40.5t-40 -16.5zM118 -352q-24 0 -40.5 16.5t-16.5 40.5t16.5 41.5t40.5 17.5q23 0 40 -17.5t17 -41.5t-17 -40.5t-40 -16.5z" />
    <glyph glyph-name="uniFB5C#0#1" unicode="&#x680;" horiz-adv-x="359" arabic-form="initial" 
d="M0 -5l10 140q60 0 92 6t44.5 22.5t12.5 47.5q0 28 -7.5 67t-19 81t-24.5 77l138 38q13 -34 25 -79t20 -92.5t8 -91.5q0 -68 -22 -110.5t-61.5 -65.5t-94.5 -31.5t-121 -8.5zM234 -213q-24 0 -40.5 16.5t-16.5 40.5t16.5 41.5t40.5 17.5q23 0 40 -17.5t17 -41.5t-17 -40.5
t-40 -16.5zM86 -213q-24 0 -40.5 16.5t-16.5 40.5t16.5 41.5t40.5 17.5q23 0 40 -17.5t17 -41.5t-17 -40.5t-40 -16.5zM234 -352q-24 0 -40.5 16.5t-16.5 40.5t16.5 41.5t40.5 17.5q23 0 40 -17.5t17 -41.5t-17 -40.5t-40 -16.5zM86 -352q-24 0 -40.5 16.5t-16.5 40.5
t16.5 41.5t40.5 17.5q23 0 40 -17.5t17 -41.5t-17 -40.5t-40 -16.5z" />
    <glyph glyph-name="uniFBE9#0#1" unicode="&#x649;" horiz-adv-x="384" arabic-form="medial" 
d="M0 -5l10 140q38 0 60.5 7t36 28.5t23 63.5t19.5 112l131 -22q-4 -23 -9 -55t-5 -59q0 -24 10.5 -40.5t38 -25.5t79.5 -9q38 0 54 -19.5t16 -48.5q0 -31 -20.5 -51.5t-59.5 -20.5q-80 0 -124.5 17t-63.5 61q-37 -52 -87.5 -65t-108.5 -13z" />
    <glyph glyph-name="uniFBE8#0#1" unicode="&#x649;" horiz-adv-x="317" arabic-form="initial" 
d="M0 -5l10 140q65 0 91 14.5t26 61.5q0 28 -7.5 67t-19.5 81t-24 77l138 38q12 -34 24 -79t20.5 -92.5t8.5 -91.5q0 -68 -21 -110.5t-58.5 -65.5t-85.5 -31.5t-102 -8.5z" />
    <glyph glyph-name="uniFE95#0#1" unicode="&#x62a;" horiz-adv-x="1024" arabic-form="isolated" 
d="M425 -21l26 140q194 0 288.5 22t94.5 77q0 36 -12 86.5t-31 102.5l131 38q13 -34 25 -74.5t19.5 -81t7.5 -75.5q0 -62 -27 -106.5t-89.5 -73t-168.5 -42t-264 -13.5zM424 -21q-143 0 -229.5 29t-124.5 80t-38 116q0 47 12 96.5t23 87.5l125 -29q-7 -28 -13.5 -59.5
t-6.5 -55.5q0 -37 26.5 -65.5t87.5 -44t164 -15.5l20 -108zM416 437q-29 0 -49.5 20.5t-20.5 48.5q0 29 20.5 50t49.5 21q28 0 48 -21t20 -50q0 -28 -20 -48.5t-48 -20.5zM589 436q-29 0 -49.5 20.5t-20.5 48.5q0 29 20.5 50t49.5 21q28 0 48 -21t20 -50q0 -28 -20 -48.5
t-48 -20.5z" />
    <glyph glyph-name="uniFE96#0#1" unicode="&#x62a;" horiz-adv-x="1142" arabic-form="final" 
d="M425 -21l26 140q72 0 138.5 7t127 28t113.5 62t96 110l112 -51q-6 -19 -10 -36.5t-4 -28.5q0 -35 27 -55t101 -20q38 0 54 -19.5t16 -48.5q0 -31 -20.5 -51.5t-59.5 -20.5q-90 0 -147.5 31.5t-76.5 83.5q-77 -68 -205.5 -99.5t-287.5 -31.5zM424 -21q-143 0 -229.5 29
t-124.5 80t-38 116q0 47 12 96.5t23 87.5l125 -29q-7 -28 -13.5 -59.5t-6.5 -55.5q0 -37 26.5 -65.5t87.5 -44t164 -15.5l20 -108zM437 437q-29 0 -49.5 20.5t-20.5 48.5q0 29 20.5 50t49.5 21q28 0 48 -21t20 -50q0 -28 -20 -48.5t-48 -20.5zM610 436q-29 0 -49.5 20.5
t-20.5 48.5q0 29 20.5 50t49.5 21q28 0 48 -21t20 -50q0 -28 -20 -48.5t-48 -20.5z" />
    <glyph glyph-name="uniFE98#0#1" unicode="&#x62a;" horiz-adv-x="409" arabic-form="medial" 
d="M0 -5l10 140q36 0 62 7t44 28.5t30.5 63.5t22.5 112l131 -22q-4 -23 -9 -55t-5 -59q0 -36 30 -55.5t103 -19.5q38 0 54 -19.5t16 -48.5q0 -31 -20.5 -51.5t-59.5 -20.5q-70 0 -119.5 18t-72.5 64q-27 -36 -63.5 -53.5t-76 -23t-77.5 -5.5zM148 437q-29 0 -49.5 20.5
t-20.5 48.5q0 29 20.5 50t49.5 21q28 0 48 -21t20 -50q0 -28 -20 -48.5t-48 -20.5zM321 436q-29 0 -49.5 20.5t-20.5 48.5q0 29 20.5 50t49.5 21q28 0 48 -21t20 -50q0 -28 -20 -48.5t-48 -20.5z" />
    <glyph glyph-name="uniFE97#0#1" unicode="&#x62a;" horiz-adv-x="359" arabic-form="initial" 
d="M0 -5l10 140q60 0 92 6t44.5 22.5t12.5 47.5q0 28 -7.5 67t-19 81t-24.5 77l138 38q13 -34 25 -79t20 -92.5t8 -91.5q0 -68 -22 -110.5t-61.5 -65.5t-94.5 -31.5t-121 -8.5zM98 556q-29 0 -49.5 20.5t-20.5 48.5q0 29 20.5 50t49.5 21q28 0 48 -21t20 -50
q0 -28 -20 -48.5t-48 -20.5zM271 555q-29 0 -49.5 20.5t-20.5 48.5q0 29 20.5 50t49.5 21q28 0 48 -21t20 -50q0 -28 -20 -48.5t-48 -20.5z" />
    <glyph glyph-name="uni067C.init#0#1" unicode="&#x67c;" horiz-adv-x="359" 
d="M0 -5l10 140q60 0 92 6t44.5 22.5t12.5 47.5q0 28 -7.5 67t-19 81t-24.5 77l138 38q13 -34 25 -79t20 -92.5t8 -91.5q0 -68 -22 -110.5t-61.5 -65.5t-94.5 -31.5t-121 -8.5zM98 556q-29 0 -49.5 20.5t-20.5 48.5q0 29 20.5 50t49.5 21q28 0 48 -21t20 -50
q0 -28 -20 -48.5t-48 -20.5zM271 555q-29 0 -49.5 20.5t-20.5 48.5q0 29 20.5 50t49.5 21q28 0 48 -21t20 -50q0 -28 -20 -48.5t-48 -20.5zM145 -130q-42 0 -71 29.5t-29 70.5t29 70.5t71 29.5q41 0 70.5 -29.5t29.5 -70.5t-29.5 -70.5t-70.5 -29.5zM144 -64q16 0 26.5 9.5
t10.5 24.5q0 16 -10.5 25.5t-26.5 9.5q-15 0 -25.5 -10t-10.5 -25t10.5 -24.5t25.5 -9.5z" />
    <glyph glyph-name="uni067C.medi#0#1" unicode="&#x67c;" horiz-adv-x="384" 
d="M0 -5l10 140q38 0 60.5 7t36 28.5t23 63.5t19.5 112l131 -22q-4 -23 -9 -55t-5 -59q0 -24 10.5 -40.5t38 -25.5t79.5 -9q38 0 54 -19.5t16 -48.5q0 -31 -20.5 -51.5t-59.5 -20.5q-80 0 -124.5 17t-63.5 61q-37 -52 -87.5 -65t-108.5 -13zM127 -123q-42 0 -71 29.5
t-29 70.5t29 70.5t71 29.5q41 0 70.5 -29.5t29.5 -70.5t-29.5 -70.5t-70.5 -29.5zM126 -57q16 0 26.5 9.5t10.5 24.5q0 16 -10.5 25.5t-26.5 9.5q-15 0 -25.5 -10t-10.5 -25t10.5 -24.5t25.5 -9.5zM128 437q-29 0 -49.5 20.5t-20.5 48.5q0 29 20.5 50t49.5 21q28 0 48 -21
t20 -50q0 -28 -20 -48.5t-48 -20.5zM301 436q-29 0 -49.5 20.5t-20.5 48.5q0 29 20.5 50t49.5 21q28 0 48 -21t20 -50q0 -28 -20 -48.5t-48 -20.5z" />
    <glyph glyph-name="uni067C.fina#0#1" unicode="&#x67c;" horiz-adv-x="1142" 
d="M425 -21l26 140q72 0 138.5 7t127 28t113.5 62t96 110l112 -51q-6 -19 -10 -36.5t-4 -28.5q0 -35 27 -55t101 -20q38 0 54 -19.5t16 -48.5q0 -31 -20.5 -51.5t-59.5 -20.5q-90 0 -147.5 31.5t-76.5 83.5q-77 -68 -205.5 -99.5t-287.5 -31.5zM424 -21q-143 0 -229.5 29
t-124.5 80t-38 116q0 47 12 96.5t23 87.5l125 -29q-7 -28 -13.5 -59.5t-6.5 -55.5q0 -37 26.5 -65.5t87.5 -44t164 -15.5l20 -108zM437 437q-29 0 -49.5 20.5t-20.5 48.5q0 29 20.5 50t49.5 21q28 0 48 -21t20 -50q0 -28 -20 -48.5t-48 -20.5zM610 436q-29 0 -49.5 20.5
t-20.5 48.5q0 29 20.5 50t49.5 21q28 0 48 -21t20 -50q0 -28 -20 -48.5t-48 -20.5zM545 -152q-42 0 -71 29.5t-29 70.5t29 70.5t71 29.5q41 0 70.5 -29.5t29.5 -70.5t-29.5 -70.5t-70.5 -29.5zM544 -86q16 0 26.5 9.5t10.5 24.5q0 16 -10.5 25.5t-26.5 9.5q-15 0 -25.5 -10
t-10.5 -25t10.5 -24.5t25.5 -9.5z" />
    <glyph glyph-name="uni067D.init#0#1" unicode="&#x67d;" horiz-adv-x="359" 
d="M0 -5l10 140q60 0 92 6t44.5 22.5t12.5 47.5q0 28 -7.5 67t-19 81t-24.5 77l138 38q13 -34 25 -79t20 -92.5t8 -91.5q0 -68 -22 -110.5t-61.5 -65.5t-94.5 -31.5t-121 -8.5zM107 688q-26 0 -44.5 18t-18.5 44t18.5 45t44.5 19t44 -19t18 -45t-18 -44t-44 -18zM263 688
q-26 0 -44.5 18t-18.5 44t18.5 45t44.5 19t44 -19t18 -45t-18 -44t-44 -18zM183 556q-26 0 -44.5 18t-18.5 44t18.5 45t44.5 19t44 -19t18 -45t-18 -44t-44 -18z" />
    <glyph glyph-name="uni067D.medi#0#1" unicode="&#x67d;" horiz-adv-x="409" 
d="M0 -5l10 140q36 0 62 7t44 28.5t30.5 63.5t22.5 112l131 -22q-4 -23 -9 -55t-5 -59q0 -36 30 -55.5t103 -19.5q38 0 54 -19.5t16 -48.5q0 -31 -20.5 -51.5t-59.5 -20.5q-70 0 -119.5 18t-72.5 64q-27 -36 -63.5 -53.5t-76 -23t-77.5 -5.5zM157 569q-26 0 -44.5 18
t-18.5 44t18.5 45t44.5 19t44 -19t18 -45t-18 -44t-44 -18zM313 569q-26 0 -44.5 18t-18.5 44t18.5 45t44.5 19t44 -19t18 -45t-18 -44t-44 -18zM233 437q-26 0 -44.5 18t-18.5 44t18.5 45t44.5 19t44 -19t18 -45t-18 -44t-44 -18z" />
    <glyph glyph-name="uni067D.fina#0#1" unicode="&#x67d;" horiz-adv-x="1142" 
d="M425 -21l26 140q72 0 138.5 7t127 28t113.5 62t96 110l112 -51q-6 -19 -10 -36.5t-4 -28.5q0 -35 27 -55t101 -20q38 0 54 -19.5t16 -48.5q0 -31 -20.5 -51.5t-59.5 -20.5q-90 0 -147.5 31.5t-76.5 83.5q-77 -68 -205.5 -99.5t-287.5 -31.5zM424 -21q-143 0 -229.5 29
t-124.5 80t-38 116q0 47 12 96.5t23 87.5l125 -29q-7 -28 -13.5 -59.5t-6.5 -55.5q0 -37 26.5 -65.5t87.5 -44t164 -15.5l20 -108zM476 577q-26 0 -44.5 18t-18.5 44t18.5 45t44.5 19t44 -19t18 -45t-18 -44t-44 -18zM632 577q-26 0 -44.5 18t-18.5 44t18.5 45t44.5 19
t44 -19t18 -45t-18 -44t-44 -18zM552 445q-26 0 -44.5 18t-18.5 44t18.5 45t44.5 19t44 -19t18 -45t-18 -44t-44 -18z" />
    <glyph glyph-name="uniFE99#0#1" unicode="&#x62b;" horiz-adv-x="1024" arabic-form="isolated" 
d="M425 -21l26 140q194 0 288.5 22t94.5 77q0 36 -12 86.5t-31 102.5l131 38q13 -34 25 -74.5t19.5 -81t7.5 -75.5q0 -62 -27 -106.5t-89.5 -73t-168.5 -42t-264 -13.5zM424 -21q-143 0 -229.5 29t-124.5 80t-38 116q0 47 12 96.5t23 87.5l125 -29q-7 -28 -13.5 -59.5
t-6.5 -55.5q0 -37 26.5 -65.5t87.5 -44t164 -15.5l20 -108zM509 570q-25 0 -43.5 19t-18.5 45t18.5 44t43.5 18q26 0 44 -18t18 -44t-18 -45t-44 -19zM429 438q-25 0 -43.5 19t-18.5 45t18.5 44t43.5 18q26 0 44 -18t18 -44t-18 -45t-44 -19zM584 438q-25 0 -43.5 19
t-18.5 45t18.5 44t43.5 18q26 0 44 -18t18 -44t-18 -45t-44 -19z" />
    <glyph glyph-name="uniFE9A#0#1" unicode="&#x62b;" horiz-adv-x="1142" arabic-form="final" 
d="M425 -21l26 140q72 0 138.5 7t127 28t113.5 62t96 110l112 -51q-6 -19 -10 -36.5t-4 -28.5q0 -35 27 -55t101 -20q38 0 54 -19.5t16 -48.5q0 -31 -20.5 -51.5t-59.5 -20.5q-90 0 -147.5 31.5t-76.5 83.5q-77 -68 -205.5 -99.5t-287.5 -31.5zM424 -21q-143 0 -229.5 29
t-124.5 80t-38 116q0 47 12 96.5t23 87.5l125 -29q-7 -28 -13.5 -59.5t-6.5 -55.5q0 -37 26.5 -65.5t87.5 -44t164 -15.5l20 -108zM530 570q-25 0 -43.5 19t-18.5 45t18.5 44t43.5 18q26 0 44 -18t18 -44t-18 -45t-44 -19zM450 438q-25 0 -43.5 19t-18.5 45t18.5 44t43.5 18
q26 0 44 -18t18 -44t-18 -45t-44 -19zM605 438q-25 0 -43.5 19t-18.5 45t18.5 44t43.5 18q26 0 44 -18t18 -44t-18 -45t-44 -19z" />
    <glyph glyph-name="uniFE9C#0#1" unicode="&#x62b;" horiz-adv-x="409" arabic-form="medial" 
d="M0 -5l10 140q36 0 62 7t44 28.5t30.5 63.5t22.5 112l131 -22q-4 -23 -9 -55t-5 -59q0 -36 30 -55.5t103 -19.5q38 0 54 -19.5t16 -48.5q0 -31 -20.5 -51.5t-59.5 -20.5q-70 0 -119.5 18t-72.5 64q-27 -36 -63.5 -53.5t-76 -23t-77.5 -5.5zM241 570q-25 0 -43.5 19
t-18.5 45t18.5 44t43.5 18q26 0 44 -18t18 -44t-18 -45t-44 -19zM161 438q-25 0 -43.5 19t-18.5 45t18.5 44t43.5 18q26 0 44 -18t18 -44t-18 -45t-44 -19zM316 438q-25 0 -43.5 19t-18.5 45t18.5 44t43.5 18q26 0 44 -18t18 -44t-18 -45t-44 -19z" />
    <glyph glyph-name="uniFE9B#0#1" unicode="&#x62b;" horiz-adv-x="359" arabic-form="initial" 
d="M0 -5l10 140q60 0 92 6t44.5 22.5t12.5 47.5q0 28 -7.5 67t-19 81t-24.5 77l138 38q13 -34 25 -79t20 -92.5t8 -91.5q0 -68 -22 -110.5t-61.5 -65.5t-94.5 -31.5t-121 -8.5zM191 689q-25 0 -43.5 19t-18.5 45t18.5 44t43.5 18q26 0 44 -18t18 -44t-18 -45t-44 -19z
M111 557q-25 0 -43.5 19t-18.5 45t18.5 44t43.5 18q26 0 44 -18t18 -44t-18 -45t-44 -19zM266 557q-25 0 -43.5 19t-18.5 45t18.5 44t43.5 18q26 0 44 -18t18 -44t-18 -45t-44 -19z" />
    <glyph glyph-name="uniFB66#0#1" unicode="&#x679;" horiz-adv-x="1024" arabic-form="isolated" 
d="M425 -21l26 140q194 0 288.5 22t94.5 77q0 36 -12 86.5t-31 102.5l131 38q13 -34 25 -74.5t19.5 -81t7.5 -75.5q0 -62 -27 -106.5t-89.5 -73t-168.5 -42t-264 -13.5zM424 -21q-143 0 -229.5 29t-124.5 80t-38 116q0 47 12 96.5t23 87.5l125 -29q-7 -28 -13.5 -59.5
t-6.5 -55.5q0 -37 26.5 -65.5t87.5 -44t164 -15.5l20 -108zM495 474q-18 0 -43 1.5t-46.5 3.5t-32.5 3l3 63q13 -2 30 -3l16 28l-5 168h65l4 -99q42 30 82 30q38 0 61 -25.5t23 -63.5q0 -22 -11.5 -46.5t-45.5 -42t-100 -17.5zM557 602q-22 0 -44.5 -20.5t-36.5 -43.5h12
q56 0 76.5 10.5t20.5 26.5q0 11 -7 19t-21 8z" />
    <glyph glyph-name="uniFB67#0#1" unicode="&#x679;" horiz-adv-x="1142" arabic-form="final" 
d="M425 -21l26 140q72 0 138.5 7t127 28t113.5 62t96 110l112 -51q-6 -19 -10 -36.5t-4 -28.5q0 -35 27 -55t101 -20q38 0 54 -19.5t16 -48.5q0 -31 -20.5 -51.5t-59.5 -20.5q-90 0 -147.5 31.5t-76.5 83.5q-77 -68 -205.5 -99.5t-287.5 -31.5zM424 -21q-143 0 -229.5 29
t-124.5 80t-38 116q0 47 12 96.5t23 87.5l125 -29q-7 -28 -13.5 -59.5t-6.5 -55.5q0 -37 26.5 -65.5t87.5 -44t164 -15.5l20 -108zM516 474q-18 0 -43 1.5t-46.5 3.5t-32.5 3l3 63q13 -2 30 -3l16 28l-5 168h65l4 -99q42 30 82 30q38 0 61 -25.5t23 -63.5q0 -22 -11.5 -46.5
t-45.5 -42t-100 -17.5zM578 602q-22 0 -44.5 -20.5t-36.5 -43.5h12q56 0 76.5 10.5t20.5 26.5q0 11 -7 19t-21 8z" />
    <glyph glyph-name="uniFB69#0#1" unicode="&#x679;" horiz-adv-x="384" arabic-form="medial" 
d="M0 -5l10 140q38 0 60.5 7t36 28.5t23 63.5t19.5 112l131 -22q-4 -23 -9 -55t-5 -59q0 -24 10.5 -40.5t38 -25.5t79.5 -9q38 0 54 -19.5t16 -48.5q0 -31 -20.5 -51.5t-59.5 -20.5q-80 0 -124.5 17t-63.5 61q-37 -52 -87.5 -65t-108.5 -13zM207 474q-18 0 -43 1.5
t-46.5 3.5t-32.5 3l3 63q13 -2 30 -3l16 28l-5 168h65l4 -99q42 30 82 30q38 0 61 -25.5t23 -63.5q0 -22 -11.5 -46.5t-45.5 -42t-100 -17.5zM269 602q-22 0 -44.5 -20.5t-36.5 -43.5h12q56 0 76.5 10.5t20.5 26.5q0 11 -7 19t-21 8z" />
    <glyph glyph-name="uniFB68#0#1" unicode="&#x679;" horiz-adv-x="359" arabic-form="initial" 
d="M0 -5l10 140q60 0 92 6t44.5 22.5t12.5 47.5q0 28 -7.5 67t-19 81t-24.5 77l138 38q13 -34 25 -79t20 -92.5t8 -91.5q0 -68 -22 -110.5t-61.5 -65.5t-94.5 -31.5t-121 -8.5zM177 593q-18 0 -43 1.5t-46.5 3.5t-32.5 3l3 63q13 -2 30 -3l16 28l-5 168h65l4 -99
q42 30 82 30q38 0 61 -25.5t23 -63.5q0 -22 -11.5 -46.5t-45.5 -42t-100 -17.5zM239 721q-22 0 -44.5 -20.5t-36.5 -43.5h12q56 0 76.5 10.5t20.5 26.5q0 11 -7 19t-21 8z" />
    <glyph glyph-name="uniFB5E#0#1" unicode="&#x67a;" horiz-adv-x="1024" arabic-form="isolated" 
d="M425 -21l26 140q194 0 288.5 22t94.5 77q0 36 -12 86.5t-31 102.5l131 38q13 -34 25 -74.5t19.5 -81t7.5 -75.5q0 -62 -27 -106.5t-89.5 -73t-168.5 -42t-264 -13.5zM424 -21q-143 0 -229.5 29t-124.5 80t-38 116q0 47 12 96.5t23 87.5l125 -29q-7 -28 -13.5 -59.5
t-6.5 -55.5q0 -37 26.5 -65.5t87.5 -44t164 -15.5l20 -108zM503 605q-26 0 -44.5 18t-18.5 44t18.5 45t44.5 19t44.5 -19t18.5 -45t-18.5 -44t-44.5 -18zM503 439q-26 0 -44.5 18t-18.5 44t18.5 45t44.5 19t44.5 -19t18.5 -45t-18.5 -44t-44.5 -18z" />
    <glyph glyph-name="uniFB5F#0#1" unicode="&#x67a;" horiz-adv-x="1142" arabic-form="final" 
d="M425 -21l26 140q72 0 138.5 7t127 28t113.5 62t96 110l112 -51q-6 -19 -10 -36.5t-4 -28.5q0 -35 27 -55t101 -20q38 0 54 -19.5t16 -48.5q0 -31 -20.5 -51.5t-59.5 -20.5q-90 0 -147.5 31.5t-76.5 83.5q-77 -68 -205.5 -99.5t-287.5 -31.5zM424 -21q-143 0 -229.5 29
t-124.5 80t-38 116q0 47 12 96.5t23 87.5l125 -29q-7 -28 -13.5 -59.5t-6.5 -55.5q0 -37 26.5 -65.5t87.5 -44t164 -15.5l20 -108zM524 605q-26 0 -44.5 18t-18.5 44t18.5 45t44.5 19t44.5 -19t18.5 -45t-18.5 -44t-44.5 -18zM524 439q-26 0 -44.5 18t-18.5 44t18.5 45
t44.5 19t44.5 -19t18.5 -45t-18.5 -44t-44.5 -18z" />
    <glyph glyph-name="uniFB61#0#1" unicode="&#x67a;" horiz-adv-x="384" arabic-form="medial" 
d="M0 -5l10 140q38 0 60.5 7t36 28.5t23 63.5t19.5 112l131 -22q-4 -23 -9 -55t-5 -59q0 -24 10.5 -40.5t38 -25.5t79.5 -9q38 0 54 -19.5t16 -48.5q0 -31 -20.5 -51.5t-59.5 -20.5q-80 0 -124.5 17t-63.5 61q-37 -52 -87.5 -65t-108.5 -13zM215 605q-26 0 -44.5 18
t-18.5 44t18.5 45t44.5 19t44.5 -19t18.5 -45t-18.5 -44t-44.5 -18zM215 439q-26 0 -44.5 18t-18.5 44t18.5 45t44.5 19t44.5 -19t18.5 -45t-18.5 -44t-44.5 -18z" />
    <glyph glyph-name="uniFB60#0#1" unicode="&#x67a;" horiz-adv-x="317" arabic-form="initial" 
d="M0 -5l10 140q65 0 91 14.5t26 61.5q0 28 -7.5 67t-19.5 81t-24 77l138 38q12 -34 24 -79t20.5 -92.5t8.5 -91.5q0 -68 -21 -110.5t-58.5 -65.5t-85.5 -31.5t-102 -8.5zM145 724q-26 0 -44.5 18t-18.5 44t18.5 45t44.5 19t44.5 -19t18.5 -45t-18.5 -44t-44.5 -18zM145 558
q-26 0 -44.5 18t-18.5 44t18.5 45t44.5 19t44.5 -19t18.5 -45t-18.5 -44t-44.5 -18z" />
    <glyph glyph-name="uniFB62#0#1" unicode="&#x67f;" horiz-adv-x="1024" arabic-form="isolated" 
d="M425 -21l26 140q194 0 288.5 22t94.5 77q0 36 -12 86.5t-31 102.5l131 38q13 -34 25 -74.5t19.5 -81t7.5 -75.5q0 -62 -27 -106.5t-89.5 -73t-168.5 -42t-264 -13.5zM424 -21q-143 0 -229.5 29t-124.5 80t-38 116q0 47 12 96.5t23 87.5l125 -29q-7 -28 -13.5 -59.5
t-6.5 -55.5q0 -37 26.5 -65.5t87.5 -44t164 -15.5l20 -108zM439 575q-24 0 -40.5 16.5t-16.5 40.5t16.5 41.5t40.5 17.5q23 0 40 -17.5t17 -41.5t-17 -40.5t-40 -16.5zM577 575q-24 0 -40.5 16.5t-16.5 40.5t16.5 41.5t40.5 17.5q23 0 40 -17.5t17 -41.5t-17 -40.5
t-40 -16.5zM439 436q-24 0 -40.5 16.5t-16.5 40.5t16.5 41.5t40.5 17.5q23 0 40 -17.5t17 -41.5t-17 -40.5t-40 -16.5zM577 436q-24 0 -40.5 16.5t-16.5 40.5t16.5 41.5t40.5 17.5q23 0 40 -17.5t17 -41.5t-17 -40.5t-40 -16.5z" />
    <glyph glyph-name="uniFB63#0#1" unicode="&#x67f;" horiz-adv-x="1142" arabic-form="final" 
d="M425 -21l26 140q72 0 138.5 7t127 28t113.5 62t96 110l112 -51q-6 -19 -10 -36.5t-4 -28.5q0 -35 27 -55t101 -20q38 0 54 -19.5t16 -48.5q0 -31 -20.5 -51.5t-59.5 -20.5q-90 0 -147.5 31.5t-76.5 83.5q-77 -68 -205.5 -99.5t-287.5 -31.5zM424 -21q-143 0 -229.5 29
t-124.5 80t-38 116q0 47 12 96.5t23 87.5l125 -29q-7 -28 -13.5 -59.5t-6.5 -55.5q0 -37 26.5 -65.5t87.5 -44t164 -15.5l20 -108zM460 575q-24 0 -40.5 16.5t-16.5 40.5t16.5 41.5t40.5 17.5q23 0 40 -17.5t17 -41.5t-17 -40.5t-40 -16.5zM598 575q-24 0 -40.5 16.5
t-16.5 40.5t16.5 41.5t40.5 17.5q23 0 40 -17.5t17 -41.5t-17 -40.5t-40 -16.5zM460 436q-24 0 -40.5 16.5t-16.5 40.5t16.5 41.5t40.5 17.5q23 0 40 -17.5t17 -41.5t-17 -40.5t-40 -16.5zM598 436q-24 0 -40.5 16.5t-16.5 40.5t16.5 41.5t40.5 17.5q23 0 40 -17.5t17 -41.5
t-17 -40.5t-40 -16.5z" />
    <glyph glyph-name="uniFB65#0#1" unicode="&#x67f;" horiz-adv-x="409" arabic-form="medial" 
d="M0 -5l10 140q36 0 62 7t44 28.5t30.5 63.5t22.5 112l131 -22q-4 -23 -9 -55t-5 -59q0 -36 30 -55.5t103 -19.5q38 0 54 -19.5t16 -48.5q0 -31 -20.5 -51.5t-59.5 -20.5q-70 0 -119.5 18t-72.5 64q-27 -36 -63.5 -53.5t-76 -23t-77.5 -5.5zM171 575q-24 0 -40.5 16.5
t-16.5 40.5t16.5 41.5t40.5 17.5q23 0 40 -17.5t17 -41.5t-17 -40.5t-40 -16.5zM309 575q-24 0 -40.5 16.5t-16.5 40.5t16.5 41.5t40.5 17.5q23 0 40 -17.5t17 -41.5t-17 -40.5t-40 -16.5zM171 436q-24 0 -40.5 16.5t-16.5 40.5t16.5 41.5t40.5 17.5q23 0 40 -17.5t17 -41.5
t-17 -40.5t-40 -16.5zM309 436q-24 0 -40.5 16.5t-16.5 40.5t16.5 41.5t40.5 17.5q23 0 40 -17.5t17 -41.5t-17 -40.5t-40 -16.5z" />
    <glyph glyph-name="uniFB64#0#1" unicode="&#x67f;" horiz-adv-x="359" arabic-form="initial" 
d="M0 -5l10 140q60 0 92 6t44.5 22.5t12.5 47.5q0 28 -7.5 67t-19 81t-24.5 77l138 38q13 -34 25 -79t20 -92.5t8 -91.5q0 -68 -22 -110.5t-61.5 -65.5t-94.5 -31.5t-121 -8.5zM121 694q-24 0 -40.5 16.5t-16.5 40.5t16.5 41.5t40.5 17.5q23 0 40 -17.5t17 -41.5t-17 -40.5
t-40 -16.5zM259 694q-24 0 -40.5 16.5t-16.5 40.5t16.5 41.5t40.5 17.5q23 0 40 -17.5t17 -41.5t-17 -40.5t-40 -16.5zM121 555q-24 0 -40.5 16.5t-16.5 40.5t16.5 41.5t40.5 17.5q23 0 40 -17.5t17 -41.5t-17 -40.5t-40 -16.5zM259 555q-24 0 -40.5 16.5t-16.5 40.5
t16.5 41.5t40.5 17.5q23 0 40 -17.5t17 -41.5t-17 -40.5t-40 -16.5z" />
    <glyph glyph-name="uniFE9D#0#1" unicode="&#x62c;" horiz-adv-x="687" arabic-form="isolated" 
d="M377 -394q-102 0 -184 34t-129.5 100.5t-47.5 164.5q0 108 52 190t141 137.5t198 83.5q-45 14 -104 28t-127 14q-36 0 -67.5 -4.5t-55.5 -10.5l-21 136q29 9 62.5 15t69.5 6q68 0 123 -14.5t103 -33t93.5 -33t92.5 -14.5h40l13 -150q-46 0 -107 -14t-125 -41.5
t-118.5 -67.5t-88.5 -92t-34 -116t31.5 -103.5t84.5 -57t118 -17.5q108 0 225 46l41 -122q-73 -34 -145 -49t-134 -15zM399 -122q-31 0 -52.5 21t-21.5 52t21.5 53t52.5 22q30 0 51.5 -22t21.5 -53t-21.5 -52t-51.5 -21z" />
    <glyph glyph-name="uniFE9E#0#1" unicode="&#x62c;" horiz-adv-x="739" arabic-form="final" 
d="M739 -5q-57 0 -106 8.5t-86.5 33t-61 72.5t-30.5 128l98 41q9 -64 34 -94.5t65.5 -39.5t96.5 -9q38 0 54 -19.5t16 -48.5q0 -31 -20.5 -51.5t-59.5 -20.5zM377 -394q-102 0 -184 34t-129.5 100.5t-47.5 164.5q0 108 52 190t141 137.5t198 83.5q-45 14 -104 28t-127 14
q-36 0 -67.5 -4.5t-55.5 -10.5l-21 136q29 9 62.5 15t69.5 6q68 0 123 -14.5t103 -33t93.5 -33t92.5 -14.5h40l13 -150q-46 0 -107 -14t-125 -41.5t-118.5 -67.5t-88.5 -92t-34 -116t31.5 -103.5t84.5 -57t118 -17.5q108 0 225 46l41 -122q-73 -34 -145 -49t-134 -15z
M379 -154q-31 0 -52.5 21t-21.5 52t21.5 53t52.5 22q30 0 51.5 -22t21.5 -53t-21.5 -52t-51.5 -21z" />
    <glyph glyph-name="uniFEA0#0#1" unicode="&#x62c;" horiz-adv-x="654" arabic-form="medial" 
d="M654 -5q-61 0 -111.5 13.5t-87.5 47.5t-60 97l79 63q27 -48 72 -64.5t118 -16.5q38 0 54 -19.5t16 -48.5q0 -31 -20.5 -51.5t-59.5 -20.5zM0 -5l10 140q108 0 210 24t181 77q-46 27 -101.5 42t-121.5 15q-25 0 -51.5 -2.5t-53.5 -8.5l-20 137q29 8 61.5 11.5t57.5 3.5
q68 0 122 -18t98.5 -42t83 -42t75.5 -18h37l16 -133q-43 -2 -80.5 -16.5t-74 -36t-78 -44.5t-93.5 -43t-120 -33t-158 -13zM283 -230q-29 0 -49.5 20t-20.5 49t20.5 50.5t49.5 21.5t49.5 -21.5t20.5 -50.5t-20.5 -49t-49.5 -20z" />
    <glyph glyph-name="uniFE9F#0#1" unicode="&#x62c;" horiz-adv-x="629" arabic-form="initial" 
d="M0 -5l10 140q108 0 210 24t181 77q-46 27 -101.5 42t-121.5 15q-25 0 -51.5 -2.5t-53.5 -8.5l-20 137q29 8 61.5 11.5t57.5 3.5q68 0 122 -18t98.5 -42t83 -42t75.5 -18h37l16 -133q-43 -2 -80.5 -16.5t-74 -36t-78 -44.5t-93.5 -43t-120 -33t-158 -13zM300 -235
q-29 0 -49.5 20t-20.5 49t20.5 50.5t49.5 21.5t49.5 -21.5t20.5 -50.5t-20.5 -49t-49.5 -20z" />
    <glyph glyph-name="uniFB7A#0#1" unicode="&#x686;" horiz-adv-x="687" arabic-form="isolated" 
d="M397 -394q-76 0 -145 19t-122 57t-83.5 93.5t-30.5 129.5q0 81 33 147.5t90 118t131 88t157 57.5q-46 14 -108.5 28t-142.5 14q-36 0 -67.5 -4.5t-55.5 -10.5l-21 136q29 9 62.5 15t69.5 6q75 0 134.5 -14.5t109.5 -33t95.5 -33t92.5 -14.5h40l13 -150q-38 0 -89 -10
t-106.5 -29t-108 -47t-95.5 -65t-68.5 -82t-25.5 -98q0 -64 36.5 -103.5t94.5 -57t123 -17.5q108 0 225 46l41 -122q-73 -34 -145 -49t-134 -15zM361 -36q-22 0 -37.5 15t-15.5 37q0 23 15.5 38.5t37.5 15.5t37.5 -15.5t15.5 -38.5q0 -22 -15.5 -37t-37.5 -15zM502 -36
q-22 0 -37.5 15t-15.5 37q0 23 15.5 38.5t37.5 15.5t37.5 -15.5t15.5 -38.5q0 -22 -15.5 -37t-37.5 -15zM432 -153q-22 0 -37.5 15t-15.5 37q0 23 15.5 38.5t37.5 15.5t37.5 -15.5t15.5 -38.5q0 -22 -15.5 -37t-37.5 -15z" />
    <glyph glyph-name="uniFB7B#0#1" unicode="&#x686;" horiz-adv-x="759" arabic-form="final" 
d="M759 -5q-57 0 -106 8.5t-86.5 34t-61 76t-31.5 134.5l99 30q9 -64 34 -94.5t65.5 -39.5t96.5 -9q38 0 54 -19.5t16 -48.5q0 -31 -20.5 -51.5t-59.5 -20.5zM397 -394q-76 0 -145 19t-122 57t-83.5 93.5t-30.5 129.5q0 81 33 147.5t90 118t131 88t157 57.5
q-46 14 -108.5 28t-142.5 14q-36 0 -67.5 -4.5t-55.5 -10.5l-21 136q29 9 62.5 15t69.5 6q75 0 134.5 -14.5t109.5 -33t95.5 -33t92.5 -14.5h40l13 -150q-38 0 -89 -10t-106.5 -29t-108 -47t-95.5 -65t-68.5 -82t-25.5 -98q0 -64 36.5 -103.5t94.5 -57t123 -17.5
q108 0 225 46l41 -122q-73 -34 -145 -49t-134 -15zM304 -72q-22 0 -37.5 15t-15.5 37q0 23 15.5 38.5t37.5 15.5t37.5 -15.5t15.5 -38.5q0 -22 -15.5 -37t-37.5 -15zM445 -72q-22 0 -37.5 15t-15.5 37q0 23 15.5 38.5t37.5 15.5t37.5 -15.5t15.5 -38.5q0 -22 -15.5 -37
t-37.5 -15zM375 -189q-22 0 -37.5 15t-15.5 37q0 23 15.5 38.5t37.5 15.5t37.5 -15.5t15.5 -38.5q0 -22 -15.5 -37t-37.5 -15z" />
    <glyph glyph-name="uniFB7D#0#1" unicode="&#x686;" horiz-adv-x="654" arabic-form="medial" 
d="M654 -5q-61 0 -111.5 13.5t-87.5 47.5t-60 97l79 63q27 -48 72 -64.5t118 -16.5q38 0 54 -19.5t16 -48.5q0 -31 -20.5 -51.5t-59.5 -20.5zM0 -5l10 140q108 0 210 24t181 77q-46 27 -101.5 42t-121.5 15q-25 0 -51.5 -2.5t-53.5 -8.5l-20 137q29 8 61.5 11.5t57.5 3.5
q68 0 122 -18t98.5 -42t83 -42t75.5 -18h37l16 -133q-43 -2 -80.5 -16.5t-74 -36t-78 -44.5t-93.5 -43t-120 -33t-158 -13zM211 -219q-26 0 -44.5 18t-18.5 44t18.5 45t44.5 19t44 -19t18 -45t-18 -44t-44 -18zM367 -219q-26 0 -44.5 18t-18.5 44t18.5 45t44.5 19t44 -19
t18 -45t-18 -44t-44 -18zM287 -351q-26 0 -44.5 18t-18.5 44t18.5 45t44.5 19t44 -19t18 -45t-18 -44t-44 -18z" />
    <glyph glyph-name="uniFB7C#0#1" unicode="&#x686;" horiz-adv-x="629" arabic-form="initial" 
d="M0 -5l10 140q108 0 210 24t181 77q-46 27 -101.5 42t-121.5 15q-25 0 -51.5 -2.5t-53.5 -8.5l-20 137q29 8 61.5 11.5t57.5 3.5q68 0 122 -18t98.5 -42t83 -42t75.5 -18h37l16 -133q-43 -2 -80.5 -16.5t-74 -36t-78 -44.5t-93.5 -43t-120 -33t-158 -13zM228 -224
q-26 0 -44.5 18t-18.5 44t18.5 45t44.5 19t44 -19t18 -45t-18 -44t-44 -18zM384 -224q-26 0 -44.5 18t-18.5 44t18.5 45t44.5 19t44 -19t18 -45t-18 -44t-44 -18zM304 -356q-26 0 -44.5 18t-18.5 44t18.5 45t44.5 19t44 -19t18 -45t-18 -44t-44 -18z" />
    <glyph glyph-name="uniFB7E#0#1" unicode="&#x687;" horiz-adv-x="687" arabic-form="isolated" 
d="M397 -394q-76 0 -145 19t-122 57t-83.5 93.5t-30.5 129.5q0 81 33 147.5t90 118t131 88t157 57.5q-46 14 -108.5 28t-142.5 14q-36 0 -67.5 -4.5t-55.5 -10.5l-21 136q29 9 62.5 15t69.5 6q75 0 134.5 -14.5t109.5 -33t95.5 -33t92.5 -14.5h40l13 -150q-38 0 -89 -10
t-106.5 -29t-108 -47t-95.5 -65t-68.5 -82t-25.5 -98q0 -64 36.5 -103.5t94.5 -57t123 -17.5q108 0 225 46l41 -122q-73 -34 -145 -49t-134 -15zM371 -11q-21 0 -36 14.5t-15 35.5q0 20 15 35.5t36 15.5q20 0 34.5 -15.5t14.5 -35.5q0 -21 -14.5 -35.5t-34.5 -14.5zM503 -11
q-21 0 -36 14.5t-15 35.5q0 20 15 35.5t36 15.5q20 0 34.5 -15.5t14.5 -35.5q0 -21 -14.5 -35.5t-34.5 -14.5zM371 -143q-21 0 -36 14.5t-15 35.5q0 20 15 35.5t36 15.5q20 0 34.5 -15.5t14.5 -35.5q0 -21 -14.5 -35.5t-34.5 -14.5zM503 -143q-21 0 -36 14.5t-15 35.5
q0 20 15 35.5t36 15.5q20 0 34.5 -15.5t14.5 -35.5q0 -21 -14.5 -35.5t-34.5 -14.5z" />
    <glyph glyph-name="uniFB7F#0#1" unicode="&#x687;" horiz-adv-x="759" arabic-form="final" 
d="M759 -5q-57 0 -106 8.5t-86.5 34t-61 76t-31.5 134.5l99 30q9 -64 34 -94.5t65.5 -39.5t96.5 -9q38 0 54 -19.5t16 -48.5q0 -31 -20.5 -51.5t-59.5 -20.5zM397 -394q-76 0 -145 19t-122 57t-83.5 93.5t-30.5 129.5q0 81 33 147.5t90 118t131 88t157 57.5
q-46 14 -108.5 28t-142.5 14q-36 0 -67.5 -4.5t-55.5 -10.5l-21 136q29 9 62.5 15t69.5 6q75 0 134.5 -14.5t109.5 -33t95.5 -33t92.5 -14.5h40l13 -150q-38 0 -89 -10t-106.5 -29t-108 -47t-95.5 -65t-68.5 -82t-25.5 -98q0 -64 36.5 -103.5t94.5 -57t123 -17.5
q108 0 225 46l41 -122q-73 -34 -145 -49t-134 -15zM318 -56q-21 0 -36 14.5t-15 35.5q0 20 15 35.5t36 15.5q20 0 34.5 -15.5t14.5 -35.5q0 -21 -14.5 -35.5t-34.5 -14.5zM450 -56q-21 0 -36 14.5t-15 35.5q0 20 15 35.5t36 15.5q20 0 34.5 -15.5t14.5 -35.5
q0 -21 -14.5 -35.5t-34.5 -14.5zM318 -188q-21 0 -36 14.5t-15 35.5q0 20 15 35.5t36 15.5q20 0 34.5 -15.5t14.5 -35.5q0 -21 -14.5 -35.5t-34.5 -14.5zM450 -188q-21 0 -36 14.5t-15 35.5q0 20 15 35.5t36 15.5q20 0 34.5 -15.5t14.5 -35.5q0 -21 -14.5 -35.5t-34.5 -14.5
z" />
    <glyph glyph-name="uniFB81#0#1" unicode="&#x687;" horiz-adv-x="654" arabic-form="medial" 
d="M654 -5q-61 0 -111.5 13.5t-87.5 47.5t-60 97l79 63q27 -48 72 -64.5t118 -16.5q38 0 54 -19.5t16 -48.5q0 -31 -20.5 -51.5t-59.5 -20.5zM0 -5l10 140q108 0 210 24t181 77q-46 27 -101.5 42t-121.5 15q-25 0 -51.5 -2.5t-53.5 -8.5l-20 137q29 8 61.5 11.5t57.5 3.5
q68 0 122 -18t98.5 -42t83 -42t75.5 -18h37l16 -133q-43 -2 -80.5 -16.5t-74 -36t-78 -44.5t-93.5 -43t-120 -33t-158 -13zM362 -208q-24 0 -40.5 16.5t-16.5 40.5t16.5 41.5t40.5 17.5q23 0 40 -17.5t17 -41.5t-17 -40.5t-40 -16.5zM214 -208q-24 0 -40.5 16.5t-16.5 40.5
t16.5 41.5t40.5 17.5q23 0 40 -17.5t17 -41.5t-17 -40.5t-40 -16.5zM362 -347q-24 0 -40.5 16.5t-16.5 40.5t16.5 41.5t40.5 17.5q23 0 40 -17.5t17 -41.5t-17 -40.5t-40 -16.5zM214 -347q-24 0 -40.5 16.5t-16.5 40.5t16.5 41.5t40.5 17.5q23 0 40 -17.5t17 -41.5
t-17 -40.5t-40 -16.5z" />
    <glyph glyph-name="uniFB80#0#1" unicode="&#x687;" horiz-adv-x="629" arabic-form="initial" 
d="M0 -5l10 140q108 0 210 24t181 77q-46 27 -101.5 42t-121.5 15q-25 0 -51.5 -2.5t-53.5 -8.5l-20 137q29 8 61.5 11.5t57.5 3.5q68 0 122 -18t98.5 -42t83 -42t75.5 -18h37l16 -133q-43 -2 -80.5 -16.5t-74 -36t-78 -44.5t-93.5 -43t-120 -33t-158 -13zM379 -213
q-24 0 -40.5 16.5t-16.5 40.5t16.5 41.5t40.5 17.5q23 0 40 -17.5t17 -41.5t-17 -40.5t-40 -16.5zM231 -213q-24 0 -40.5 16.5t-16.5 40.5t16.5 41.5t40.5 17.5q23 0 40 -17.5t17 -41.5t-17 -40.5t-40 -16.5zM379 -352q-24 0 -40.5 16.5t-16.5 40.5t16.5 41.5t40.5 17.5
q23 0 40 -17.5t17 -41.5t-17 -40.5t-40 -16.5zM231 -352q-24 0 -40.5 16.5t-16.5 40.5t16.5 41.5t40.5 17.5q23 0 40 -17.5t17 -41.5t-17 -40.5t-40 -16.5z" />
    <glyph glyph-name="uni06BF.init#0#1" unicode="&#x6bf;" horiz-adv-x="629" 
d="M0 -5l10 140q108 0 210 24t181 77q-46 27 -101.5 42t-121.5 15q-25 0 -51.5 -2.5t-53.5 -8.5l-20 137q29 8 61.5 11.5t57.5 3.5q68 0 122 -18t98.5 -42t83 -42t75.5 -18h37l16 -133q-43 -2 -80.5 -16.5t-74 -36t-78 -44.5t-93.5 -43t-120 -33t-158 -13zM228 -224
q-26 0 -44.5 18t-18.5 44t18.5 45t44.5 19t44 -19t18 -45t-18 -44t-44 -18zM384 -224q-26 0 -44.5 18t-18.5 44t18.5 45t44.5 19t44 -19t18 -45t-18 -44t-44 -18zM304 -356q-26 0 -44.5 18t-18.5 44t18.5 45t44.5 19t44 -19t18 -45t-18 -44t-44 -18zM173 527q-31 0 -52.5 21
t-21.5 52t21.5 53t52.5 22q30 0 51.5 -22t21.5 -53t-21.5 -52t-51.5 -21z" />
    <glyph glyph-name="uni06BF.medi#0#1" unicode="&#x6bf;" horiz-adv-x="654" 
d="M654 -5q-61 0 -111.5 13.5t-87.5 47.5t-60 97l79 63q27 -48 72 -64.5t118 -16.5q38 0 54 -19.5t16 -48.5q0 -31 -20.5 -51.5t-59.5 -20.5zM0 -5l10 140q108 0 210 24t181 77q-46 27 -101.5 42t-121.5 15q-25 0 -51.5 -2.5t-53.5 -8.5l-20 137q29 8 61.5 11.5t57.5 3.5
q68 0 122 -18t98.5 -42t83 -42t75.5 -18h37l16 -133q-43 -2 -80.5 -16.5t-74 -36t-78 -44.5t-93.5 -43t-120 -33t-158 -13zM211 -219q-26 0 -44.5 18t-18.5 44t18.5 45t44.5 19t44 -19t18 -45t-18 -44t-44 -18zM367 -219q-26 0 -44.5 18t-18.5 44t18.5 45t44.5 19t44 -19
t18 -45t-18 -44t-44 -18zM287 -351q-26 0 -44.5 18t-18.5 44t18.5 45t44.5 19t44 -19t18 -45t-18 -44t-44 -18zM172 537q-31 0 -52.5 21t-21.5 52t21.5 53t52.5 22q30 0 51.5 -22t21.5 -53t-21.5 -52t-51.5 -21z" />
    <glyph glyph-name="uni06BF.fina#0#1" unicode="&#x6bf;" horiz-adv-x="759" 
d="M759 -5q-57 0 -106 8.5t-86.5 34t-61 76t-31.5 134.5l99 30q9 -64 34 -94.5t65.5 -39.5t96.5 -9q38 0 54 -19.5t16 -48.5q0 -31 -20.5 -51.5t-59.5 -20.5zM397 -394q-76 0 -145 19t-122 57t-83.5 93.5t-30.5 129.5q0 81 33 147.5t90 118t131 88t157 57.5
q-46 14 -108.5 28t-142.5 14q-36 0 -67.5 -4.5t-55.5 -10.5l-21 136q29 9 62.5 15t69.5 6q75 0 134.5 -14.5t109.5 -33t95.5 -33t92.5 -14.5h40l13 -150q-38 0 -89 -10t-106.5 -29t-108 -47t-95.5 -65t-68.5 -82t-25.5 -98q0 -64 36.5 -103.5t94.5 -57t123 -17.5
q108 0 225 46l41 -122q-73 -34 -145 -49t-134 -15zM304 -72q-22 0 -37.5 15t-15.5 37q0 23 15.5 38.5t37.5 15.5t37.5 -15.5t15.5 -38.5q0 -22 -15.5 -37t-37.5 -15zM445 -72q-22 0 -37.5 15t-15.5 37q0 23 15.5 38.5t37.5 15.5t37.5 -15.5t15.5 -38.5q0 -22 -15.5 -37
t-37.5 -15zM375 -189q-22 0 -37.5 15t-15.5 37q0 23 15.5 38.5t37.5 15.5t37.5 -15.5t15.5 -38.5q0 -22 -15.5 -37t-37.5 -15zM330 593q-31 0 -52.5 21t-21.5 52t21.5 53t52.5 22q30 0 51.5 -22t21.5 -53t-21.5 -52t-51.5 -21z" />
    <glyph glyph-name="uniFB76#0#1" unicode="&#x683;" horiz-adv-x="687" arabic-form="isolated" 
d="M397 -394q-76 0 -145 19t-122 57t-83.5 93.5t-30.5 129.5q0 81 33 147.5t90 118t131 88t157 57.5q-46 14 -108.5 28t-142.5 14q-36 0 -67.5 -4.5t-55.5 -10.5l-21 136q29 9 62.5 15t69.5 6q75 0 134.5 -14.5t109.5 -33t95.5 -33t92.5 -14.5h40l13 -150q-38 0 -89 -10
t-106.5 -29t-108 -47t-95.5 -65t-68.5 -82t-25.5 -98q0 -64 36.5 -103.5t94.5 -57t123 -17.5q108 0 225 46l41 -122q-73 -34 -145 -49t-134 -15zM362 -62q-24 0 -41 17t-17 41t17 41.5t41 17.5t41 -17.5t17 -41.5t-17 -41t-41 -17zM511 -63q-24 0 -41 17t-17 41t17 41.5
t41 17.5t41 -17.5t17 -41.5t-17 -41t-41 -17z" />
    <glyph glyph-name="uniFB77#0#1" unicode="&#x683;" horiz-adv-x="759" arabic-form="final" 
d="M759 -5q-57 0 -106 8.5t-86.5 34t-61 76t-31.5 134.5l99 30q9 -64 34 -94.5t65.5 -39.5t96.5 -9q38 0 54 -19.5t16 -48.5q0 -31 -20.5 -51.5t-59.5 -20.5zM397 -394q-76 0 -145 19t-122 57t-83.5 93.5t-30.5 129.5q0 81 33 147.5t90 118t131 88t157 57.5
q-46 14 -108.5 28t-142.5 14q-36 0 -67.5 -4.5t-55.5 -10.5l-21 136q29 9 62.5 15t69.5 6q75 0 134.5 -14.5t109.5 -33t95.5 -33t92.5 -14.5h40l13 -150q-38 0 -89 -10t-106.5 -29t-108 -47t-95.5 -65t-68.5 -82t-25.5 -98q0 -64 36.5 -103.5t94.5 -57t123 -17.5
q108 0 225 46l41 -122q-73 -34 -145 -49t-134 -15zM310 -101q-24 0 -41 17t-17 41t17 41.5t41 17.5t41 -17.5t17 -41.5t-17 -41t-41 -17zM459 -102q-24 0 -41 17t-17 41t17 41.5t41 17.5t41 -17.5t17 -41.5t-17 -41t-41 -17z" />
    <glyph glyph-name="uniFB79#0#1" unicode="&#x683;" horiz-adv-x="654" arabic-form="medial" 
d="M654 -5q-61 0 -111.5 13.5t-87.5 47.5t-60 97l79 63q27 -48 72 -64.5t118 -16.5q38 0 54 -19.5t16 -48.5q0 -31 -20.5 -51.5t-59.5 -20.5zM0 -5l10 140q108 0 210 24t181 77q-46 27 -101.5 42t-121.5 15q-25 0 -51.5 -2.5t-53.5 -8.5l-20 137q29 8 61.5 11.5t57.5 3.5
q68 0 122 -18t98.5 -42t83 -42t75.5 -18h37l16 -133q-43 -2 -80.5 -16.5t-74 -36t-78 -44.5t-93.5 -43t-120 -33t-158 -13zM375 -232q-29 0 -49.5 20.5t-20.5 48.5q0 29 20.5 50t49.5 21q28 0 48 -21t20 -50q0 -28 -20 -48.5t-48 -20.5zM202 -232q-29 0 -49.5 20.5
t-20.5 48.5q0 29 20.5 50t49.5 21q28 0 48 -21t20 -50q0 -28 -20 -48.5t-48 -20.5z" />
    <glyph glyph-name="uniFB78#0#1" unicode="&#x683;" horiz-adv-x="629" arabic-form="initial" 
d="M0 -5l10 140q108 0 210 24t181 77q-46 27 -101.5 42t-121.5 15q-25 0 -51.5 -2.5t-53.5 -8.5l-20 137q29 8 61.5 11.5t57.5 3.5q68 0 122 -18t98.5 -42t83 -42t75.5 -18h37l16 -133q-43 -2 -80.5 -16.5t-74 -36t-78 -44.5t-93.5 -43t-120 -33t-158 -13zM392 -237
q-29 0 -49.5 20.5t-20.5 48.5q0 29 20.5 50t49.5 21q28 0 48 -21t20 -50q0 -28 -20 -48.5t-48 -20.5zM219 -237q-29 0 -49.5 20.5t-20.5 48.5q0 29 20.5 50t49.5 21q28 0 48 -21t20 -50q0 -28 -20 -48.5t-48 -20.5z" />
    <glyph glyph-name="uniFB72#0#1" unicode="&#x684;" horiz-adv-x="687" arabic-form="isolated" 
d="M377 -394q-102 0 -184 34t-129.5 100.5t-47.5 164.5q0 108 52 190t141 137.5t198 83.5q-45 14 -104 28t-127 14q-36 0 -67.5 -4.5t-55.5 -10.5l-21 136q29 9 62.5 15t69.5 6q68 0 123 -14.5t103 -33t93.5 -33t92.5 -14.5h40l13 -150q-46 0 -107 -14t-125 -41.5
t-118.5 -67.5t-88.5 -92t-34 -116t31.5 -103.5t84.5 -57t118 -17.5q108 0 225 46l41 -122q-73 -34 -145 -49t-134 -15zM383 -24q-25 0 -42 16.5t-17 41.5t17 42.5t42 17.5q24 0 41 -17.5t17 -42.5t-17 -41.5t-41 -16.5zM383 -172q-25 0 -42 16.5t-17 41.5t17 42.5t42 17.5
q24 0 41 -17.5t17 -42.5t-17 -41.5t-41 -16.5z" />
    <glyph glyph-name="uniFB73#0#1" unicode="&#x684;" horiz-adv-x="739" arabic-form="final" 
d="M739 -5q-57 0 -106 8.5t-86.5 33t-61 72.5t-30.5 128l98 41q9 -64 34 -94.5t65.5 -39.5t96.5 -9q38 0 54 -19.5t16 -48.5q0 -31 -20.5 -51.5t-59.5 -20.5zM377 -394q-102 0 -184 34t-129.5 100.5t-47.5 164.5q0 108 52 190t141 137.5t198 83.5q-45 14 -104 28t-127 14
q-36 0 -67.5 -4.5t-55.5 -10.5l-21 136q29 9 62.5 15t69.5 6q68 0 123 -14.5t103 -33t93.5 -33t92.5 -14.5h40l13 -150q-46 0 -107 -14t-125 -41.5t-118.5 -67.5t-88.5 -92t-34 -116t31.5 -103.5t84.5 -57t118 -17.5q108 0 225 46l41 -122q-73 -34 -145 -49t-134 -15z
M358 -53q-25 0 -42 16.5t-17 41.5t17 42.5t42 17.5q24 0 41 -17.5t17 -42.5t-17 -41.5t-41 -16.5zM358 -201q-25 0 -42 16.5t-17 41.5t17 42.5t42 17.5q24 0 41 -17.5t17 -42.5t-17 -41.5t-41 -16.5z" />
    <glyph glyph-name="uniFB75#0#1" unicode="&#x684;" horiz-adv-x="654" arabic-form="medial" 
d="M654 -5q-61 0 -111.5 13.5t-87.5 47.5t-60 97l79 63q27 -48 72 -64.5t118 -16.5q38 0 54 -19.5t16 -48.5q0 -31 -20.5 -51.5t-59.5 -20.5zM0 -5l10 140q108 0 210 24t181 77q-46 27 -101.5 42t-121.5 15q-25 0 -51.5 -2.5t-53.5 -8.5l-20 137q29 8 61.5 11.5t57.5 3.5
q68 0 122 -18t98.5 -42t83 -42t75.5 -18h37l16 -133q-43 -2 -80.5 -16.5t-74 -36t-78 -44.5t-93.5 -43t-120 -33t-158 -13zM285 -214q-26 0 -44.5 18t-18.5 44t18.5 45t44.5 19t44.5 -19t18.5 -45t-18.5 -44t-44.5 -18zM285 -385q-26 0 -44.5 18t-18.5 44t18.5 45t44.5 19
t44.5 -19t18.5 -45t-18.5 -44t-44.5 -18z" />
    <glyph glyph-name="uniFB74#0#1" unicode="&#x684;" horiz-adv-x="629" arabic-form="initial" 
d="M0 -5l10 140q108 0 210 24t181 77q-46 27 -101.5 42t-121.5 15q-25 0 -51.5 -2.5t-53.5 -8.5l-20 137q29 8 61.5 11.5t57.5 3.5q68 0 122 -18t98.5 -42t83 -42t75.5 -18h37l16 -133q-43 -2 -80.5 -16.5t-74 -36t-78 -44.5t-93.5 -43t-120 -33t-158 -13zM302 -219
q-26 0 -44.5 18t-18.5 44t18.5 45t44.5 19t44.5 -19t18.5 -45t-18.5 -44t-44.5 -18zM302 -390q-26 0 -44.5 18t-18.5 44t18.5 45t44.5 19t44.5 -19t18.5 -45t-18.5 -44t-44.5 -18z" />
    <glyph glyph-name="uniFEA1#0#1" unicode="&#x62d;" horiz-adv-x="687" arabic-form="isolated" 
d="M377 -394q-102 0 -184 34t-129.5 100.5t-47.5 164.5q0 108 52 190t141 137.5t198 83.5q-45 14 -104 28t-127 14q-36 0 -67.5 -4.5t-55.5 -10.5l-21 136q29 9 62.5 15t69.5 6q68 0 123 -14.5t103 -33t93.5 -33t92.5 -14.5h40l13 -150q-46 0 -107 -14t-125 -41.5
t-118.5 -67.5t-88.5 -92t-34 -116t31.5 -103.5t84.5 -57t118 -17.5q108 0 225 46l41 -122q-73 -34 -145 -49t-134 -15z" />
    <glyph glyph-name="uniFEA2#0#1" unicode="&#x62d;" horiz-adv-x="739" arabic-form="final" 
d="M739 -5q-57 0 -106 8.5t-86.5 33t-61 72.5t-30.5 128l98 41q9 -64 34 -94.5t65.5 -39.5t96.5 -9q38 0 54 -19.5t16 -48.5q0 -31 -20.5 -51.5t-59.5 -20.5zM377 -394q-102 0 -184 34t-129.5 100.5t-47.5 164.5q0 108 52 190t141 137.5t198 83.5q-45 14 -104 28t-127 14
q-36 0 -67.5 -4.5t-55.5 -10.5l-21 136q29 9 62.5 15t69.5 6q68 0 123 -14.5t103 -33t93.5 -33t92.5 -14.5h40l13 -150q-46 0 -107 -14t-125 -41.5t-118.5 -67.5t-88.5 -92t-34 -116t31.5 -103.5t84.5 -57t118 -17.5q108 0 225 46l41 -122q-73 -34 -145 -49t-134 -15z" />
    <glyph glyph-name="uniFEA4#0#1" unicode="&#x62d;" horiz-adv-x="654" arabic-form="medial" 
d="M654 -5q-61 0 -111.5 13.5t-87.5 47.5t-60 97l79 63q27 -48 72 -64.5t118 -16.5q38 0 54 -19.5t16 -48.5q0 -31 -20.5 -51.5t-59.5 -20.5zM0 -5l10 140q108 0 210 24t181 77q-46 27 -101.5 42t-121.5 15q-25 0 -51.5 -2.5t-53.5 -8.5l-20 137q29 8 61.5 11.5t57.5 3.5
q68 0 122 -18t98.5 -42t83 -42t75.5 -18h37l16 -133q-43 -2 -80.5 -16.5t-74 -36t-78 -44.5t-93.5 -43t-120 -33t-158 -13z" />
    <glyph glyph-name="uniFEA3#0#1" unicode="&#x62d;" horiz-adv-x="629" arabic-form="initial" 
d="M0 -5l10 140q108 0 210 24t181 77q-46 27 -101.5 42t-121.5 15q-25 0 -51.5 -2.5t-53.5 -8.5l-20 137q29 8 61.5 11.5t57.5 3.5q68 0 122 -18t98.5 -42t83 -42t75.5 -18h37l16 -133q-43 -2 -80.5 -16.5t-74 -36t-78 -44.5t-93.5 -43t-120 -33t-158 -13z" />
    <glyph glyph-name="uni0681.init#0#1" unicode="&#x681;" horiz-adv-x="629" 
d="M0 -5l10 140q108 0 210 24t181 77q-46 27 -101.5 42t-121.5 15q-25 0 -51.5 -2.5t-53.5 -8.5l-20 137q29 8 61.5 11.5t57.5 3.5q68 0 122 -18t98.5 -42t83 -42t75.5 -18h37l16 -133q-43 -2 -80.5 -16.5t-74 -36t-78 -44.5t-93.5 -43t-120 -33t-158 -13zM63 488l-17 70
q32 6 51 10q-18 13 -31 34t-13 46q0 36 16 58t41 32t52 10q29 0 53 -8l-8 -72l-20 4t-22 2q-13 0 -23.5 -8.5t-10.5 -20.5q0 -20 16.5 -34.5t33.5 -20.5q32 9 59 20l20 -67q-38 -14 -92.5 -29.5t-104.5 -25.5z" />
    <glyph glyph-name="uni0681.medi#0#1" unicode="&#x681;" horiz-adv-x="654" 
d="M654 -5q-61 0 -111.5 13.5t-87.5 47.5t-60 97l79 63q27 -48 72 -64.5t118 -16.5q38 0 54 -19.5t16 -48.5q0 -31 -20.5 -51.5t-59.5 -20.5zM0 -5l10 140q108 0 210 24t181 77q-46 27 -101.5 42t-121.5 15q-25 0 -51.5 -2.5t-53.5 -8.5l-20 137q29 8 61.5 11.5t57.5 3.5
q68 0 122 -18t98.5 -42t83 -42t75.5 -18h37l16 -133q-43 -2 -80.5 -16.5t-74 -36t-78 -44.5t-93.5 -43t-120 -33t-158 -13zM63 488l-17 70q32 6 51 10q-18 13 -31 34t-13 46q0 36 16 58t41 32t52 10q29 0 53 -8l-8 -72l-20 4t-22 2q-13 0 -23.5 -8.5t-10.5 -20.5
q0 -20 16.5 -34.5t33.5 -20.5q32 9 59 20l20 -67q-38 -14 -92.5 -29.5t-104.5 -25.5z" />
    <glyph glyph-name="uni0681.fina#0#1" unicode="&#x681;" horiz-adv-x="739" 
d="M739 -5q-57 0 -106 8.5t-86.5 33t-61 72.5t-30.5 128l98 41q9 -64 34 -94.5t65.5 -39.5t96.5 -9q38 0 54 -19.5t16 -48.5q0 -31 -20.5 -51.5t-59.5 -20.5zM377 -394q-102 0 -184 34t-129.5 100.5t-47.5 164.5q0 108 52 190t141 137.5t198 83.5q-45 14 -104 28t-127 14
q-36 0 -67.5 -4.5t-55.5 -10.5l-21 136q29 9 62.5 15t69.5 6q68 0 123 -14.5t103 -33t93.5 -33t92.5 -14.5h40l13 -150q-46 0 -107 -14t-125 -41.5t-118.5 -67.5t-88.5 -92t-34 -116t31.5 -103.5t84.5 -57t118 -17.5q108 0 225 46l41 -122q-73 -34 -145 -49t-134 -15z
M225 614l-17 70q32 6 51 10q-18 13 -31 34t-13 46q0 36 16 58t41 32t52 10q29 0 53 -8l-8 -72l-20 4t-22 2q-13 0 -23.5 -8.5t-10.5 -20.5q0 -20 16.5 -34.5t33.5 -20.5q32 9 59 20l20 -67q-38 -14 -92.5 -29.5t-104.5 -25.5z" />
    <glyph glyph-name="uni0682.init#0#1" unicode="&#x682;" horiz-adv-x="629" 
d="M0 -5l10 140q108 0 210 24t181 77q-46 27 -101.5 42t-121.5 15q-25 0 -51.5 -2.5t-53.5 -8.5l-20 137q29 8 61.5 11.5t57.5 3.5q68 0 122 -18t98.5 -42t83 -42t75.5 -18h37l16 -133q-43 -2 -80.5 -16.5t-74 -36t-78 -44.5t-93.5 -43t-120 -33t-158 -13zM174 694
q-26 0 -44.5 18t-18.5 44t18.5 45t44.5 19t44.5 -19t18.5 -45t-18.5 -44t-44.5 -18zM174 528q-26 0 -44.5 18t-18.5 44t18.5 45t44.5 19t44.5 -19t18.5 -45t-18.5 -44t-44.5 -18z" />
    <glyph glyph-name="uni0682.medi#0#1" unicode="&#x682;" horiz-adv-x="654" 
d="M654 -5q-61 0 -111.5 13.5t-87.5 47.5t-60 97l79 63q27 -48 72 -64.5t118 -16.5q38 0 54 -19.5t16 -48.5q0 -31 -20.5 -51.5t-59.5 -20.5zM0 -5l10 140q108 0 210 24t181 77q-46 27 -101.5 42t-121.5 15q-25 0 -51.5 -2.5t-53.5 -8.5l-20 137q29 8 61.5 11.5t57.5 3.5
q68 0 122 -18t98.5 -42t83 -42t75.5 -18h37l16 -133q-43 -2 -80.5 -16.5t-74 -36t-78 -44.5t-93.5 -43t-120 -33t-158 -13zM173 704q-26 0 -44.5 18t-18.5 44t18.5 45t44.5 19t44.5 -19t18.5 -45t-18.5 -44t-44.5 -18zM173 538q-26 0 -44.5 18t-18.5 44t18.5 45t44.5 19
t44.5 -19t18.5 -45t-18.5 -44t-44.5 -18z" />
    <glyph glyph-name="uni0682.fina#0#1" unicode="&#x682;" horiz-adv-x="739" 
d="M739 -5q-57 0 -106 8.5t-86.5 33t-61 72.5t-30.5 128l98 41q9 -64 34 -94.5t65.5 -39.5t96.5 -9q38 0 54 -19.5t16 -48.5q0 -31 -20.5 -51.5t-59.5 -20.5zM377 -394q-102 0 -184 34t-129.5 100.5t-47.5 164.5q0 108 52 190t141 137.5t198 83.5q-45 14 -104 28t-127 14
q-36 0 -67.5 -4.5t-55.5 -10.5l-21 136q29 9 62.5 15t69.5 6q68 0 123 -14.5t103 -33t93.5 -33t92.5 -14.5h40l13 -150q-46 0 -107 -14t-125 -41.5t-118.5 -67.5t-88.5 -92t-34 -116t31.5 -103.5t84.5 -57t118 -17.5q108 0 225 46l41 -122q-73 -34 -145 -49t-134 -15z
M331 760q-26 0 -44.5 18t-18.5 44t18.5 45t44.5 19t44.5 -19t18.5 -45t-18.5 -44t-44.5 -18zM331 594q-26 0 -44.5 18t-18.5 44t18.5 45t44.5 19t44.5 -19t18.5 -45t-18.5 -44t-44.5 -18z" />
    <glyph glyph-name="uni0685.init#0#1" unicode="&#x685;" horiz-adv-x="629" 
d="M0 -5l10 140q108 0 210 24t181 77q-46 27 -101.5 42t-121.5 15q-25 0 -51.5 -2.5t-53.5 -8.5l-20 137q29 8 61.5 11.5t57.5 3.5q68 0 122 -18t98.5 -42t83 -42t75.5 -18h37l16 -133q-43 -2 -80.5 -16.5t-74 -36t-78 -44.5t-93.5 -43t-120 -33t-158 -13zM190 659
q-25 0 -43.5 19t-18.5 45t18.5 44t43.5 18q26 0 44 -18t18 -44t-18 -45t-44 -19zM110 527q-25 0 -43.5 19t-18.5 45t18.5 44t43.5 18q26 0 44 -18t18 -44t-18 -45t-44 -19zM265 527q-25 0 -43.5 19t-18.5 45t18.5 44t43.5 18q26 0 44 -18t18 -44t-18 -45t-44 -19z" />
    <glyph glyph-name="uni0685.medi#0#1" unicode="&#x685;" horiz-adv-x="654" 
d="M654 -5q-61 0 -111.5 13.5t-87.5 47.5t-60 97l79 63q27 -48 72 -64.5t118 -16.5q38 0 54 -19.5t16 -48.5q0 -31 -20.5 -51.5t-59.5 -20.5zM0 -5l10 140q108 0 210 24t181 77q-46 27 -101.5 42t-121.5 15q-25 0 -51.5 -2.5t-53.5 -8.5l-20 137q29 8 61.5 11.5t57.5 3.5
q68 0 122 -18t98.5 -42t83 -42t75.5 -18h37l16 -133q-43 -2 -80.5 -16.5t-74 -36t-78 -44.5t-93.5 -43t-120 -33t-158 -13zM190 659q-25 0 -43.5 19t-18.5 45t18.5 44t43.5 18q26 0 44 -18t18 -44t-18 -45t-44 -19zM110 527q-25 0 -43.5 19t-18.5 45t18.5 44t43.5 18
q26 0 44 -18t18 -44t-18 -45t-44 -19zM265 527q-25 0 -43.5 19t-18.5 45t18.5 44t43.5 18q26 0 44 -18t18 -44t-18 -45t-44 -19z" />
    <glyph glyph-name="uni0685.fina#0#1" unicode="&#x685;" horiz-adv-x="739" 
d="M739 -5q-57 0 -106 8.5t-86.5 33t-61 72.5t-30.5 128l98 41q9 -64 34 -94.5t65.5 -39.5t96.5 -9q38 0 54 -19.5t16 -48.5q0 -31 -20.5 -51.5t-59.5 -20.5zM377 -394q-102 0 -184 34t-129.5 100.5t-47.5 164.5q0 108 52 190t141 137.5t198 83.5q-45 14 -104 28t-127 14
q-36 0 -67.5 -4.5t-55.5 -10.5l-21 136q29 9 62.5 15t69.5 6q68 0 123 -14.5t103 -33t93.5 -33t92.5 -14.5h40l13 -150q-46 0 -107 -14t-125 -41.5t-118.5 -67.5t-88.5 -92t-34 -116t31.5 -103.5t84.5 -57t118 -17.5q108 0 225 46l41 -122q-73 -34 -145 -49t-134 -15z
M330 725q-25 0 -43.5 19t-18.5 45t18.5 44t43.5 18q26 0 44 -18t18 -44t-18 -45t-44 -19zM250 593q-25 0 -43.5 19t-18.5 45t18.5 44t43.5 18q26 0 44 -18t18 -44t-18 -45t-44 -19zM405 593q-25 0 -43.5 19t-18.5 45t18.5 44t43.5 18q26 0 44 -18t18 -44t-18 -45t-44 -19z
" />
    <glyph glyph-name="uniFEA5#0#1" unicode="&#x62e;" horiz-adv-x="687" arabic-form="isolated" 
d="M377 -394q-102 0 -184 34t-129.5 100.5t-47.5 164.5q0 108 52 190t141 137.5t198 83.5q-45 14 -104 28t-127 14q-36 0 -67.5 -4.5t-55.5 -10.5l-21 136q29 9 62.5 15t69.5 6q68 0 123 -14.5t103 -33t93.5 -33t92.5 -14.5h40l13 -150q-46 0 -107 -14t-125 -41.5
t-118.5 -67.5t-88.5 -92t-34 -116t31.5 -103.5t84.5 -57t118 -17.5q108 0 225 46l41 -122q-73 -34 -145 -49t-134 -15zM330 593q-31 0 -52.5 21t-21.5 52t21.5 53t52.5 22q30 0 51.5 -22t21.5 -53t-21.5 -52t-51.5 -21z" />
    <glyph glyph-name="uniFEA6#0#1" unicode="&#x62e;" horiz-adv-x="739" arabic-form="final" 
d="M739 -5q-57 0 -106 8.5t-86.5 33t-61 72.5t-30.5 128l98 41q9 -64 34 -94.5t65.5 -39.5t96.5 -9q38 0 54 -19.5t16 -48.5q0 -31 -20.5 -51.5t-59.5 -20.5zM377 -394q-102 0 -184 34t-129.5 100.5t-47.5 164.5q0 108 52 190t141 137.5t198 83.5q-45 14 -104 28t-127 14
q-36 0 -67.5 -4.5t-55.5 -10.5l-21 136q29 9 62.5 15t69.5 6q68 0 123 -14.5t103 -33t93.5 -33t92.5 -14.5h40l13 -150q-46 0 -107 -14t-125 -41.5t-118.5 -67.5t-88.5 -92t-34 -116t31.5 -103.5t84.5 -57t118 -17.5q108 0 225 46l41 -122q-73 -34 -145 -49t-134 -15z
M330 593q-31 0 -52.5 21t-21.5 52t21.5 53t52.5 22q30 0 51.5 -22t21.5 -53t-21.5 -52t-51.5 -21z" />
    <glyph glyph-name="uniFEA8#0#1" unicode="&#x62e;" horiz-adv-x="654" arabic-form="medial" 
d="M654 -5q-61 0 -111.5 13.5t-87.5 47.5t-60 97l79 63q27 -48 72 -64.5t118 -16.5q38 0 54 -19.5t16 -48.5q0 -31 -20.5 -51.5t-59.5 -20.5zM0 -5l10 140q108 0 210 24t181 77q-46 27 -101.5 42t-121.5 15q-25 0 -51.5 -2.5t-53.5 -8.5l-20 137q29 8 61.5 11.5t57.5 3.5
q68 0 122 -18t98.5 -42t83 -42t75.5 -18h37l16 -133q-43 -2 -80.5 -16.5t-74 -36t-78 -44.5t-93.5 -43t-120 -33t-158 -13zM172 537q-31 0 -52.5 21t-21.5 52t21.5 53t52.5 22q30 0 51.5 -22t21.5 -53t-21.5 -52t-51.5 -21z" />
    <glyph glyph-name="uniFEA7#0#1" unicode="&#x62e;" horiz-adv-x="629" arabic-form="initial" 
d="M0 -5l10 140q108 0 210 24t181 77q-46 27 -101.5 42t-121.5 15q-25 0 -51.5 -2.5t-53.5 -8.5l-20 137q29 8 61.5 11.5t57.5 3.5q68 0 122 -18t98.5 -42t83 -42t75.5 -18h37l16 -133q-43 -2 -80.5 -16.5t-74 -36t-78 -44.5t-93.5 -43t-120 -33t-158 -13zM173 527
q-31 0 -52.5 21t-21.5 52t21.5 53t52.5 22q30 0 51.5 -22t21.5 -53t-21.5 -52t-51.5 -21z" />
    <glyph glyph-name="uniFEA9#0#1" unicode="&#x62f;" horiz-adv-x="517" arabic-form="isolated" 
d="M35 40l49 127q71 -32 139 -32q106 0 106 57q0 17 -10.5 47t-37.5 78.5t-79 120.5l119 79q71 -103 114 -195t43 -155q0 -77 -61.5 -125t-178.5 -48q-29 0 -65 5t-72.5 15t-65.5 26z" />
    <glyph glyph-name="uniFEAA#0#1" unicode="&#x62f;" horiz-adv-x="571" arabic-form="final" 
d="M218 135q67 0 89 17.5t22 39.5q0 24 -13.5 56t-33.5 67t-41.5 67t-38.5 56l119 79q65 -87 102.5 -168.5t49.5 -132.5q11 -48 42 -64.5t65 -16.5q38 0 54.5 -19.5t16.5 -48.5q0 -31 -20.5 -51.5t-60.5 -20.5q-94 0 -140 58q-27 -26 -76 -42.5t-116 -16.5q-46 0 -102.5 11
t-100.5 35l49 127q37 -16 71.5 -24t62.5 -8z" />
    <glyph glyph-name="uniFEAB#0#1" unicode="&#x630;" horiz-adv-x="517" arabic-form="isolated" 
d="M35 40l49 127q71 -32 139 -32q106 0 106 57q0 17 -10.5 47t-37.5 78.5t-79 120.5l119 79q71 -103 114 -195t43 -155q0 -77 -61.5 -125t-178.5 -48q-29 0 -65 5t-72.5 15t-65.5 26zM224 593q-31 0 -52.5 21t-21.5 52t21.5 53t52.5 22q30 0 51.5 -22t21.5 -53t-21.5 -52
t-51.5 -21z" />
    <glyph glyph-name="uniFEAC#0#1" unicode="&#x630;" horiz-adv-x="571" arabic-form="final" 
d="M218 135q67 0 89 17.5t22 39.5q0 24 -13.5 56t-33.5 67t-41.5 67t-38.5 56l119 79q65 -87 102.5 -168.5t49.5 -132.5q11 -48 42 -64.5t65 -16.5q38 0 54.5 -19.5t16.5 -48.5q0 -31 -20.5 -51.5t-60.5 -20.5q-94 0 -140 58q-27 -26 -76 -42.5t-116 -16.5q-46 0 -102.5 11
t-100.5 35l49 127q37 -16 71.5 -24t62.5 -8zM224 593q-31 0 -52.5 21t-21.5 52t21.5 53t52.5 22q30 0 51.5 -22t21.5 -53t-21.5 -52t-51.5 -21z" />
    <glyph glyph-name="uniFC5B#0#1" unicode="&#xfc5b;" horiz-adv-x="517" arabic-form="isolated" 
d="M35 40l49 127q71 -32 139 -32q106 0 106 57q0 17 -10.5 47t-37.5 78.5t-79 120.5l119 79q71 -103 114 -195t43 -155q0 -77 -61.5 -125t-178.5 -48q-29 0 -65 5t-72.5 15t-65.5 26zM224 593q-31 0 -52.5 21t-21.5 52t21.5 53t52.5 22q30 0 51.5 -22t21.5 -53t-21.5 -52
t-51.5 -21zM402 623l-7 178h91l7 -178h-91z" />
    <glyph glyph-name="uniFB88#0#1" unicode="&#x688;" horiz-adv-x="517" arabic-form="isolated" 
d="M35 40l49 127q71 -32 139 -32q106 0 106 57q0 17 -10.5 47t-37.5 78.5t-79 120.5l119 79q71 -103 114 -195t43 -155q0 -77 -61.5 -125t-178.5 -48q-29 0 -65 5t-72.5 15t-65.5 26zM217 629q-18 0 -43 1.5t-46.5 3.5t-32.5 3l3 63q13 -2 30 -3l16 28l-5 168h65l4 -99
q42 30 82 30q38 0 61 -25.5t23 -63.5q0 -22 -11.5 -46.5t-45.5 -42t-100 -17.5zM279 757q-22 0 -44.5 -20.5t-36.5 -43.5h12q56 0 76.5 10.5t20.5 26.5q0 11 -7 19t-21 8z" />
    <glyph glyph-name="uniFB89#0#1" unicode="&#x688;" horiz-adv-x="571" arabic-form="final" 
d="M218 135q67 0 89 17.5t22 39.5q0 24 -13.5 56t-33.5 67t-41.5 67t-38.5 56l119 79q65 -87 102.5 -168.5t49.5 -132.5q11 -48 42 -64.5t65 -16.5q38 0 54.5 -19.5t16.5 -48.5q0 -31 -20.5 -51.5t-60.5 -20.5q-94 0 -140 58q-27 -26 -76 -42.5t-116 -16.5q-46 0 -102.5 11
t-100.5 35l49 127q37 -16 71.5 -24t62.5 -8zM217 629q-18 0 -43 1.5t-46.5 3.5t-32.5 3l3 63q13 -2 30 -3l16 28l-5 168h65l4 -99q42 30 82 30q38 0 61 -25.5t23 -63.5q0 -22 -11.5 -46.5t-45.5 -42t-100 -17.5zM279 757q-22 0 -44.5 -20.5t-36.5 -43.5h12q56 0 76.5 10.5
t20.5 26.5q0 11 -7 19t-21 8z" />
    <glyph glyph-name="uniFB84#0#1" unicode="&#x68c;" horiz-adv-x="517" arabic-form="isolated" 
d="M35 40l49 127q71 -32 139 -32q106 0 106 57q0 17 -10.5 47t-37.5 78.5t-79 120.5l119 79q71 -103 114 -195t43 -155q0 -77 -61.5 -125t-178.5 -48q-29 0 -65 5t-72.5 15t-65.5 26zM138 592q-29 0 -49.5 20.5t-20.5 48.5q0 29 20.5 50t49.5 21q28 0 48 -21t20 -50
q0 -28 -20 -48.5t-48 -20.5zM311 591q-29 0 -49.5 20.5t-20.5 48.5q0 29 20.5 50t49.5 21q28 0 48 -21t20 -50q0 -28 -20 -48.5t-48 -20.5z" />
    <glyph glyph-name="uniFB85#0#1" unicode="&#x68c;" horiz-adv-x="571" arabic-form="final" 
d="M218 135q67 0 89 17.5t22 39.5q0 24 -13.5 56t-33.5 67t-41.5 67t-38.5 56l119 79q65 -87 102.5 -168.5t49.5 -132.5q11 -48 42 -64.5t65 -16.5q38 0 54.5 -19.5t16.5 -48.5q0 -31 -20.5 -51.5t-60.5 -20.5q-94 0 -140 58q-27 -26 -76 -42.5t-116 -16.5q-46 0 -102.5 11
t-100.5 35l49 127q37 -16 71.5 -24t62.5 -8zM138 592q-29 0 -49.5 20.5t-20.5 48.5q0 29 20.5 50t49.5 21q28 0 48 -21t20 -50q0 -28 -20 -48.5t-48 -20.5zM311 591q-29 0 -49.5 20.5t-20.5 48.5q0 29 20.5 50t49.5 21q28 0 48 -21t20 -50q0 -28 -20 -48.5t-48 -20.5z" />
    <glyph glyph-name="uniFB82#0#1" unicode="&#x68d;" horiz-adv-x="517" arabic-form="isolated" 
d="M35 40l49 127q71 -32 139 -32q106 0 106 57q0 17 -10.5 47t-37.5 78.5t-79 120.5l119 79q71 -103 114 -195t43 -155q0 -77 -61.5 -125t-178.5 -48q-29 0 -65 5t-72.5 15t-65.5 26zM336 -237q-29 0 -49.5 20.5t-20.5 48.5q0 29 20.5 50t49.5 21q28 0 48 -21t20 -50
q0 -28 -20 -48.5t-48 -20.5zM163 -237q-29 0 -49.5 20.5t-20.5 48.5q0 29 20.5 50t49.5 21q28 0 48 -21t20 -50q0 -28 -20 -48.5t-48 -20.5z" />
    <glyph glyph-name="uniFB83#0#1" unicode="&#x68d;" horiz-adv-x="571" arabic-form="final" 
d="M218 135q67 0 89 17.5t22 39.5q0 24 -13.5 56t-33.5 67t-41.5 67t-38.5 56l119 79q65 -87 102.5 -168.5t49.5 -132.5q11 -48 42 -64.5t65 -16.5q38 0 54.5 -19.5t16.5 -48.5q0 -31 -20.5 -51.5t-60.5 -20.5q-94 0 -140 58q-27 -26 -76 -42.5t-116 -16.5q-46 0 -102.5 11
t-100.5 35l49 127q37 -16 71.5 -24t62.5 -8zM328 -237q-29 0 -49.5 20.5t-20.5 48.5q0 29 20.5 50t49.5 21q28 0 48 -21t20 -50q0 -28 -20 -48.5t-48 -20.5zM155 -237q-29 0 -49.5 20.5t-20.5 48.5q0 29 20.5 50t49.5 21q28 0 48 -21t20 -50q0 -28 -20 -48.5t-48 -20.5z" />
    <glyph glyph-name="uni0689.fina#0#1" unicode="&#x689;" horiz-adv-x="571" 
d="M218 135q67 0 89 17.5t22 39.5q0 24 -13.5 56t-33.5 67t-41.5 67t-38.5 56l119 79q65 -87 102.5 -168.5t49.5 -132.5q11 -48 42 -64.5t65 -16.5q38 0 54.5 -19.5t16.5 -48.5q0 -31 -20.5 -51.5t-60.5 -20.5q-94 0 -140 58q-27 -26 -76 -42.5t-116 -16.5q-46 0 -102.5 11
t-100.5 35l49 127q37 -16 71.5 -24t62.5 -8zM225 -141q-42 0 -71 29.5t-29 70.5t29 70.5t71 29.5q41 0 70.5 -29.5t29.5 -70.5t-29.5 -70.5t-70.5 -29.5zM224 -75q16 0 26.5 9.5t10.5 24.5q0 16 -10.5 25.5t-26.5 9.5q-15 0 -25.5 -10t-10.5 -25t10.5 -24.5t25.5 -9.5z" />
    <glyph glyph-name="uni068A.fina#0#1" unicode="&#x68a;" horiz-adv-x="571" 
d="M218 135q67 0 89 17.5t22 39.5q0 24 -13.5 56t-33.5 67t-41.5 67t-38.5 56l119 79q65 -87 102.5 -168.5t49.5 -132.5q11 -48 42 -64.5t65 -16.5q38 0 54.5 -19.5t16.5 -48.5q0 -31 -20.5 -51.5t-60.5 -20.5q-94 0 -140 58q-27 -26 -76 -42.5t-116 -16.5q-46 0 -102.5 11
t-100.5 35l49 127q37 -16 71.5 -24t62.5 -8zM236 -235q-29 0 -49.5 20t-20.5 49t20.5 50.5t49.5 21.5t49.5 -21.5t20.5 -50.5t-20.5 -49t-49.5 -20z" />
    <glyph glyph-name="uni068B.fina#0#1" unicode="&#x68b;" horiz-adv-x="571" 
d="M218 135q67 0 89 17.5t22 39.5q0 24 -13.5 56t-33.5 67t-41.5 67t-38.5 56l119 79q65 -87 102.5 -168.5t49.5 -132.5q11 -48 42 -64.5t65 -16.5q38 0 54.5 -19.5t16.5 -48.5q0 -31 -20.5 -51.5t-60.5 -20.5q-94 0 -140 58q-27 -26 -76 -42.5t-116 -16.5q-46 0 -102.5 11
t-100.5 35l49 127q37 -16 71.5 -24t62.5 -8zM217 629q-18 0 -43 1.5t-46.5 3.5t-32.5 3l3 63q13 -2 30 -3l16 28l-5 168h65l4 -99q42 30 82 30q38 0 61 -25.5t23 -63.5q0 -22 -11.5 -46.5t-45.5 -42t-100 -17.5zM279 757q-22 0 -44.5 -20.5t-36.5 -43.5h12q56 0 76.5 10.5
t20.5 26.5q0 11 -7 19t-21 8zM236 -235q-29 0 -49.5 20t-20.5 49t20.5 50.5t49.5 21.5t49.5 -21.5t20.5 -50.5t-20.5 -49t-49.5 -20z" />
    <glyph glyph-name="uniFB86#0#1" unicode="&#x68e;" horiz-adv-x="517" arabic-form="isolated" 
d="M35 40l49 127q71 -32 139 -32q106 0 106 57q0 17 -10.5 47t-37.5 78.5t-79 120.5l119 79q71 -103 114 -195t43 -155q0 -77 -61.5 -125t-178.5 -48q-29 0 -65 5t-72.5 15t-65.5 26zM231 725q-25 0 -43.5 19t-18.5 45t18.5 44t43.5 18q26 0 44 -18t18 -44t-18 -45t-44 -19z
M151 593q-25 0 -43.5 19t-18.5 45t18.5 44t43.5 18q26 0 44 -18t18 -44t-18 -45t-44 -19zM306 593q-25 0 -43.5 19t-18.5 45t18.5 44t43.5 18q26 0 44 -18t18 -44t-18 -45t-44 -19z" />
    <glyph glyph-name="uniFB87#0#1" unicode="&#x68e;" horiz-adv-x="571" arabic-form="final" 
d="M218 135q67 0 89 17.5t22 39.5q0 24 -13.5 56t-33.5 67t-41.5 67t-38.5 56l119 79q65 -87 102.5 -168.5t49.5 -132.5q11 -48 42 -64.5t65 -16.5q38 0 54.5 -19.5t16.5 -48.5q0 -31 -20.5 -51.5t-60.5 -20.5q-94 0 -140 58q-27 -26 -76 -42.5t-116 -16.5q-46 0 -102.5 11
t-100.5 35l49 127q37 -16 71.5 -24t62.5 -8zM231 725q-25 0 -43.5 19t-18.5 45t18.5 44t43.5 18q26 0 44 -18t18 -44t-18 -45t-44 -19zM151 593q-25 0 -43.5 19t-18.5 45t18.5 44t43.5 18q26 0 44 -18t18 -44t-18 -45t-44 -19zM306 593q-25 0 -43.5 19t-18.5 45t18.5 44
t43.5 18q26 0 44 -18t18 -44t-18 -45t-44 -19z" />
    <glyph glyph-name="uni068F.fina#0#1" unicode="&#x68f;" horiz-adv-x="571" 
d="M218 135q67 0 89 17.5t22 39.5q0 24 -13.5 56t-33.5 67t-41.5 67t-38.5 56l119 79q65 -87 102.5 -168.5t49.5 -132.5q11 -48 42 -64.5t65 -16.5q38 0 54.5 -19.5t16.5 -48.5q0 -31 -20.5 -51.5t-60.5 -20.5q-94 0 -140 58q-27 -26 -76 -42.5t-116 -16.5q-46 0 -102.5 11
t-100.5 35l49 127q37 -16 71.5 -24t62.5 -8zM147 724q-26 0 -44.5 18t-18.5 44t18.5 45t44.5 19t44 -19t18 -45t-18 -44t-44 -18zM303 724q-26 0 -44.5 18t-18.5 44t18.5 45t44.5 19t44 -19t18 -45t-18 -44t-44 -18zM223 592q-26 0 -44.5 18t-18.5 44t18.5 45t44.5 19
t44 -19t18 -45t-18 -44t-44 -18z" />
    <glyph glyph-name="uni0690.fina#0#1" unicode="&#x690;" horiz-adv-x="571" 
d="M218 135q67 0 89 17.5t22 39.5q0 24 -13.5 56t-33.5 67t-41.5 67t-38.5 56l119 79q65 -87 102.5 -168.5t49.5 -132.5q11 -48 42 -64.5t65 -16.5q38 0 54.5 -19.5t16.5 -48.5q0 -31 -20.5 -51.5t-60.5 -20.5q-94 0 -140 58q-27 -26 -76 -42.5t-116 -16.5q-46 0 -102.5 11
t-100.5 35l49 127q37 -16 71.5 -24t62.5 -8zM161 730q-24 0 -40.5 16.5t-16.5 40.5t16.5 41.5t40.5 17.5q23 0 40 -17.5t17 -41.5t-17 -40.5t-40 -16.5zM299 730q-24 0 -40.5 16.5t-16.5 40.5t16.5 41.5t40.5 17.5q23 0 40 -17.5t17 -41.5t-17 -40.5t-40 -16.5zM161 591
q-24 0 -40.5 16.5t-16.5 40.5t16.5 41.5t40.5 17.5q23 0 40 -17.5t17 -41.5t-17 -40.5t-40 -16.5zM299 591q-24 0 -40.5 16.5t-16.5 40.5t16.5 41.5t40.5 17.5q23 0 40 -17.5t17 -41.5t-17 -40.5t-40 -16.5z" />
    <glyph glyph-name="uni06EE.fina#0#1" unicode="&#x6ee;" horiz-adv-x="571" 
d="M218 135q67 0 89 17.5t22 39.5q0 24 -13.5 56t-33.5 67t-41.5 67t-38.5 56l119 79q65 -87 102.5 -168.5t49.5 -132.5q11 -48 42 -64.5t65 -16.5q38 0 54.5 -19.5t16.5 -48.5q0 -31 -20.5 -51.5t-60.5 -20.5q-94 0 -140 58q-27 -26 -76 -42.5t-116 -16.5q-46 0 -102.5 11
t-100.5 35l49 127q37 -16 71.5 -24t62.5 -8zM176 806l72 6q10 -20 27 -52.5t35 -65.5t31 -54l-58 -31q-8 11 -20 32t-26 46t-25 46q-11 -25 -22.5 -51.5t-21 -47t-14.5 -28.5l-58 24q5 10 15.5 32.5t23 50t24 52.5t17.5 41z" />
    <glyph glyph-name="uniFEAD#0#1" unicode="&#x631;" horiz-adv-x="409" arabic-form="isolated" 
d="M16 -230l-51 128q128 45 186 103.5t58 124.5q0 42 -18 90.5t-47 103.5l131 63q35 -67 54.5 -128t19.5 -114q0 -123 -80 -217t-253 -154z" />
    <glyph glyph-name="uniFEAE#0#1" unicode="&#x631;" horiz-adv-x="450" arabic-form="final" 
d="M16 -231l-51 124q71 25 126 58.5t86.5 77.5t31.5 97q0 42 -19 92t-46 102l131 63q18 -31 31.5 -66.5t22.5 -63.5t12 -38q14 -48 38.5 -64t79.5 -16q38 0 54.5 -19.5t16.5 -48.5q0 -31 -21 -51.5t-60 -20.5q-76 0 -116 41q-17 -62 -64.5 -114.5t-113.5 -91.5t-139 -61z
" />
    <glyph glyph-name="uniFEAF#0#1" unicode="&#x632;" horiz-adv-x="409" arabic-form="isolated" 
d="M16 -230l-51 128q128 45 186 103.5t58 124.5q0 42 -18 90.5t-47 103.5l131 63q35 -67 54.5 -128t19.5 -114q0 -123 -80 -217t-253 -154zM237 485q-31 0 -52.5 21t-21.5 52t21.5 53t52.5 22q30 0 51.5 -22t21.5 -53t-21.5 -52t-51.5 -21z" />
    <glyph glyph-name="uniFEB0#0#1" unicode="&#x632;" horiz-adv-x="450" arabic-form="final" 
d="M16 -231l-51 124q71 25 126 58.5t86.5 77.5t31.5 97q0 42 -19 92t-46 102l131 63q18 -31 31.5 -66.5t22.5 -63.5t12 -38q14 -48 38.5 -64t79.5 -16q38 0 54.5 -19.5t16.5 -48.5q0 -31 -21 -51.5t-60 -20.5q-76 0 -116 41q-17 -62 -64.5 -114.5t-113.5 -91.5t-139 -61z
M220 485q-31 0 -52.5 21t-21.5 52t21.5 53t52.5 22q30 0 51.5 -22t21.5 -53t-21.5 -52t-51.5 -21z" />
    <glyph glyph-name="uniFB8C#0#1" unicode="&#x691;" horiz-adv-x="409" arabic-form="isolated" 
d="M16 -230l-51 128q128 45 186 103.5t58 124.5q0 42 -18 90.5t-47 103.5l131 63q35 -67 54.5 -128t19.5 -114q0 -123 -80 -217t-253 -154zM214 451q-18 0 -43 1.5t-46.5 3.5t-32.5 3l3 63q13 -2 30 -3l16 28l-5 168h65l4 -99q42 30 82 30q38 0 61 -25.5t23 -63.5
q0 -22 -11.5 -46.5t-45.5 -42t-100 -17.5zM276 579q-22 0 -44.5 -20.5t-36.5 -43.5h12q56 0 76.5 10.5t20.5 26.5q0 11 -7 19t-21 8z" />
    <glyph glyph-name="uniFB8D#0#1" unicode="&#x691;" horiz-adv-x="450" arabic-form="final" 
d="M16 -231l-51 124q71 25 126 58.5t86.5 77.5t31.5 97q0 42 -19 92t-46 102l131 63q18 -31 31.5 -66.5t22.5 -63.5t12 -38q14 -48 38.5 -64t79.5 -16q38 0 54.5 -19.5t16.5 -48.5q0 -31 -21 -51.5t-60 -20.5q-76 0 -116 41q-17 -62 -64.5 -114.5t-113.5 -91.5t-139 -61z
M220 451q-18 0 -43 1.5t-46.5 3.5t-32.5 3l3 63q13 -2 30 -3l16 28l-5 168h65l4 -99q42 30 82 30q38 0 61 -25.5t23 -63.5q0 -22 -11.5 -46.5t-45.5 -42t-100 -17.5zM282 579q-22 0 -44.5 -20.5t-36.5 -43.5h12q56 0 76.5 10.5t20.5 26.5q0 11 -7 19t-21 8z" />
    <glyph glyph-name="uni0692.fina#0#1" unicode="&#x692;" horiz-adv-x="450" 
d="M16 -231l-51 124q71 25 126 58.5t86.5 77.5t31.5 97q0 42 -19 92t-46 102l131 63q18 -31 31.5 -66.5t22.5 -63.5t12 -38q14 -48 38.5 -64t79.5 -16q38 0 54.5 -19.5t16.5 -48.5q0 -31 -21 -51.5t-60 -20.5q-76 0 -116 41q-17 -62 -64.5 -114.5t-113.5 -91.5t-139 -61z
M180 425q-10 20 -27 52.5t-34.5 65.5t-31.5 54l58 31q8 -11 20 -32t26 -46t25 -46q11 25 22.5 51.5t21 47t14.5 28.5l58 -24q-5 -10 -15.5 -32.5t-23 -50t-24 -52.5t-17.5 -41z" />
    <glyph glyph-name="uni0693.fina#0#1" unicode="&#x693;" horiz-adv-x="450" 
d="M16 -231l-51 124q71 25 126 58.5t86.5 77.5t31.5 97q0 42 -19 92t-46 102l131 63q18 -31 31.5 -66.5t22.5 -63.5t12 -38q14 -48 38.5 -64t79.5 -16q38 0 54.5 -19.5t16.5 -48.5q0 -31 -21 -51.5t-60 -20.5q-76 0 -116 41q-17 -62 -64.5 -114.5t-113.5 -91.5t-139 -61z
M283 -217q-42 0 -71 29.5t-29 70.5t29 70.5t71 29.5q41 0 70.5 -29.5t29.5 -70.5t-29.5 -70.5t-70.5 -29.5zM282 -151q16 0 26.5 9.5t10.5 24.5q0 16 -10.5 25.5t-26.5 9.5q-15 0 -25.5 -10t-10.5 -25t10.5 -24.5t25.5 -9.5z" />
    <glyph glyph-name="uni0694.fina#0#1" unicode="&#x694;" horiz-adv-x="450" 
d="M16 -231l-51 124q71 25 126 58.5t86.5 77.5t31.5 97q0 42 -19 92t-46 102l131 63q18 -31 31.5 -66.5t22.5 -63.5t12 -38q14 -48 38.5 -64t79.5 -16q38 0 54.5 -19.5t16.5 -48.5q0 -31 -21 -51.5t-60 -20.5q-76 0 -116 41q-17 -62 -64.5 -114.5t-113.5 -91.5t-139 -61z
M162 -447q-29 0 -49.5 20t-20.5 49t20.5 50.5t49.5 21.5t49.5 -21.5t20.5 -50.5t-20.5 -49t-49.5 -20z" />
    <glyph glyph-name="uni0695.fina#0#1" unicode="&#x695;" horiz-adv-x="450" 
d="M16 -231l-51 124q71 25 126 58.5t86.5 77.5t31.5 97q0 42 -19 92t-46 102l131 63q18 -31 31.5 -66.5t22.5 -63.5t12 -38q14 -48 38.5 -64t79.5 -16q38 0 54.5 -19.5t16.5 -48.5q0 -31 -21 -51.5t-60 -20.5q-76 0 -116 41q-17 -62 -64.5 -114.5t-113.5 -91.5t-139 -61z
M43.3984 3.20312q-7.99902 16 -21.5996 40.7998q-13.5996 24.7988 -27.5996 49.5986q-13.999 24.7998 -25.1992 41.5996l46.3994 24.7998q6.39941 -8.7998 16 -24.7998q9.59961 -16 20.7998 -34.3994q11.1992 -18.3994 19.999 -35.1992q8.7998 19.1992 18 39.1992
t16.7998 35.5996t11.5996 21.999l46.3994 -19.1992q-4 -8 -12.3994 -25.2002q-8.40039 -17.1992 -18.4004 -37.999t-19.1992 -39.999q-9.2002 -19.2002 -14 -32z" />
    <glyph glyph-name="uni0696.fina#0#1" unicode="&#x696;" horiz-adv-x="450" 
d="M16 -231l-51 124q71 25 126 58.5t86.5 77.5t31.5 97q0 42 -19 92t-46 102l131 63q18 -31 31.5 -66.5t22.5 -63.5t12 -38q14 -48 38.5 -64t79.5 -16q38 0 54.5 -19.5t16.5 -48.5q0 -31 -21 -51.5t-60 -20.5q-76 0 -116 41q-17 -62 -64.5 -114.5t-113.5 -91.5t-139 -61z
M89 2q-31 0 -52.5 21t-21.5 52t21.5 53t52.5 22q30 0 51.5 -22t21.5 -53t-21.5 -52t-51.5 -21zM162 -447q-29 0 -49.5 20t-20.5 49t20.5 50.5t49.5 21.5t49.5 -21.5t20.5 -50.5t-20.5 -49t-49.5 -20z" />
    <glyph glyph-name="uni0697.fina#0#1" unicode="&#x697;" horiz-adv-x="450" 
d="M16 -231l-51 124q71 25 126 58.5t86.5 77.5t31.5 97q0 42 -19 92t-46 102l131 63q18 -31 31.5 -66.5t22.5 -63.5t12 -38q14 -48 38.5 -64t79.5 -16q38 0 54.5 -19.5t16.5 -48.5q0 -31 -21 -51.5t-60 -20.5q-76 0 -116 41q-17 -62 -64.5 -114.5t-113.5 -91.5t-139 -61z
M134 484q-29 0 -49.5 20.5t-20.5 48.5q0 29 20.5 50t49.5 21q28 0 48 -21t20 -50q0 -28 -20 -48.5t-48 -20.5zM307 483q-29 0 -49.5 20.5t-20.5 48.5q0 29 20.5 50t49.5 21q28 0 48 -21t20 -50q0 -28 -20 -48.5t-48 -20.5z" />
    <glyph glyph-name="uniFB8A#0#1" unicode="&#x698;" horiz-adv-x="409" arabic-form="isolated" 
d="M16 -230l-51 128q128 45 186 103.5t58 124.5q0 42 -18 90.5t-47 103.5l131 63q35 -67 54.5 -128t19.5 -114q0 -123 -80 -217t-253 -154zM236 617q-25 0 -43.5 19t-18.5 45t18.5 44t43.5 18q26 0 44 -18t18 -44t-18 -45t-44 -19zM156 485q-25 0 -43.5 19t-18.5 45t18.5 44
t43.5 18q26 0 44 -18t18 -44t-18 -45t-44 -19zM311 485q-25 0 -43.5 19t-18.5 45t18.5 44t43.5 18q26 0 44 -18t18 -44t-18 -45t-44 -19z" />
    <glyph glyph-name="uniFB8B#0#1" unicode="&#x698;" horiz-adv-x="450" arabic-form="final" 
d="M16 -231l-51 124q71 25 126 58.5t86.5 77.5t31.5 97q0 42 -19 92t-46 102l131 63q18 -31 31.5 -66.5t22.5 -63.5t12 -38q14 -48 38.5 -64t79.5 -16q38 0 54.5 -19.5t16.5 -48.5q0 -31 -21 -51.5t-60 -20.5q-76 0 -116 41q-17 -62 -64.5 -114.5t-113.5 -91.5t-139 -61z
M227 617q-25 0 -43.5 19t-18.5 45t18.5 44t43.5 18q26 0 44 -18t18 -44t-18 -45t-44 -19zM147 485q-25 0 -43.5 19t-18.5 45t18.5 44t43.5 18q26 0 44 -18t18 -44t-18 -45t-44 -19zM302 485q-25 0 -43.5 19t-18.5 45t18.5 44t43.5 18q26 0 44 -18t18 -44t-18 -45t-44 -19z
" />
    <glyph glyph-name="uni0699.fina#0#1" unicode="&#x699;" horiz-adv-x="450" 
d="M16 -231l-51 124q71 25 126 58.5t86.5 77.5t31.5 97q0 42 -19 92t-46 102l131 63q18 -31 31.5 -66.5t22.5 -63.5t12 -38q14 -48 38.5 -64t79.5 -16q38 0 54.5 -19.5t16.5 -48.5q0 -31 -21 -51.5t-60 -20.5q-76 0 -116 41q-17 -62 -64.5 -114.5t-113.5 -91.5t-139 -61z
M157 622q-24 0 -40.5 16.5t-16.5 40.5t16.5 41.5t40.5 17.5q23 0 40 -17.5t17 -41.5t-17 -40.5t-40 -16.5zM295 622q-24 0 -40.5 16.5t-16.5 40.5t16.5 41.5t40.5 17.5q23 0 40 -17.5t17 -41.5t-17 -40.5t-40 -16.5zM157 483q-24 0 -40.5 16.5t-16.5 40.5t16.5 41.5
t40.5 17.5q23 0 40 -17.5t17 -41.5t-17 -40.5t-40 -16.5zM295 483q-24 0 -40.5 16.5t-16.5 40.5t16.5 41.5t40.5 17.5q23 0 40 -17.5t17 -41.5t-17 -40.5t-40 -16.5z" />
    <glyph glyph-name="uni06EF.fina#0#1" unicode="&#x6ef;" horiz-adv-x="450" 
d="M16 -231l-51 124q71 25 126 58.5t86.5 77.5t31.5 97q0 42 -19 92t-46 102l131 63q18 -31 31.5 -66.5t22.5 -63.5t12 -38q14 -48 38.5 -64t79.5 -16q38 0 54.5 -19.5t16.5 -48.5q0 -31 -21 -51.5t-60 -20.5q-76 0 -116 41q-17 -62 -64.5 -114.5t-113.5 -91.5t-139 -61z
M172 698l72 6q10 -20 27 -52.5t35 -65.5t31 -54l-58 -31q-8 11 -20 32t-26 46t-25 46q-11 -25 -22.5 -51.5t-21 -47t-14.5 -28.5l-58 24q5 10 15.5 32.5t23 50t24 52.5t17.5 41z" />
    <glyph glyph-name="uniFC5C#0#1" unicode="&#xfc5c;" horiz-adv-x="409" arabic-form="isolated" 
d="M16 -230l-51 128q128 45 186 103.5t58 124.5q0 42 -18 90.5t-47 103.5l131 63q35 -67 54.5 -128t19.5 -114q0 -123 -80 -217t-253 -154zM383 470l-7 178h91l7 -178h-91z" />
    <glyph glyph-name="uniFEB1#0#1" unicode="&#x633;" horiz-adv-x="1370" arabic-form="isolated" 
d="M343 -232q-96 0 -167 29.5t-110.5 87.5t-39.5 143q0 35 9.5 87.5t42.5 125.5l123 -43q-17 -47 -26 -80.5t-9 -65.5q0 -39 18 -72t58 -52.5t105 -19.5q80 0 125 23t63 62.5t18 86.5q0 41 -14.5 99t-37.5 128l140 36q14 -58 22.5 -90t13.5 -48q15 -45 40 -58.5t59 -12.5
q19 0 35 6t29.5 25.5t24.5 60.5t20 113l132 -21q-6 -35 -12 -74t-6 -60q0 -19 18.5 -34t73.5 -15q41 0 65 14t24 57q0 38 -17 98t-40 126l141 42q16 -43 28.5 -91.5t20 -94t7.5 -79.5q0 -106 -61 -159t-165 -53q-56 0 -97.5 18.5t-59.5 52.5q-26 -45 -64.5 -58t-77.5 -13
q-32 0 -61 8t-50 26q-13 -124 -103.5 -192.5t-237.5 -68.5z" />
    <glyph glyph-name="uniFEB2#0#1" unicode="&#x633;" horiz-adv-x="1439" arabic-form="final" 
d="M343 -232q-96 0 -167 29.5t-110.5 87.5t-39.5 143q0 35 9.5 87.5t42.5 125.5l123 -43q-17 -47 -26 -80.5t-9 -65.5q0 -39 18 -72t58 -52.5t105 -19.5q80 0 125 23t63 62.5t18 86.5q0 41 -14.5 99t-37.5 128l140 36q14 -58 22.5 -90t13.5 -48q15 -45 40 -58.5t59 -12.5
q19 0 35 6t29.5 25.5t24.5 60.5t20 113l132 -21q-6 -35 -12 -74t-6 -60q0 -19 18.5 -34t73.5 -15q89 0 89 79q0 34 -2.5 77.5t-10.5 108.5l129 10q8 -93 18 -148t26.5 -82.5t42.5 -36t65 -8.5q38 0 54.5 -19.5t16.5 -48.5q0 -31 -21 -51.5t-60 -20.5q-52 0 -98 16.5
t-75 63.5q-18 -34 -46 -51t-60.5 -23t-64.5 -6q-56 0 -97.5 18.5t-59.5 52.5q-26 -45 -64.5 -58t-77.5 -13q-32 0 -61 8t-50 26q-13 -124 -103.5 -192.5t-237.5 -68.5z" />
    <glyph glyph-name="uniFEB4#0#1" unicode="&#x633;" horiz-adv-x="1019" arabic-form="medial" 
d="M0 -5l10 140q33 0 54 5.5t34.5 25t24 59t23.5 107.5l130 -24q-4 -22 -10.5 -55t-6.5 -57q0 -28 18 -44.5t67 -16.5q26 0 44.5 5.5t32 25t24 61t20.5 112.5l132 -21q-6 -35 -12 -74t-6 -59t18.5 -35t74.5 -15q88 0 88 79q0 34 -2.5 77.5t-10.5 108.5l129 10q7 -86 16 -140
t24.5 -83.5t42 -40.5t69.5 -11q38 0 54.5 -19.5t16.5 -48.5q0 -31 -20.5 -51.5t-60.5 -20.5q-33 0 -68 7t-65.5 29t-49.5 66q-22 -61 -64 -81.5t-109 -20.5q-53 0 -92 16.5t-55 56.5q-19 -32 -43 -47.5t-57 -20.5t-78 -5q-27 0 -53.5 4t-50 18.5t-39.5 46.5q-34 -45 -83 -57
t-111 -12z" />
    <glyph glyph-name="uniFEB3#0#1" unicode="&#x633;" horiz-adv-x="950" arabic-form="initial" 
d="M0 -5l10 140q33 0 54 5.5t34.5 25t24 59t23.5 107.5l130 -24q-4 -22 -10.5 -55t-6.5 -57q0 -28 18 -44.5t68 -16.5q25 0 43.5 5.5t32 25t24 61t20.5 112.5l132 -21q-6 -35 -12 -74t-6 -59q0 -19 18.5 -34.5t75.5 -15.5q40 0 63.5 16t23.5 56q0 37 -17 97t-40 126l141 42
q16 -43 28.5 -91.5t20 -94t7.5 -79.5q0 -103 -60.5 -157.5t-157.5 -54.5q-70 0 -109 16.5t-56 59.5q-20 -35 -43.5 -51t-55.5 -20.5t-76 -4.5q-27 0 -54 4.5t-51.5 19t-42.5 46.5q-34 -46 -83 -58t-111 -12z" />
    <glyph glyph-name="uni069A.init#0#1" unicode="&#x69a;" horiz-adv-x="950" 
d="M0 -5l10 140q33 0 54 5.5t34.5 25t24 59t23.5 107.5l130 -24q-4 -22 -10.5 -55t-6.5 -57q0 -28 18 -44.5t68 -16.5q25 0 43.5 5.5t32 25t24 61t20.5 112.5l132 -21q-6 -35 -12 -74t-6 -59q0 -19 18.5 -34.5t75.5 -15.5q40 0 63.5 16t23.5 56q0 37 -17 97t-40 126l141 42
q16 -43 28.5 -91.5t20 -94t7.5 -79.5q0 -103 -60.5 -157.5t-157.5 -54.5q-70 0 -109 16.5t-56 59.5q-20 -35 -43.5 -51t-55.5 -20.5t-76 -4.5q-27 0 -54 4.5t-51.5 19t-42.5 46.5q-34 -46 -83 -58t-111 -12zM472 -235q-29 0 -49.5 20t-20.5 49t20.5 50.5t49.5 21.5
t49.5 -21.5t20.5 -50.5t-20.5 -49t-49.5 -20zM516 482q-31 0 -52.5 21t-21.5 52t21.5 53t52.5 22q30 0 51.5 -22t21.5 -53t-21.5 -52t-51.5 -21z" />
    <glyph glyph-name="uni069A.medi#0#1" unicode="&#x69a;" horiz-adv-x="1019" 
d="M0 -5l10 140q33 0 54 5.5t34.5 25t24 59t23.5 107.5l130 -24q-4 -22 -10.5 -55t-6.5 -57q0 -28 18 -44.5t67 -16.5q26 0 44.5 5.5t32 25t24 61t20.5 112.5l132 -21q-6 -35 -12 -74t-6 -59t18.5 -35t74.5 -15q88 0 88 79q0 34 -2.5 77.5t-10.5 108.5l129 10q7 -86 16 -140
t24.5 -83.5t42 -40.5t69.5 -11q38 0 54.5 -19.5t16.5 -48.5q0 -31 -20.5 -51.5t-60.5 -20.5q-33 0 -68 7t-65.5 29t-49.5 66q-22 -61 -64 -81.5t-109 -20.5q-53 0 -92 16.5t-55 56.5q-19 -32 -43 -47.5t-57 -20.5t-78 -5q-27 0 -53.5 4t-50 18.5t-39.5 46.5q-34 -45 -83 -57
t-111 -12zM455 -235q-29 0 -49.5 20t-20.5 49t20.5 50.5t49.5 21.5t49.5 -21.5t20.5 -50.5t-20.5 -49t-49.5 -20zM506 482q-31 0 -52.5 21t-21.5 52t21.5 53t52.5 22q30 0 51.5 -22t21.5 -53t-21.5 -52t-51.5 -21z" />
    <glyph glyph-name="uni069A.fina#0#1" unicode="&#x69a;" horiz-adv-x="1439" 
d="M343 -232q-96 0 -167 29.5t-110.5 87.5t-39.5 143q0 35 9.5 87.5t42.5 125.5l123 -43q-17 -47 -26 -80.5t-9 -65.5q0 -39 18 -72t58 -52.5t105 -19.5q80 0 125 23t63 62.5t18 86.5q0 41 -14.5 99t-37.5 128l140 36q14 -58 22.5 -90t13.5 -48q15 -45 40 -58.5t59 -12.5
q19 0 35 6t29.5 25.5t24.5 60.5t20 113l132 -21q-6 -35 -12 -74t-6 -60q0 -19 18.5 -34t73.5 -15q89 0 89 79q0 34 -2.5 77.5t-10.5 108.5l129 10q8 -93 18 -148t26.5 -82.5t42.5 -36t65 -8.5q38 0 54.5 -19.5t16.5 -48.5q0 -31 -21 -51.5t-60 -20.5q-52 0 -98 16.5
t-75 63.5q-18 -34 -46 -51t-60.5 -23t-64.5 -6q-56 0 -97.5 18.5t-59.5 52.5q-26 -45 -64.5 -58t-77.5 -13q-32 0 -61 8t-50 26q-13 -124 -103.5 -192.5t-237.5 -68.5zM935 -230q-29 0 -49.5 20t-20.5 49t20.5 50.5t49.5 21.5t49.5 -21.5t20.5 -50.5t-20.5 -49t-49.5 -20z
M882 482q-31 0 -52.5 21t-21.5 52t21.5 53t52.5 22q30 0 51.5 -22t21.5 -53t-21.5 -52t-51.5 -21z" />
    <glyph glyph-name="uni069B.init#0#1" unicode="&#x69b;" horiz-adv-x="950" 
d="M0 -5l10 140q33 0 54 5.5t34.5 25t24 59t23.5 107.5l130 -24q-4 -22 -10.5 -55t-6.5 -57q0 -28 18 -44.5t68 -16.5q25 0 43.5 5.5t32 25t24 61t20.5 112.5l132 -21q-6 -35 -12 -74t-6 -59q0 -19 18.5 -34.5t75.5 -15.5q40 0 63.5 16t23.5 56q0 37 -17 97t-40 126l141 42
q16 -43 28.5 -91.5t20 -94t7.5 -79.5q0 -103 -60.5 -157.5t-157.5 -54.5q-70 0 -109 16.5t-56 59.5q-20 -35 -43.5 -51t-55.5 -20.5t-76 -4.5q-27 0 -54 4.5t-51.5 19t-42.5 46.5q-34 -46 -83 -58t-111 -12zM400 -224q-26 0 -44.5 18t-18.5 44t18.5 45t44.5 19t44 -19
t18 -45t-18 -44t-44 -18zM556 -224q-26 0 -44.5 18t-18.5 44t18.5 45t44.5 19t44 -19t18 -45t-18 -44t-44 -18zM476 -356q-26 0 -44.5 18t-18.5 44t18.5 45t44.5 19t44 -19t18 -45t-18 -44t-44 -18z" />
    <glyph glyph-name="uni069B.medi#0#1" unicode="&#x69b;" horiz-adv-x="1019" 
d="M0 -5l10 140q33 0 54 5.5t34.5 25t24 59t23.5 107.5l130 -24q-4 -22 -10.5 -55t-6.5 -57q0 -28 18 -44.5t67 -16.5q26 0 44.5 5.5t32 25t24 61t20.5 112.5l132 -21q-6 -35 -12 -74t-6 -59t18.5 -35t74.5 -15q88 0 88 79q0 34 -2.5 77.5t-10.5 108.5l129 10q7 -86 16 -140
t24.5 -83.5t42 -40.5t69.5 -11q38 0 54.5 -19.5t16.5 -48.5q0 -31 -20.5 -51.5t-60.5 -20.5q-33 0 -68 7t-65.5 29t-49.5 66q-22 -61 -64 -81.5t-109 -20.5q-53 0 -92 16.5t-55 56.5q-19 -32 -43 -47.5t-57 -20.5t-78 -5q-27 0 -53.5 4t-50 18.5t-39.5 46.5q-34 -45 -83 -57
t-111 -12zM383 -224q-26 0 -44.5 18t-18.5 44t18.5 45t44.5 19t44 -19t18 -45t-18 -44t-44 -18zM539 -224q-26 0 -44.5 18t-18.5 44t18.5 45t44.5 19t44 -19t18 -45t-18 -44t-44 -18zM459 -356q-26 0 -44.5 18t-18.5 44t18.5 45t44.5 19t44 -19t18 -45t-18 -44t-44 -18z" />
    <glyph glyph-name="uni069B.fina#0#1" unicode="&#x69b;" horiz-adv-x="1439" 
d="M343 -232q-96 0 -167 29.5t-110.5 87.5t-39.5 143q0 35 9.5 87.5t42.5 125.5l123 -43q-17 -47 -26 -80.5t-9 -65.5q0 -39 18 -72t58 -52.5t105 -19.5q80 0 125 23t63 62.5t18 86.5q0 41 -14.5 99t-37.5 128l140 36q14 -58 22.5 -90t13.5 -48q15 -45 40 -58.5t59 -12.5
q19 0 35 6t29.5 25.5t24.5 60.5t20 113l132 -21q-6 -35 -12 -74t-6 -60q0 -19 18.5 -34t73.5 -15q89 0 89 79q0 34 -2.5 77.5t-10.5 108.5l129 10q8 -93 18 -148t26.5 -82.5t42.5 -36t65 -8.5q38 0 54.5 -19.5t16.5 -48.5q0 -31 -21 -51.5t-60 -20.5q-52 0 -98 16.5
t-75 63.5q-18 -34 -46 -51t-60.5 -23t-64.5 -6q-56 0 -97.5 18.5t-59.5 52.5q-26 -45 -64.5 -58t-77.5 -13q-32 0 -61 8t-50 26q-13 -124 -103.5 -192.5t-237.5 -68.5zM270 -427q-26 0 -44.5 18t-18.5 44t18.5 45t44.5 19t44 -19t18 -45t-18 -44t-44 -18zM426 -427
q-26 0 -44.5 18t-18.5 44t18.5 45t44.5 19t44 -19t18 -45t-18 -44t-44 -18zM346 -559q-26 0 -44.5 18t-18.5 44t18.5 45t44.5 19t44 -19t18 -45t-18 -44t-44 -18z" />
    <glyph glyph-name="uniFEB5#0#1" unicode="&#x634;" horiz-adv-x="1370" arabic-form="isolated" 
d="M343 -232q-96 0 -167 29.5t-110.5 87.5t-39.5 143q0 35 9.5 87.5t42.5 125.5l123 -43q-17 -47 -26 -80.5t-9 -65.5q0 -39 18 -72t58 -52.5t105 -19.5q80 0 125 23t63 62.5t18 86.5q0 41 -14.5 99t-37.5 128l140 36q14 -58 22.5 -90t13.5 -48q15 -45 40 -58.5t59 -12.5
q19 0 35 6t29.5 25.5t24.5 60.5t20 113l132 -21q-6 -35 -12 -74t-6 -60q0 -19 18.5 -34t73.5 -15q41 0 65 14t24 57q0 38 -17 98t-40 126l141 42q16 -43 28.5 -91.5t20 -94t7.5 -79.5q0 -106 -61 -159t-165 -53q-56 0 -97.5 18.5t-59.5 52.5q-26 -45 -64.5 -58t-77.5 -13
q-32 0 -61 8t-50 26q-13 -124 -103.5 -192.5t-237.5 -68.5zM889 614q-25 0 -43.5 19t-18.5 45t18.5 44t43.5 18q26 0 44 -18t18 -44t-18 -45t-44 -19zM809 482q-25 0 -43.5 19t-18.5 45t18.5 44t43.5 18q26 0 44 -18t18 -44t-18 -45t-44 -19zM964 482q-25 0 -43.5 19
t-18.5 45t18.5 44t43.5 18q26 0 44 -18t18 -44t-18 -45t-44 -19z" />
    <glyph glyph-name="uniFEB6#0#1" unicode="&#x634;" horiz-adv-x="1439" arabic-form="final" 
d="M343 -232q-96 0 -167 29.5t-110.5 87.5t-39.5 143q0 35 9.5 87.5t42.5 125.5l123 -43q-17 -47 -26 -80.5t-9 -65.5q0 -39 18 -72t58 -52.5t105 -19.5q80 0 125 23t63 62.5t18 86.5q0 41 -14.5 99t-37.5 128l140 36q14 -58 22.5 -90t13.5 -48q15 -45 40 -58.5t59 -12.5
q19 0 35 6t29.5 25.5t24.5 60.5t20 113l132 -21q-6 -35 -12 -74t-6 -60q0 -19 18.5 -34t73.5 -15q89 0 89 79q0 34 -2.5 77.5t-10.5 108.5l129 10q8 -93 18 -148t26.5 -82.5t42.5 -36t65 -8.5q38 0 54.5 -19.5t16.5 -48.5q0 -31 -21 -51.5t-60 -20.5q-52 0 -98 16.5
t-75 63.5q-18 -34 -46 -51t-60.5 -23t-64.5 -6q-56 0 -97.5 18.5t-59.5 52.5q-26 -45 -64.5 -58t-77.5 -13q-32 0 -61 8t-50 26q-13 -124 -103.5 -192.5t-237.5 -68.5zM889 614q-25 0 -43.5 19t-18.5 45t18.5 44t43.5 18q26 0 44 -18t18 -44t-18 -45t-44 -19zM809 482
q-25 0 -43.5 19t-18.5 45t18.5 44t43.5 18q26 0 44 -18t18 -44t-18 -45t-44 -19zM964 482q-25 0 -43.5 19t-18.5 45t18.5 44t43.5 18q26 0 44 -18t18 -44t-18 -45t-44 -19z" />
    <glyph glyph-name="uniFEB8#0#1" unicode="&#x634;" horiz-adv-x="1019" arabic-form="medial" 
d="M0 -5l10 140q33 0 54 5.5t34.5 25t24 59t23.5 107.5l130 -24q-4 -22 -10.5 -55t-6.5 -57q0 -28 18 -44.5t67 -16.5q26 0 44.5 5.5t32 25t24 61t20.5 112.5l132 -21q-6 -35 -12 -74t-6 -59t18.5 -35t74.5 -15q88 0 88 79q0 34 -2.5 77.5t-10.5 108.5l129 10q7 -86 16 -140
t24.5 -83.5t42 -40.5t69.5 -11q38 0 54.5 -19.5t16.5 -48.5q0 -31 -20.5 -51.5t-60.5 -20.5q-33 0 -68 7t-65.5 29t-49.5 66q-22 -61 -64 -81.5t-109 -20.5q-53 0 -92 16.5t-55 56.5q-19 -32 -43 -47.5t-57 -20.5t-78 -5q-27 0 -53.5 4t-50 18.5t-39.5 46.5q-34 -45 -83 -57
t-111 -12zM513 614q-25 0 -43.5 19t-18.5 45t18.5 44t43.5 18q26 0 44 -18t18 -44t-18 -45t-44 -19zM433 482q-25 0 -43.5 19t-18.5 45t18.5 44t43.5 18q26 0 44 -18t18 -44t-18 -45t-44 -19zM588 482q-25 0 -43.5 19t-18.5 45t18.5 44t43.5 18q26 0 44 -18t18 -44t-18 -45
t-44 -19z" />
    <glyph glyph-name="uniFEB7#0#1" unicode="&#x634;" horiz-adv-x="950" arabic-form="initial" 
d="M0 -5l10 140q33 0 54 5.5t34.5 25t24 59t23.5 107.5l130 -24q-4 -22 -10.5 -55t-6.5 -57q0 -28 18 -44.5t68 -16.5q25 0 43.5 5.5t32 25t24 61t20.5 112.5l132 -21q-6 -35 -12 -74t-6 -59q0 -19 18.5 -34.5t75.5 -15.5q40 0 63.5 16t23.5 56q0 37 -17 97t-40 126l141 42
q16 -43 28.5 -91.5t20 -94t7.5 -79.5q0 -103 -60.5 -157.5t-157.5 -54.5q-70 0 -109 16.5t-56 59.5q-20 -35 -43.5 -51t-55.5 -20.5t-76 -4.5q-27 0 -54 4.5t-51.5 19t-42.5 46.5q-34 -46 -83 -58t-111 -12zM523 614q-25 0 -43.5 19t-18.5 45t18.5 44t43.5 18q26 0 44 -18
t18 -44t-18 -45t-44 -19zM443 482q-25 0 -43.5 19t-18.5 45t18.5 44t43.5 18q26 0 44 -18t18 -44t-18 -45t-44 -19zM598 482q-25 0 -43.5 19t-18.5 45t18.5 44t43.5 18q26 0 44 -18t18 -44t-18 -45t-44 -19z" />
    <glyph glyph-name="uni06FA.init#0#1" unicode="&#x6fa;" horiz-adv-x="950" 
d="M0 -5l10 140q33 0 54 5.5t34.5 25t24 59t23.5 107.5l130 -24q-4 -22 -10.5 -55t-6.5 -57q0 -28 18 -44.5t68 -16.5q25 0 43.5 5.5t32 25t24 61t20.5 112.5l132 -21q-6 -35 -12 -74t-6 -59q0 -19 18.5 -34.5t75.5 -15.5q40 0 63.5 16t23.5 56q0 37 -17 97t-40 126l141 42
q16 -43 28.5 -91.5t20 -94t7.5 -79.5q0 -103 -60.5 -157.5t-157.5 -54.5q-70 0 -109 16.5t-56 59.5q-20 -35 -43.5 -51t-55.5 -20.5t-76 -4.5q-27 0 -54 4.5t-51.5 19t-42.5 46.5q-34 -46 -83 -58t-111 -12zM523 614q-25 0 -43.5 19t-18.5 45t18.5 44t43.5 18q26 0 44 -18
t18 -44t-18 -45t-44 -19zM443 482q-25 0 -43.5 19t-18.5 45t18.5 44t43.5 18q26 0 44 -18t18 -44t-18 -45t-44 -19zM598 482q-25 0 -43.5 19t-18.5 45t18.5 44t43.5 18q26 0 44 -18t18 -44t-18 -45t-44 -19zM472 -235q-29 0 -49.5 20t-20.5 49t20.5 50.5t49.5 21.5
t49.5 -21.5t20.5 -50.5t-20.5 -49t-49.5 -20z" />
    <glyph glyph-name="uni06FA.medi#0#1" unicode="&#x6fa;" horiz-adv-x="1019" 
d="M0 -5l10 140q33 0 54 5.5t34.5 25t24 59t23.5 107.5l130 -24q-4 -22 -10.5 -55t-6.5 -57q0 -28 18 -44.5t67 -16.5q26 0 44.5 5.5t32 25t24 61t20.5 112.5l132 -21q-6 -35 -12 -74t-6 -59t18.5 -35t74.5 -15q88 0 88 79q0 34 -2.5 77.5t-10.5 108.5l129 10q7 -86 16 -140
t24.5 -83.5t42 -40.5t69.5 -11q38 0 54.5 -19.5t16.5 -48.5q0 -31 -20.5 -51.5t-60.5 -20.5q-33 0 -68 7t-65.5 29t-49.5 66q-22 -61 -64 -81.5t-109 -20.5q-53 0 -92 16.5t-55 56.5q-19 -32 -43 -47.5t-57 -20.5t-78 -5q-27 0 -53.5 4t-50 18.5t-39.5 46.5q-34 -45 -83 -57
t-111 -12zM513 614q-25 0 -43.5 19t-18.5 45t18.5 44t43.5 18q26 0 44 -18t18 -44t-18 -45t-44 -19zM433 482q-25 0 -43.5 19t-18.5 45t18.5 44t43.5 18q26 0 44 -18t18 -44t-18 -45t-44 -19zM588 482q-25 0 -43.5 19t-18.5 45t18.5 44t43.5 18q26 0 44 -18t18 -44t-18 -45
t-44 -19zM455 -235q-29 0 -49.5 20t-20.5 49t20.5 50.5t49.5 21.5t49.5 -21.5t20.5 -50.5t-20.5 -49t-49.5 -20z" />
    <glyph glyph-name="uni06FA.fina#0#1" unicode="&#x6fa;" horiz-adv-x="1439" 
d="M343 -232q-96 0 -167 29.5t-110.5 87.5t-39.5 143q0 35 9.5 87.5t42.5 125.5l123 -43q-17 -47 -26 -80.5t-9 -65.5q0 -39 18 -72t58 -52.5t105 -19.5q80 0 125 23t63 62.5t18 86.5q0 41 -14.5 99t-37.5 128l140 36q14 -58 22.5 -90t13.5 -48q15 -45 40 -58.5t59 -12.5
q19 0 35 6t29.5 25.5t24.5 60.5t20 113l132 -21q-6 -35 -12 -74t-6 -60q0 -19 18.5 -34t73.5 -15q89 0 89 79q0 34 -2.5 77.5t-10.5 108.5l129 10q8 -93 18 -148t26.5 -82.5t42.5 -36t65 -8.5q38 0 54.5 -19.5t16.5 -48.5q0 -31 -21 -51.5t-60 -20.5q-52 0 -98 16.5
t-75 63.5q-18 -34 -46 -51t-60.5 -23t-64.5 -6q-56 0 -97.5 18.5t-59.5 52.5q-26 -45 -64.5 -58t-77.5 -13q-32 0 -61 8t-50 26q-13 -124 -103.5 -192.5t-237.5 -68.5zM889 614q-25 0 -43.5 19t-18.5 45t18.5 44t43.5 18q26 0 44 -18t18 -44t-18 -45t-44 -19zM809 482
q-25 0 -43.5 19t-18.5 45t18.5 44t43.5 18q26 0 44 -18t18 -44t-18 -45t-44 -19zM964 482q-25 0 -43.5 19t-18.5 45t18.5 44t43.5 18q26 0 44 -18t18 -44t-18 -45t-44 -19zM935 -230q-29 0 -49.5 20t-20.5 49t20.5 50.5t49.5 21.5t49.5 -21.5t20.5 -50.5t-20.5 -49
t-49.5 -20z" />
    <glyph glyph-name="seenThrdotsblwthrdotsar.init#0#1" unicode="&#x69c;" horiz-adv-x="950" 
d="M0 -5l10 140q33 0 54 5.5t34.5 25t24 59t23.5 107.5l130 -24q-4 -22 -10.5 -55t-6.5 -57q0 -28 18 -44.5t68 -16.5q25 0 43.5 5.5t32 25t24 61t20.5 112.5l132 -21q-6 -35 -12 -74t-6 -59q0 -19 18.5 -34.5t75.5 -15.5q40 0 63.5 16t23.5 56q0 37 -17 97t-40 126l141 42
q16 -43 28.5 -91.5t20 -94t7.5 -79.5q0 -103 -60.5 -157.5t-157.5 -54.5q-70 0 -109 16.5t-56 59.5q-20 -35 -43.5 -51t-55.5 -20.5t-76 -4.5q-27 0 -54 4.5t-51.5 19t-42.5 46.5q-34 -46 -83 -58t-111 -12zM523 614q-25 0 -43.5 19t-18.5 45t18.5 44t43.5 18q26 0 44 -18
t18 -44t-18 -45t-44 -19zM443 482q-25 0 -43.5 19t-18.5 45t18.5 44t43.5 18q26 0 44 -18t18 -44t-18 -45t-44 -19zM598 482q-25 0 -43.5 19t-18.5 45t18.5 44t43.5 18q26 0 44 -18t18 -44t-18 -45t-44 -19zM400 -224q-26 0 -44.5 18t-18.5 44t18.5 45t44.5 19t44 -19
t18 -45t-18 -44t-44 -18zM556 -224q-26 0 -44.5 18t-18.5 44t18.5 45t44.5 19t44 -19t18 -45t-18 -44t-44 -18zM476 -356q-26 0 -44.5 18t-18.5 44t18.5 45t44.5 19t44 -19t18 -45t-18 -44t-44 -18z" />
    <glyph glyph-name="seenThrdotsblwthrdotsar.medi#0#1" unicode="&#x69c;" horiz-adv-x="1019" 
d="M0 -5l10 140q33 0 54 5.5t34.5 25t24 59t23.5 107.5l130 -24q-4 -22 -10.5 -55t-6.5 -57q0 -28 18 -44.5t67 -16.5q26 0 44.5 5.5t32 25t24 61t20.5 112.5l132 -21q-6 -35 -12 -74t-6 -59t18.5 -35t74.5 -15q88 0 88 79q0 34 -2.5 77.5t-10.5 108.5l129 10q7 -86 16 -140
t24.5 -83.5t42 -40.5t69.5 -11q38 0 54.5 -19.5t16.5 -48.5q0 -31 -20.5 -51.5t-60.5 -20.5q-33 0 -68 7t-65.5 29t-49.5 66q-22 -61 -64 -81.5t-109 -20.5q-53 0 -92 16.5t-55 56.5q-19 -32 -43 -47.5t-57 -20.5t-78 -5q-27 0 -53.5 4t-50 18.5t-39.5 46.5q-34 -45 -83 -57
t-111 -12zM513 614q-25 0 -43.5 19t-18.5 45t18.5 44t43.5 18q26 0 44 -18t18 -44t-18 -45t-44 -19zM433 482q-25 0 -43.5 19t-18.5 45t18.5 44t43.5 18q26 0 44 -18t18 -44t-18 -45t-44 -19zM588 482q-25 0 -43.5 19t-18.5 45t18.5 44t43.5 18q26 0 44 -18t18 -44t-18 -45
t-44 -19zM383 -224q-26 0 -44.5 18t-18.5 44t18.5 45t44.5 19t44 -19t18 -45t-18 -44t-44 -18zM539 -224q-26 0 -44.5 18t-18.5 44t18.5 45t44.5 19t44 -19t18 -45t-18 -44t-44 -18zM459 -356q-26 0 -44.5 18t-18.5 44t18.5 45t44.5 19t44 -19t18 -45t-18 -44t-44 -18z" />
    <glyph glyph-name="seenThrdotsblwthrdotsar.fina#0#1" unicode="&#x69c;" horiz-adv-x="1439" 
d="M343 -232q-96 0 -167 29.5t-110.5 87.5t-39.5 143q0 35 9.5 87.5t42.5 125.5l123 -43q-17 -47 -26 -80.5t-9 -65.5q0 -39 18 -72t58 -52.5t105 -19.5q80 0 125 23t63 62.5t18 86.5q0 41 -14.5 99t-37.5 128l140 36q14 -58 22.5 -90t13.5 -48q15 -45 40 -58.5t59 -12.5
q19 0 35 6t29.5 25.5t24.5 60.5t20 113l132 -21q-6 -35 -12 -74t-6 -60q0 -19 18.5 -34t73.5 -15q89 0 89 79q0 34 -2.5 77.5t-10.5 108.5l129 10q8 -93 18 -148t26.5 -82.5t42.5 -36t65 -8.5q38 0 54.5 -19.5t16.5 -48.5q0 -31 -21 -51.5t-60 -20.5q-52 0 -98 16.5
t-75 63.5q-18 -34 -46 -51t-60.5 -23t-64.5 -6q-56 0 -97.5 18.5t-59.5 52.5q-26 -45 -64.5 -58t-77.5 -13q-32 0 -61 8t-50 26q-13 -124 -103.5 -192.5t-237.5 -68.5zM889 614q-25 0 -43.5 19t-18.5 45t18.5 44t43.5 18q26 0 44 -18t18 -44t-18 -45t-44 -19zM809 482
q-25 0 -43.5 19t-18.5 45t18.5 44t43.5 18q26 0 44 -18t18 -44t-18 -45t-44 -19zM964 482q-25 0 -43.5 19t-18.5 45t18.5 44t43.5 18q26 0 44 -18t18 -44t-18 -45t-44 -19zM270 -427q-26 0 -44.5 18t-18.5 44t18.5 45t44.5 19t44 -19t18 -45t-18 -44t-44 -18zM426 -427
q-26 0 -44.5 18t-18.5 44t18.5 45t44.5 19t44 -19t18 -45t-18 -44t-44 -18zM346 -559q-26 0 -44.5 18t-18.5 44t18.5 45t44.5 19t44 -19t18 -45t-18 -44t-44 -18z" />
    <glyph glyph-name="uniFEB9#0#1" unicode="&#x635;" horiz-adv-x="1422" arabic-form="isolated" 
d="M342 -231q-89 0 -160.5 29t-113.5 87t-42 143q0 35 9.5 87.5t42.5 125.5l123 -43q-17 -47 -26 -80.5t-9 -65.5q0 -60 47.5 -101.5t132.5 -41.5q108 0 157.5 43.5t49.5 125.5q0 43 -16 101t-36 128l140 36q14 -58 22 -90.5t14 -47.5q9 -22 25.5 -37.5t52.5 -25.5
q37 57 83.5 110t100.5 95.5t112.5 67.5t119.5 25q67 0 114 -26.5t72.5 -72.5t25.5 -105q0 -73 -41 -129t-132.5 -88t-244.5 -32q-81 0 -154.5 12.5t-120.5 38.5q-9 -84 -54 -144t-120 -92.5t-174 -32.5zM1158 300q-46 0 -93 -27t-89 -67t-73 -78q23 -1 50 -1q110 0 173 12.5
t90 34.5t27 52q0 26 -20 50t-65 24z" />
    <glyph glyph-name="uniFEBA#0#1" unicode="&#x635;" horiz-adv-x="1442" arabic-form="final" 
d="M342 -231q-89 0 -160.5 29t-113.5 87t-42 143q0 35 9.5 87.5t42.5 125.5l123 -43q-17 -47 -26 -80.5t-9 -65.5q0 -60 47.5 -101.5t132.5 -41.5q108 0 157.5 43.5t49.5 125.5q0 43 -16 101t-36 128l140 36q14 -58 22 -90.5t14 -47.5q9 -22 25.5 -37.5t52.5 -25.5
q37 57 83.5 110t100.5 95.5t112.5 67.5t119.5 25q67 0 114 -26.5t72.5 -72.5t25.5 -105q0 -73 -41 -129t-132.5 -88t-244.5 -32q-81 0 -154.5 12.5t-120.5 38.5q-9 -84 -54 -144t-120 -92.5t-174 -32.5zM1158 300q-46 0 -93 -27t-89 -67t-73 -78q23 -1 50 -1q110 0 173 12.5
t90 34.5t27 52q0 26 -20 50t-65 24zM1441 -5q-77 0 -143 20.5t-101 50.5l90 97q36 -15 74 -21.5t90 -6.5q38 0 54.5 -19.5t16.5 -48.5q0 -31 -21 -51.5t-60 -20.5z" />
    <glyph glyph-name="uniFEBC#0#1" unicode="&#x635;" horiz-adv-x="1004" arabic-form="medial" 
d="M518 -18q-112 0 -179 12t-103.5 33t-55.5 49q-37 -53 -84 -67t-96 -14l10 140q41 0 60.5 18.5t32 61.5t31.5 117l127 -31q-21 -81 -21 -105q0 -23 12.5 -38t52.5 -24q39 60 87 114.5t102 96.5t112 66t118 24q101 0 156 -57t55 -147q0 -73 -41.5 -129t-133 -88t-242.5 -32
zM710 295q-44 0 -88.5 -25t-86 -65t-74.5 -83h32q116 0 181.5 11t93 33.5t27.5 54.5q0 28 -20 51t-65 23zM1003 -5q-77 0 -143 20.5t-101 50.5l90 97q36 -15 74 -21.5t90 -6.5q38 0 54.5 -19.5t16.5 -48.5q0 -31 -21 -51.5t-60 -20.5z" />
    <glyph glyph-name="uniFEBB#0#1" unicode="&#x635;" horiz-adv-x="974" arabic-form="initial" 
d="M518 -18q-112 0 -179 12t-103.5 33t-55.5 49q-37 -53 -84 -67t-96 -14l10 140q41 0 60.5 18.5t32 61.5t31.5 117l127 -31q-21 -81 -21 -105q0 -23 12.5 -38t52.5 -24q39 60 87 114.5t102 96.5t112 66t118 24q101 0 156 -57t55 -147q0 -73 -41.5 -129t-133 -88t-242.5 -32
zM710 295q-44 0 -88.5 -25t-86 -65t-74.5 -83h32q116 0 181.5 11t93 33.5t27.5 54.5q0 28 -20 51t-65 23z" />
    <glyph glyph-name="uni069D.init#0#1" unicode="&#x69d;" horiz-adv-x="974" 
d="M518 -18q-112 0 -179 12t-103.5 33t-55.5 49q-37 -53 -84 -67t-96 -14l10 140q41 0 60.5 18.5t32 61.5t31.5 117l127 -31q-21 -81 -21 -105q0 -23 12.5 -38t52.5 -24q39 60 87 114.5t102 96.5t112 66t118 24q101 0 156 -57t55 -147q0 -73 -41.5 -129t-133 -88t-242.5 -32
zM710 295q-44 0 -88.5 -25t-86 -65t-74.5 -83h32q116 0 181.5 11t93 33.5t27.5 54.5q0 28 -20 51t-65 23zM609 -250q-29 0 -49.5 20.5t-20.5 48.5q0 29 20.5 50t49.5 21q28 0 48 -21t20 -50q0 -28 -20 -48.5t-48 -20.5zM436 -250q-29 0 -49.5 20.5t-20.5 48.5q0 29 20.5 50
t49.5 21q28 0 48 -21t20 -50q0 -28 -20 -48.5t-48 -20.5z" />
    <glyph glyph-name="uni069D.medi#0#1" unicode="&#x69d;" horiz-adv-x="1004" 
d="M518 -18q-112 0 -179 12t-103.5 33t-55.5 49q-37 -53 -84 -67t-96 -14l10 140q41 0 60.5 18.5t32 61.5t31.5 117l127 -31q-21 -81 -21 -105q0 -23 12.5 -38t52.5 -24q39 60 87 114.5t102 96.5t112 66t118 24q101 0 156 -57t55 -147q0 -73 -41.5 -129t-133 -88t-242.5 -32
zM710 295q-44 0 -88.5 -25t-86 -65t-74.5 -83h32q116 0 181.5 11t93 33.5t27.5 54.5q0 28 -20 51t-65 23zM1003 -5q-77 0 -143 20.5t-101 50.5l90 97q36 -15 74 -21.5t90 -6.5q38 0 54.5 -19.5t16.5 -48.5q0 -31 -21 -51.5t-60 -20.5zM609 -250q-29 0 -49.5 20.5t-20.5 48.5
q0 29 20.5 50t49.5 21q28 0 48 -21t20 -50q0 -28 -20 -48.5t-48 -20.5zM436 -250q-29 0 -49.5 20.5t-20.5 48.5q0 29 20.5 50t49.5 21q28 0 48 -21t20 -50q0 -28 -20 -48.5t-48 -20.5z" />
    <glyph glyph-name="uni069D.fina#0#1" unicode="&#x69d;" horiz-adv-x="1442" 
d="M342 -231q-89 0 -160.5 29t-113.5 87t-42 143q0 35 9.5 87.5t42.5 125.5l123 -43q-17 -47 -26 -80.5t-9 -65.5q0 -60 47.5 -101.5t132.5 -41.5q108 0 157.5 43.5t49.5 125.5q0 43 -16 101t-36 128l140 36q14 -58 22 -90.5t14 -47.5q9 -22 25.5 -37.5t52.5 -25.5
q37 57 83.5 110t100.5 95.5t112.5 67.5t119.5 25q67 0 114 -26.5t72.5 -72.5t25.5 -105q0 -73 -41 -129t-132.5 -88t-244.5 -32q-81 0 -154.5 12.5t-120.5 38.5q-9 -84 -54 -144t-120 -92.5t-174 -32.5zM1158 300q-46 0 -93 -27t-89 -67t-73 -78q23 -1 50 -1q110 0 173 12.5
t90 34.5t27 52q0 26 -20 50t-65 24zM1441 -5q-77 0 -143 20.5t-101 50.5l90 97q36 -15 74 -21.5t90 -6.5q38 0 54.5 -19.5t16.5 -48.5q0 -31 -21 -51.5t-60 -20.5zM1044 -245q-29 0 -49.5 20.5t-20.5 48.5q0 29 20.5 50t49.5 21q28 0 48 -21t20 -50q0 -28 -20 -48.5
t-48 -20.5zM871 -245q-29 0 -49.5 20.5t-20.5 48.5q0 29 20.5 50t49.5 21q28 0 48 -21t20 -50q0 -28 -20 -48.5t-48 -20.5z" />
    <glyph glyph-name="uni069E.init#0#1" unicode="&#x69e;" horiz-adv-x="974" 
d="M518 -18q-112 0 -179 12t-103.5 33t-55.5 49q-37 -53 -84 -67t-96 -14l10 140q41 0 60.5 18.5t32 61.5t31.5 117l127 -31q-21 -81 -21 -105q0 -23 12.5 -38t52.5 -24q39 60 87 114.5t102 96.5t112 66t118 24q101 0 156 -57t55 -147q0 -73 -41.5 -129t-133 -88t-242.5 -32
zM710 295q-44 0 -88.5 -25t-86 -65t-74.5 -83h32q116 0 181.5 11t93 33.5t27.5 54.5q0 28 -20 51t-65 23zM702 660q-25 0 -43.5 19t-18.5 45t18.5 44t43.5 18q26 0 44 -18t18 -44t-18 -45t-44 -19zM622 528q-25 0 -43.5 19t-18.5 45t18.5 44t43.5 18q26 0 44 -18t18 -44
t-18 -45t-44 -19zM777 528q-25 0 -43.5 19t-18.5 45t18.5 44t43.5 18q26 0 44 -18t18 -44t-18 -45t-44 -19z" />
    <glyph glyph-name="uni069E.medi#0#1" unicode="&#x69e;" horiz-adv-x="1004" 
d="M518 -18q-112 0 -179 12t-103.5 33t-55.5 49q-37 -53 -84 -67t-96 -14l10 140q41 0 60.5 18.5t32 61.5t31.5 117l127 -31q-21 -81 -21 -105q0 -23 12.5 -38t52.5 -24q39 60 87 114.5t102 96.5t112 66t118 24q101 0 156 -57t55 -147q0 -73 -41.5 -129t-133 -88t-242.5 -32
zM710 295q-44 0 -88.5 -25t-86 -65t-74.5 -83h32q116 0 181.5 11t93 33.5t27.5 54.5q0 28 -20 51t-65 23zM1003 -5q-77 0 -143 20.5t-101 50.5l90 97q36 -15 74 -21.5t90 -6.5q38 0 54.5 -19.5t16.5 -48.5q0 -31 -21 -51.5t-60 -20.5zM702 660q-25 0 -43.5 19t-18.5 45
t18.5 44t43.5 18q26 0 44 -18t18 -44t-18 -45t-44 -19zM622 528q-25 0 -43.5 19t-18.5 45t18.5 44t43.5 18q26 0 44 -18t18 -44t-18 -45t-44 -19zM777 528q-25 0 -43.5 19t-18.5 45t18.5 44t43.5 18q26 0 44 -18t18 -44t-18 -45t-44 -19z" />
    <glyph glyph-name="uni069E.fina#0#1" unicode="&#x69e;" horiz-adv-x="1442" 
d="M342 -231q-89 0 -160.5 29t-113.5 87t-42 143q0 35 9.5 87.5t42.5 125.5l123 -43q-17 -47 -26 -80.5t-9 -65.5q0 -60 47.5 -101.5t132.5 -41.5q108 0 157.5 43.5t49.5 125.5q0 43 -16 101t-36 128l140 36q14 -58 22 -90.5t14 -47.5q9 -22 25.5 -37.5t52.5 -25.5
q37 57 83.5 110t100.5 95.5t112.5 67.5t119.5 25q67 0 114 -26.5t72.5 -72.5t25.5 -105q0 -73 -41 -129t-132.5 -88t-244.5 -32q-81 0 -154.5 12.5t-120.5 38.5q-9 -84 -54 -144t-120 -92.5t-174 -32.5zM1158 300q-46 0 -93 -27t-89 -67t-73 -78q23 -1 50 -1q110 0 173 12.5
t90 34.5t27 52q0 26 -20 50t-65 24zM1441 -5q-77 0 -143 20.5t-101 50.5l90 97q36 -15 74 -21.5t90 -6.5q38 0 54.5 -19.5t16.5 -48.5q0 -31 -21 -51.5t-60 -20.5zM1142 662q-25 0 -43.5 19t-18.5 45t18.5 44t43.5 18q26 0 44 -18t18 -44t-18 -45t-44 -19zM1062 530
q-25 0 -43.5 19t-18.5 45t18.5 44t43.5 18q26 0 44 -18t18 -44t-18 -45t-44 -19zM1217 530q-25 0 -43.5 19t-18.5 45t18.5 44t43.5 18q26 0 44 -18t18 -44t-18 -45t-44 -19z" />
    <glyph glyph-name="uniFEBD#0#1" unicode="&#x636;" horiz-adv-x="1422" arabic-form="isolated" 
d="M342 -231q-89 0 -160.5 29t-113.5 87t-42 143q0 35 9.5 87.5t42.5 125.5l123 -43q-17 -47 -26 -80.5t-9 -65.5q0 -60 47.5 -101.5t132.5 -41.5q108 0 157.5 43.5t49.5 125.5q0 43 -16 101t-36 128l140 36q14 -58 22 -90.5t14 -47.5q9 -22 25.5 -37.5t52.5 -25.5
q37 57 83.5 110t100.5 95.5t112.5 67.5t119.5 25q67 0 114 -26.5t72.5 -72.5t25.5 -105q0 -73 -41 -129t-132.5 -88t-244.5 -32q-81 0 -154.5 12.5t-120.5 38.5q-9 -84 -54 -144t-120 -92.5t-174 -32.5zM1158 300q-46 0 -93 -27t-89 -67t-73 -78q23 -1 50 -1q110 0 173 12.5
t90 34.5t27 52q0 26 -20 50t-65 24zM1135 530q-31 0 -52.5 21t-21.5 52t21.5 53t52.5 22q30 0 51.5 -22t21.5 -53t-21.5 -52t-51.5 -21z" />
    <glyph glyph-name="uniFEBE#0#1" unicode="&#x636;" horiz-adv-x="1442" arabic-form="final" 
d="M342 -231q-89 0 -160.5 29t-113.5 87t-42 143q0 35 9.5 87.5t42.5 125.5l123 -43q-17 -47 -26 -80.5t-9 -65.5q0 -60 47.5 -101.5t132.5 -41.5q108 0 157.5 43.5t49.5 125.5q0 43 -16 101t-36 128l140 36q14 -58 22 -90.5t14 -47.5q9 -22 25.5 -37.5t52.5 -25.5
q37 57 83.5 110t100.5 95.5t112.5 67.5t119.5 25q67 0 114 -26.5t72.5 -72.5t25.5 -105q0 -73 -41 -129t-132.5 -88t-244.5 -32q-81 0 -154.5 12.5t-120.5 38.5q-9 -84 -54 -144t-120 -92.5t-174 -32.5zM1158 300q-46 0 -93 -27t-89 -67t-73 -78q23 -1 50 -1q110 0 173 12.5
t90 34.5t27 52q0 26 -20 50t-65 24zM1441 -5q-77 0 -143 20.5t-101 50.5l90 97q36 -15 74 -21.5t90 -6.5q38 0 54.5 -19.5t16.5 -48.5q0 -31 -21 -51.5t-60 -20.5zM1135 530q-31 0 -52.5 21t-21.5 52t21.5 53t52.5 22q30 0 51.5 -22t21.5 -53t-21.5 -52t-51.5 -21z" />
    <glyph glyph-name="uniFEC0#0#1" unicode="&#x636;" horiz-adv-x="1004" arabic-form="medial" 
d="M518 -18q-112 0 -179 12t-103.5 33t-55.5 49q-37 -53 -84 -67t-96 -14l10 140q41 0 60.5 18.5t32 61.5t31.5 117l127 -31q-21 -81 -21 -105q0 -23 12.5 -38t52.5 -24q39 60 87 114.5t102 96.5t112 66t118 24q101 0 156 -57t55 -147q0 -73 -41.5 -129t-133 -88t-242.5 -32
zM710 295q-44 0 -88.5 -25t-86 -65t-74.5 -83h32q116 0 181.5 11t93 33.5t27.5 54.5q0 28 -20 51t-65 23zM1003 -5q-77 0 -143 20.5t-101 50.5l90 97q36 -15 74 -21.5t90 -6.5q38 0 54.5 -19.5t16.5 -48.5q0 -31 -21 -51.5t-60 -20.5zM695 528q-31 0 -52.5 21t-21.5 52
t21.5 53t52.5 22q30 0 51.5 -22t21.5 -53t-21.5 -52t-51.5 -21z" />
    <glyph glyph-name="uniFEBF#0#1" unicode="&#x636;" horiz-adv-x="974" arabic-form="initial" 
d="M518 -18q-112 0 -179 12t-103.5 33t-55.5 49q-37 -53 -84 -67t-96 -14l10 140q41 0 60.5 18.5t32 61.5t31.5 117l127 -31q-21 -81 -21 -105q0 -23 12.5 -38t52.5 -24q39 60 87 114.5t102 96.5t112 66t118 24q101 0 156 -57t55 -147q0 -73 -41.5 -129t-133 -88t-242.5 -32
zM710 295q-44 0 -88.5 -25t-86 -65t-74.5 -83h32q116 0 181.5 11t93 33.5t27.5 54.5q0 28 -20 51t-65 23zM695 528q-31 0 -52.5 21t-21.5 52t21.5 53t52.5 22q30 0 51.5 -22t21.5 -53t-21.5 -52t-51.5 -21z" />
    <glyph glyph-name="uni06FB.init#0#1" unicode="&#x6fb;" horiz-adv-x="974" 
d="M518 -18q-112 0 -179 12t-103.5 33t-55.5 49q-37 -53 -84 -67t-96 -14l10 140q41 0 60.5 18.5t32 61.5t31.5 117l127 -31q-21 -81 -21 -105q0 -23 12.5 -38t52.5 -24q39 60 87 114.5t102 96.5t112 66t118 24q101 0 156 -57t55 -147q0 -73 -41.5 -129t-133 -88t-242.5 -32
zM710 295q-44 0 -88.5 -25t-86 -65t-74.5 -83h32q116 0 181.5 11t93 33.5t27.5 54.5q0 28 -20 51t-65 23zM695 528q-31 0 -52.5 21t-21.5 52t21.5 53t52.5 22q30 0 51.5 -22t21.5 -53t-21.5 -52t-51.5 -21zM517 -248q-29 0 -49.5 20t-20.5 49t20.5 50.5t49.5 21.5
t49.5 -21.5t20.5 -50.5t-20.5 -49t-49.5 -20z" />
    <glyph glyph-name="uni06FB.medi#0#1" unicode="&#x6fb;" horiz-adv-x="1004" 
d="M518 -18q-112 0 -179 12t-103.5 33t-55.5 49q-37 -53 -84 -67t-96 -14l10 140q41 0 60.5 18.5t32 61.5t31.5 117l127 -31q-21 -81 -21 -105q0 -23 12.5 -38t52.5 -24q39 60 87 114.5t102 96.5t112 66t118 24q101 0 156 -57t55 -147q0 -73 -41.5 -129t-133 -88t-242.5 -32
zM710 295q-44 0 -88.5 -25t-86 -65t-74.5 -83h32q116 0 181.5 11t93 33.5t27.5 54.5q0 28 -20 51t-65 23zM1003 -5q-77 0 -143 20.5t-101 50.5l90 97q36 -15 74 -21.5t90 -6.5q38 0 54.5 -19.5t16.5 -48.5q0 -31 -21 -51.5t-60 -20.5zM695 528q-31 0 -52.5 21t-21.5 52
t21.5 53t52.5 22q30 0 51.5 -22t21.5 -53t-21.5 -52t-51.5 -21zM517 -248q-29 0 -49.5 20t-20.5 49t20.5 50.5t49.5 21.5t49.5 -21.5t20.5 -50.5t-20.5 -49t-49.5 -20z" />
    <glyph glyph-name="uni06FB.fina#0#1" unicode="&#x6fb;" horiz-adv-x="1442" 
d="M342 -231q-89 0 -160.5 29t-113.5 87t-42 143q0 35 9.5 87.5t42.5 125.5l123 -43q-17 -47 -26 -80.5t-9 -65.5q0 -60 47.5 -101.5t132.5 -41.5q108 0 157.5 43.5t49.5 125.5q0 43 -16 101t-36 128l140 36q14 -58 22 -90.5t14 -47.5q9 -22 25.5 -37.5t52.5 -25.5
q37 57 83.5 110t100.5 95.5t112.5 67.5t119.5 25q67 0 114 -26.5t72.5 -72.5t25.5 -105q0 -73 -41 -129t-132.5 -88t-244.5 -32q-81 0 -154.5 12.5t-120.5 38.5q-9 -84 -54 -144t-120 -92.5t-174 -32.5zM1158 300q-46 0 -93 -27t-89 -67t-73 -78q23 -1 50 -1q110 0 173 12.5
t90 34.5t27 52q0 26 -20 50t-65 24zM1441 -5q-77 0 -143 20.5t-101 50.5l90 97q36 -15 74 -21.5t90 -6.5q38 0 54.5 -19.5t16.5 -48.5q0 -31 -21 -51.5t-60 -20.5zM1135 530q-31 0 -52.5 21t-21.5 52t21.5 53t52.5 22q30 0 51.5 -22t21.5 -53t-21.5 -52t-51.5 -21zM952 -243
q-29 0 -49.5 20t-20.5 49t20.5 50.5t49.5 21.5t49.5 -21.5t20.5 -50.5t-20.5 -49t-49.5 -20z" />
    <glyph glyph-name="uniFEC1#0#1" unicode="&#x637;" horiz-adv-x="844" arabic-form="isolated" 
d="M387 -13q-104 0 -198.5 5t-168.5 14l16 138q37 -4 70.5 -7t64.5 -4q19 28 39 55l-18 544h140l15 -397q57 48 119.5 76t127.5 28q64 0 111 -26t73.5 -72t26.5 -106q0 -72 -41 -128t-132.5 -88t-244.5 -32zM581 299q-46 0 -90.5 -26t-84 -65.5t-71.5 -80.5h40
q110 0 173 12.5t90 34.5t27 50q0 29 -21 52t-63 23z" />
    <glyph glyph-name="uniFEC2#0#1" unicode="&#x637;" horiz-adv-x="861" arabic-form="final" 
d="M387 -13q-104 0 -198.5 5t-168.5 14l16 138q37 -4 70.5 -7t64.5 -4q19 28 39 55l-18 544h140l15 -397q57 48 119.5 76t127.5 28q64 0 111 -26t73.5 -72t26.5 -106q0 -72 -41 -128t-132.5 -88t-244.5 -32zM581 299q-46 0 -90.5 -26t-84 -65.5t-71.5 -80.5h40
q110 0 173 12.5t90 34.5t27 50q0 29 -21 52t-63 23zM860 -5q-77 0 -143 20.5t-101 50.5l90 97q36 -15 74 -21.5t90 -6.5q38 0 54.5 -19.5t16.5 -48.5q0 -31 -21 -51.5t-60 -20.5z" />
    <glyph glyph-name="uniFEC4#0#1" unicode="&#x637;" horiz-adv-x="762" arabic-form="medial" 
d="M0 -5l10 140h49q20 31 42 60l-18 537h140l15 -389q57 48 120.5 77t128.5 29q66 0 113 -27t72.5 -74t25.5 -109q0 -65 -36.5 -117t-123.5 -86q-37 -14 -80 -23t-101 -13.5t-139 -4.5h-218zM475 309q-45 0 -89.5 -25t-85 -64.5t-74.5 -84.5h8q126 0 196.5 12.5t99 35
t28.5 50.5q0 29 -20 52.5t-63 23.5zM761 -5q-77 0 -143 20.5t-101 50.5l90 97q36 -15 74 -21.5t90 -6.5q38 0 54.5 -19.5t16.5 -48.5q0 -31 -21 -51.5t-60 -20.5z" />
    <glyph glyph-name="uniFEC3#0#1" unicode="&#x637;" horiz-adv-x="737" arabic-form="initial" 
d="M0 -5l10 140h49q20 31 42 60l-18 537h140l15 -389q57 48 120.5 77t128.5 29q66 0 113 -27t72.5 -74t25.5 -109q0 -65 -36.5 -117t-123.5 -86q-37 -14 -80 -23t-101 -13.5t-139 -4.5h-218zM475 309q-45 0 -89.5 -25t-85 -64.5t-74.5 -84.5h8q126 0 196.5 12.5t99 35
t28.5 50.5q0 29 -20 52.5t-63 23.5z" />
    <glyph glyph-name="uni069F.init#0#1" unicode="&#x69f;" horiz-adv-x="737" 
d="M0 -5l10 140h49q20 31 42 60l-18 537h140l15 -389q57 48 120.5 77t128.5 29q66 0 113 -27t72.5 -74t25.5 -109q0 -65 -36.5 -117t-123.5 -86q-37 -14 -80 -23t-101 -13.5t-139 -4.5h-218zM475 309q-45 0 -89.5 -25t-85 -64.5t-74.5 -84.5h8q126 0 196.5 12.5t99 35
t28.5 50.5q0 29 -20 52.5t-63 23.5zM465 674q-25 0 -43.5 19t-18.5 45t18.5 44t43.5 18q26 0 44 -18t18 -44t-18 -45t-44 -19zM385 542q-25 0 -43.5 19t-18.5 45t18.5 44t43.5 18q26 0 44 -18t18 -44t-18 -45t-44 -19zM540 542q-25 0 -43.5 19t-18.5 45t18.5 44t43.5 18
q26 0 44 -18t18 -44t-18 -45t-44 -19z" />
    <glyph glyph-name="uni069F.medi#0#1" unicode="&#x69f;" horiz-adv-x="762" 
d="M0 -5l10 140h49q20 31 42 60l-18 537h140l15 -389q57 48 120.5 77t128.5 29q66 0 113 -27t72.5 -74t25.5 -109q0 -65 -36.5 -117t-123.5 -86q-37 -14 -80 -23t-101 -13.5t-139 -4.5h-218zM475 309q-45 0 -89.5 -25t-85 -64.5t-74.5 -84.5h8q126 0 196.5 12.5t99 35
t28.5 50.5q0 29 -20 52.5t-63 23.5zM761 -5q-77 0 -143 20.5t-101 50.5l90 97q36 -15 74 -21.5t90 -6.5q38 0 54.5 -19.5t16.5 -48.5q0 -31 -21 -51.5t-60 -20.5zM465 674q-25 0 -43.5 19t-18.5 45t18.5 44t43.5 18q26 0 44 -18t18 -44t-18 -45t-44 -19zM385 542
q-25 0 -43.5 19t-18.5 45t18.5 44t43.5 18q26 0 44 -18t18 -44t-18 -45t-44 -19zM540 542q-25 0 -43.5 19t-18.5 45t18.5 44t43.5 18q26 0 44 -18t18 -44t-18 -45t-44 -19z" />
    <glyph glyph-name="uni069F.fina#0#1" unicode="&#x69f;" horiz-adv-x="861" 
d="M387 -13q-104 0 -198.5 5t-168.5 14l16 138q37 -4 70.5 -7t64.5 -4q19 28 39 55l-18 544h140l15 -397q57 48 119.5 76t127.5 28q64 0 111 -26t73.5 -72t26.5 -106q0 -72 -41 -128t-132.5 -88t-244.5 -32zM581 299q-46 0 -90.5 -26t-84 -65.5t-71.5 -80.5h40
q110 0 173 12.5t90 34.5t27 50q0 29 -21 52t-63 23zM860 -5q-77 0 -143 20.5t-101 50.5l90 97q36 -15 74 -21.5t90 -6.5q38 0 54.5 -19.5t16.5 -48.5q0 -31 -21 -51.5t-60 -20.5zM582 664q-25 0 -43.5 19t-18.5 45t18.5 44t43.5 18q26 0 44 -18t18 -44t-18 -45t-44 -19z
M502 532q-25 0 -43.5 19t-18.5 45t18.5 44t43.5 18q26 0 44 -18t18 -44t-18 -45t-44 -19zM657 532q-25 0 -43.5 19t-18.5 45t18.5 44t43.5 18q26 0 44 -18t18 -44t-18 -45t-44 -19z" />
    <glyph glyph-name="uniFEC5#0#1" unicode="&#x638;" horiz-adv-x="844" arabic-form="isolated" 
d="M387 -13q-104 0 -198.5 5t-168.5 14l16 138q37 -4 70.5 -7t64.5 -4q19 28 39 55l-18 544h140l15 -397q57 48 119.5 76t127.5 28q64 0 111 -26t73.5 -72t26.5 -106q0 -72 -41 -128t-132.5 -88t-244.5 -32zM581 299q-46 0 -90.5 -26t-84 -65.5t-71.5 -80.5h40
q110 0 173 12.5t90 34.5t27 50q0 29 -21 52t-63 23zM575 532q-31 0 -52.5 21t-21.5 52t21.5 53t52.5 22q30 0 51.5 -22t21.5 -53t-21.5 -52t-51.5 -21z" />
    <glyph glyph-name="uniFEC6#0#1" unicode="&#x638;" horiz-adv-x="861" arabic-form="final" 
d="M387 -13q-104 0 -198.5 5t-168.5 14l16 138q37 -4 70.5 -7t64.5 -4q19 28 39 55l-18 544h140l15 -397q57 48 119.5 76t127.5 28q64 0 111 -26t73.5 -72t26.5 -106q0 -72 -41 -128t-132.5 -88t-244.5 -32zM581 299q-46 0 -90.5 -26t-84 -65.5t-71.5 -80.5h40
q110 0 173 12.5t90 34.5t27 50q0 29 -21 52t-63 23zM860 -5q-77 0 -143 20.5t-101 50.5l90 97q36 -15 74 -21.5t90 -6.5q38 0 54.5 -19.5t16.5 -48.5q0 -31 -21 -51.5t-60 -20.5zM575 532q-31 0 -52.5 21t-21.5 52t21.5 53t52.5 22q30 0 51.5 -22t21.5 -53t-21.5 -52
t-51.5 -21z" />
    <glyph glyph-name="uniFEC8#0#1" unicode="&#x638;" horiz-adv-x="762" arabic-form="medial" 
d="M0 -5l10 140h49q20 31 42 60l-18 537h140l15 -389q57 48 120.5 77t128.5 29q66 0 113 -27t72.5 -74t25.5 -109q0 -65 -36.5 -117t-123.5 -86q-37 -14 -80 -23t-101 -13.5t-139 -4.5h-218zM475 309q-45 0 -89.5 -25t-85 -64.5t-74.5 -84.5h8q126 0 196.5 12.5t99 35
t28.5 50.5q0 29 -20 52.5t-63 23.5zM761 -5q-77 0 -143 20.5t-101 50.5l90 97q36 -15 74 -21.5t90 -6.5q38 0 54.5 -19.5t16.5 -48.5q0 -31 -21 -51.5t-60 -20.5zM458 542q-31 0 -52.5 21t-21.5 52t21.5 53t52.5 22q30 0 51.5 -22t21.5 -53t-21.5 -52t-51.5 -21z" />
    <glyph glyph-name="uniFEC7#0#1" unicode="&#x638;" horiz-adv-x="737" arabic-form="initial" 
d="M0 -5l10 140h49q20 31 42 60l-18 537h140l15 -389q57 48 120.5 77t128.5 29q66 0 113 -27t72.5 -74t25.5 -109q0 -65 -36.5 -117t-123.5 -86q-37 -14 -80 -23t-101 -13.5t-139 -4.5h-218zM475 309q-45 0 -89.5 -25t-85 -64.5t-74.5 -84.5h8q126 0 196.5 12.5t99 35
t28.5 50.5q0 29 -20 52.5t-63 23.5zM458 542q-31 0 -52.5 21t-21.5 52t21.5 53t52.5 22q30 0 51.5 -22t21.5 -53t-21.5 -52t-51.5 -21z" />
    <glyph glyph-name="uniFEC9#0#1" unicode="&#x639;" horiz-adv-x="570" arabic-form="isolated" 
d="M372 -394q-67 0 -130.5 16t-114.5 50.5t-81 88.5t-30 130q0 85 35.5 155.5t99.5 123.5q-45 24 -76 69.5t-31 113.5q0 63 33 109t88 71t120 25q32 0 59.5 -4t56.5 -12l-22 -133q-21 5 -43 8t-39 3q-52 0 -82.5 -22t-30.5 -60q0 -31 27 -55.5t62 -36.5q87 40 192 56
l33 -132q-176 -31 -259 -103t-83 -161q0 -45 20.5 -76t53.5 -49.5t70.5 -26.5t71.5 -8q69 0 128.5 13t104.5 32l40 -129q-24 -12 -67.5 -25t-97 -22t-108.5 -9z" />
    <glyph glyph-name="uniFECA#0#1" unicode="&#x639;" horiz-adv-x="570" arabic-form="final" 
d="M326 -394q-88 0 -160.5 25t-115 78.5t-42.5 137.5q0 69 30.5 120.5t77 90t95.5 70.5q-23 29 -53.5 60t-50.5 47q-3 3 -10 20.5t-12.5 37.5t-5.5 28q0 20 19 45.5t53.5 49t80.5 39t100 15.5q98 0 141.5 -41.5t43.5 -106.5q0 -52 -21 -94t-53 -78q31 -7 65.5 -11t71.5 -4
q38 0 54 -19.5t16 -48.5q0 -31 -21 -51.5t-59 -20.5q-86 0 -144.5 12.5t-107.5 38.5q-43 -31 -81.5 -60.5t-62.5 -60.5t-24 -67q0 -42 28 -66.5t69 -35t81 -10.5q47 0 99 11t111 36l42 -120q-57 -31 -124.5 -49t-129.5 -18zM209 323q32 -27 63.5 -58.5t52.5 -57.5
q24 21 39 43t15 48q0 20 -15 35.5t-53 15.5q-25 0 -52.5 -7.5t-49.5 -18.5z" />
    <glyph glyph-name="uniFECC#0#1" unicode="&#x639;" horiz-adv-x="552" arabic-form="medial" 
d="M-4 -5l10 140q48 0 89.5 4.5t76.5 12.5q-21 24 -44 46t-41 37q-5 4 -11.5 21.5t-11.5 37t-5 27.5q0 23 21.5 49t58 48.5t81 37t90.5 14.5q92 0 139.5 -40t47.5 -105q0 -45 -18.5 -90t-55.5 -85q31 -7 66 -11t72 -4q38 0 54.5 -19.5t16.5 -48.5q0 -31 -21 -51.5t-60 -20.5
q-85 0 -150 14.5t-116 41.5q-57 -26 -129.5 -41t-159.5 -15zM189 323q25 -20 56.5 -51t58.5 -63q55 41 55 89q0 20 -15 35.5t-54 15.5q-20 0 -49 -6.5t-52 -19.5z" />
    <glyph glyph-name="uniFECB#0#1" unicode="&#x639;" horiz-adv-x="557" arabic-form="initial" 
d="M0 -5l10 140q47 0 72.5 1t38.5 2.5t22 2.5q-10 10 -26 29t-28.5 49t-12.5 72q0 61 31.5 107t85.5 72t121 26q60 0 115 -16l-22 -133q-20 5 -42 8t-39 3q-49 0 -79 -23t-30 -61q0 -29 16.5 -50.5t37.5 -34.5t34 -17q34 10 56.5 16.5t47.5 16t66 27.5l45 -132
q-84 -41 -164 -64t-166 -32t-190 -9z" />
    <glyph glyph-name="uni06A0.init#0#1" unicode="&#x6a0;" horiz-adv-x="557" 
d="M0 -5l10 140q47 0 72.5 1t38.5 2.5t22 2.5q-10 10 -26 29t-28.5 49t-12.5 72q0 61 31.5 107t85.5 72t121 26q60 0 115 -16l-22 -133q-20 5 -42 8t-39 3q-49 0 -79 -23t-30 -61q0 -29 16.5 -50.5t37.5 -34.5t34 -17q34 10 56.5 16.5t47.5 16t66 27.5l45 -132
q-84 -41 -164 -64t-166 -32t-190 -9zM282 721q-25 0 -43.5 19t-18.5 45t18.5 44t43.5 18q26 0 44 -18t18 -44t-18 -45t-44 -19zM202 589q-25 0 -43.5 19t-18.5 45t18.5 44t43.5 18q26 0 44 -18t18 -44t-18 -45t-44 -19zM357 589q-25 0 -43.5 19t-18.5 45t18.5 44t43.5 18
q26 0 44 -18t18 -44t-18 -45t-44 -19z" />
    <glyph glyph-name="uni06A0.medi#0#1" unicode="&#x6a0;" horiz-adv-x="552" 
d="M-4 -5l10 140q48 0 89.5 4.5t76.5 12.5q-21 24 -44 46t-41 37q-5 4 -11.5 21.5t-11.5 37t-5 27.5q0 23 21.5 49t58 48.5t81 37t90.5 14.5q92 0 139.5 -40t47.5 -105q0 -45 -18.5 -90t-55.5 -85q31 -7 66 -11t72 -4q38 0 54.5 -19.5t16.5 -48.5q0 -31 -21 -51.5t-60 -20.5
q-85 0 -150 14.5t-116 41.5q-57 -26 -129.5 -41t-159.5 -15zM189 323q25 -20 56.5 -51t58.5 -63q55 41 55 89q0 20 -15 35.5t-54 15.5q-20 0 -49 -6.5t-52 -19.5zM306 695q-25 0 -43.5 19t-18.5 45t18.5 44t43.5 18q26 0 44 -18t18 -44t-18 -45t-44 -19zM226 563
q-25 0 -43.5 19t-18.5 45t18.5 44t43.5 18q26 0 44 -18t18 -44t-18 -45t-44 -19zM381 563q-25 0 -43.5 19t-18.5 45t18.5 44t43.5 18q26 0 44 -18t18 -44t-18 -45t-44 -19z" />
    <glyph glyph-name="uni06A0.fina#0#1" unicode="&#x6a0;" horiz-adv-x="570" 
d="M326 -394q-88 0 -160.5 25t-115 78.5t-42.5 137.5q0 69 30.5 120.5t77 90t95.5 70.5q-23 29 -53.5 60t-50.5 47q-3 3 -10 20.5t-12.5 37.5t-5.5 28q0 20 19 45.5t53.5 49t80.5 39t100 15.5q98 0 141.5 -41.5t43.5 -106.5q0 -52 -21 -94t-53 -78q31 -7 65.5 -11t71.5 -4
q38 0 54 -19.5t16 -48.5q0 -31 -21 -51.5t-59 -20.5q-86 0 -144.5 12.5t-107.5 38.5q-43 -31 -81.5 -60.5t-62.5 -60.5t-24 -67q0 -42 28 -66.5t69 -35t81 -10.5q47 0 99 11t111 36l42 -120q-57 -31 -124.5 -49t-129.5 -18zM209 323q32 -27 63.5 -58.5t52.5 -57.5
q24 21 39 43t15 48q0 20 -15 35.5t-53 15.5q-25 0 -52.5 -7.5t-49.5 -18.5zM329 695q-25 0 -43.5 19t-18.5 45t18.5 44t43.5 18q26 0 44 -18t18 -44t-18 -45t-44 -19zM249 563q-25 0 -43.5 19t-18.5 45t18.5 44t43.5 18q26 0 44 -18t18 -44t-18 -45t-44 -19zM404 563
q-25 0 -43.5 19t-18.5 45t18.5 44t43.5 18q26 0 44 -18t18 -44t-18 -45t-44 -19z" />
    <glyph glyph-name="uniFECD#0#1" unicode="&#x63a;" horiz-adv-x="570" arabic-form="isolated" 
d="M372 -394q-67 0 -130.5 16t-114.5 50.5t-81 88.5t-30 130q0 85 35.5 155.5t99.5 123.5q-45 24 -76 69.5t-31 113.5q0 63 33 109t88 71t120 25q32 0 59.5 -4t56.5 -12l-22 -133q-21 5 -43 8t-39 3q-52 0 -82.5 -22t-30.5 -60q0 -31 27 -55.5t62 -36.5q87 40 192 56
l33 -132q-176 -31 -259 -103t-83 -161q0 -45 20.5 -76t53.5 -49.5t70.5 -26.5t71.5 -8q69 0 128.5 13t104.5 32l40 -129q-24 -12 -67.5 -25t-97 -22t-108.5 -9zM286 651q-31 0 -52.5 21t-21.5 52t21.5 53t52.5 22q30 0 51.5 -22t21.5 -53t-21.5 -52t-51.5 -21z" />
    <glyph glyph-name="uniFECE#0#1" unicode="&#x63a;" horiz-adv-x="570" arabic-form="final" 
d="M326 -394q-88 0 -160.5 25t-115 78.5t-42.5 137.5q0 69 30.5 120.5t77 90t95.5 70.5q-23 29 -53.5 60t-50.5 47q-3 3 -10 20.5t-12.5 37.5t-5.5 28q0 20 19 45.5t53.5 49t80.5 39t100 15.5q98 0 141.5 -41.5t43.5 -106.5q0 -52 -21 -94t-53 -78q31 -7 65.5 -11t71.5 -4
q38 0 54 -19.5t16 -48.5q0 -31 -21 -51.5t-59 -20.5q-86 0 -144.5 12.5t-107.5 38.5q-43 -31 -81.5 -60.5t-62.5 -60.5t-24 -67q0 -42 28 -66.5t69 -35t81 -10.5q47 0 99 11t111 36l42 -120q-57 -31 -124.5 -49t-129.5 -18zM209 323q32 -27 63.5 -58.5t52.5 -57.5
q24 21 39 43t15 48q0 20 -15 35.5t-53 15.5q-25 0 -52.5 -7.5t-49.5 -18.5zM322 563q-31 0 -52.5 21t-21.5 52t21.5 53t52.5 22q30 0 51.5 -22t21.5 -53t-21.5 -52t-51.5 -21z" />
    <glyph glyph-name="uniFED0#0#1" unicode="&#x63a;" horiz-adv-x="552" arabic-form="medial" 
d="M-4 -5l10 140q48 0 89.5 4.5t76.5 12.5q-21 24 -44 46t-41 37q-5 4 -11.5 21.5t-11.5 37t-5 27.5q0 23 21.5 49t58 48.5t81 37t90.5 14.5q92 0 139.5 -40t47.5 -105q0 -45 -18.5 -90t-55.5 -85q31 -7 66 -11t72 -4q38 0 54.5 -19.5t16.5 -48.5q0 -31 -21 -51.5t-60 -20.5
q-85 0 -150 14.5t-116 41.5q-57 -26 -129.5 -41t-159.5 -15zM189 323q25 -20 56.5 -51t58.5 -63q55 41 55 89q0 20 -15 35.5t-54 15.5q-20 0 -49 -6.5t-52 -19.5zM299 563q-31 0 -52.5 21t-21.5 52t21.5 53t52.5 22q30 0 51.5 -22t21.5 -53t-21.5 -52t-51.5 -21z" />
    <glyph glyph-name="uniFECF#0#1" unicode="&#x63a;" horiz-adv-x="557" arabic-form="initial" 
d="M0 -5l10 140q47 0 72.5 1t38.5 2.5t22 2.5q-10 10 -26 29t-28.5 49t-12.5 72q0 61 31.5 107t85.5 72t121 26q60 0 115 -16l-22 -133q-20 5 -42 8t-39 3q-49 0 -79 -23t-30 -61q0 -29 16.5 -50.5t37.5 -34.5t34 -17q34 10 56.5 16.5t47.5 16t66 27.5l45 -132
q-84 -41 -164 -64t-166 -32t-190 -9zM275 589q-31 0 -52.5 21t-21.5 52t21.5 53t52.5 22q30 0 51.5 -22t21.5 -53t-21.5 -52t-51.5 -21z" />
    <glyph glyph-name="uni06FC.init#0#1" unicode="&#x6fc;" horiz-adv-x="557" 
d="M0 -5l10 140q47 0 72.5 1t38.5 2.5t22 2.5q-10 10 -26 29t-28.5 49t-12.5 72q0 61 31.5 107t85.5 72t121 26q60 0 115 -16l-22 -133q-20 5 -42 8t-39 3q-49 0 -79 -23t-30 -61q0 -29 16.5 -50.5t37.5 -34.5t34 -17q34 10 56.5 16.5t47.5 16t66 27.5l45 -132
q-84 -41 -164 -64t-166 -32t-190 -9zM275 589q-31 0 -52.5 21t-21.5 52t21.5 53t52.5 22q30 0 51.5 -22t21.5 -53t-21.5 -52t-51.5 -21zM304 -235q-29 0 -49.5 20t-20.5 49t20.5 50.5t49.5 21.5t49.5 -21.5t20.5 -50.5t-20.5 -49t-49.5 -20z" />
    <glyph glyph-name="uni06FC.medi#0#1" unicode="&#x6fc;" horiz-adv-x="552" 
d="M-4 -5l10 140q48 0 89.5 4.5t76.5 12.5q-21 24 -44 46t-41 37q-5 4 -11.5 21.5t-11.5 37t-5 27.5q0 23 21.5 49t58 48.5t81 37t90.5 14.5q92 0 139.5 -40t47.5 -105q0 -45 -18.5 -90t-55.5 -85q31 -7 66 -11t72 -4q38 0 54.5 -19.5t16.5 -48.5q0 -31 -21 -51.5t-60 -20.5
q-85 0 -150 14.5t-116 41.5q-57 -26 -129.5 -41t-159.5 -15zM189 323q25 -20 56.5 -51t58.5 -63q55 41 55 89q0 20 -15 35.5t-54 15.5q-20 0 -49 -6.5t-52 -19.5zM299 563q-31 0 -52.5 21t-21.5 52t21.5 53t52.5 22q30 0 51.5 -22t21.5 -53t-21.5 -52t-51.5 -21zM263 -235
q-29 0 -49.5 20t-20.5 49t20.5 50.5t49.5 21.5t49.5 -21.5t20.5 -50.5t-20.5 -49t-49.5 -20z" />
    <glyph glyph-name="uni06FC.fina#0#1" unicode="&#x6fc;" horiz-adv-x="570" 
d="M326 -394q-88 0 -160.5 25t-115 78.5t-42.5 137.5q0 69 30.5 120.5t77 90t95.5 70.5q-23 29 -53.5 60t-50.5 47q-3 3 -10 20.5t-12.5 37.5t-5.5 28q0 20 19 45.5t53.5 49t80.5 39t100 15.5q98 0 141.5 -41.5t43.5 -106.5q0 -52 -21 -94t-53 -78q31 -7 65.5 -11t71.5 -4
q38 0 54 -19.5t16 -48.5q0 -31 -21 -51.5t-59 -20.5q-86 0 -144.5 12.5t-107.5 38.5q-43 -31 -81.5 -60.5t-62.5 -60.5t-24 -67q0 -42 28 -66.5t69 -35t81 -10.5q47 0 99 11t111 36l42 -120q-57 -31 -124.5 -49t-129.5 -18zM209 323q32 -27 63.5 -58.5t52.5 -57.5
q24 21 39 43t15 48q0 20 -15 35.5t-53 15.5q-25 0 -52.5 -7.5t-49.5 -18.5zM337 -174q-31 0 -52.5 21t-21.5 52t21.5 53t52.5 22q30 0 51.5 -22t21.5 -53t-21.5 -52t-51.5 -21zM319 564q-31 0 -52.5 21t-21.5 52t21.5 53t52.5 22q30 0 51.5 -22t21.5 -53t-21.5 -52
t-51.5 -21z" />
    <glyph glyph-name="uniFED1#0#1" unicode="&#x641;" horiz-adv-x="1024" arabic-form="isolated" 
d="M424 -21l26 140q170 0 257.5 8t109.5 30q13 13 20 41q-40 -15 -88 -15q-79 0 -125.5 33.5t-46.5 118.5q0 44 15 87.5t43 79t66 57t84 21.5q68 0 112.5 -39.5t66 -106t21.5 -147.5q0 -71 -19 -133.5t-45 -93.5q-38 -45 -163 -63t-334 -18zM715 362q0 -43 67 -43q31 0 62 9
q-9 114 -67 114q-24 0 -43 -22.5t-19 -57.5zM424 -21q-143 0 -229.5 29t-124.5 80t-38 116q0 47 12 96.5t23 87.5l125 -29q-7 -28 -13.5 -59.5t-6.5 -55.5q0 -37 26.5 -65.5t87.5 -44t164 -15.5l20 -108zM782 673q-31 0 -52.5 21t-21.5 52t21.5 53t52.5 22q30 0 51.5 -22
t21.5 -53t-21.5 -52t-51.5 -21z" />
    <glyph glyph-name="uniFED2#0#1" unicode="&#x641;" horiz-adv-x="1115" arabic-form="final" 
d="M424 -21l26 140q72 0 137 5t115 13q-21 24 -36 53.5t-15 68.5q0 46 18.5 85.5t49 69.5t67 46.5t72.5 16.5q58 0 102 -30.5t69.5 -78.5t25.5 -101q0 -39 -13 -71t-34 -57q29 -2 58.5 -3t57.5 -1q38 0 54.5 -19.5t16.5 -48.5q0 -31 -21 -51.5t-60 -20.5q-74 0 -144 10
t-122 29q-26 -11 -72 -21t-104 -17.5t-122 -12t-126 -4.5zM789 256q0 -20 14 -43t38 -42q36 17 56 41t20 50q0 18 -8.5 37t-22.5 31.5t-31 12.5q-25 0 -45.5 -26t-20.5 -61zM424 -21q-143 0 -229.5 29t-124.5 80t-38 116q0 47 12 96.5t23 87.5l125 -29q-7 -28 -13.5 -59.5
t-6.5 -55.5q0 -37 26.5 -65.5t87.5 -44t164 -15.5l20 -108zM859 570q-31 0 -52.5 21t-21.5 52t21.5 53t52.5 22q30 0 51.5 -22t21.5 -53t-21.5 -52t-51.5 -21z" />
    <glyph glyph-name="uniFED4#0#1" unicode="&#x641;" horiz-adv-x="529" arabic-form="medial" 
d="M0 -5l10 139q30 -1 56.5 0.5t49.5 3.5q-22 26 -36.5 58.5t-14.5 73.5q0 62 31 108.5t78.5 72.5t97.5 26q60 0 104 -28t68.5 -73.5t24.5 -97.5q0 -42 -14 -77t-37 -62q30 -2 60.5 -3t59.5 -1q38 0 54.5 -19.5t16.5 -48.5q0 -31 -21 -51.5t-60 -20.5q-74 0 -144 10t-122 29
q-37 -16 -106 -28t-156 -11zM203 260q0 -25 14 -47t39 -41q36 16 55.5 40t19.5 52q0 27 -16.5 53t-45.5 26q-28 0 -47 -24t-19 -59zM273 570q-31 0 -52.5 21t-21.5 52t21.5 53t52.5 22q30 0 51.5 -22t21.5 -53t-21.5 -52t-51.5 -21z" />
    <glyph glyph-name="uniFED3#0#1" unicode="&#x641;" horiz-adv-x="505" arabic-form="initial" 
d="M0 -5l10 139q83 0 133.5 1t79 4.5t42.5 9t24 12.5q8 6 14.5 15t11.5 22q-41 -15 -85 -15q-79 0 -125.5 33.5t-46.5 118.5q0 44 15 87.5t43 79t66 57t84 21.5q68 0 112.5 -39.5t66 -106t21.5 -147.5q0 -71 -21 -123.5t-50 -82.5q-24 -25 -55 -42t-75.5 -26.5t-109 -13.5
t-155.5 -4zM196 362q0 -43 67 -43q32 0 64 10q-5 55 -23 84t-46 29q-24 0 -43 -22.5t-19 -57.5zM264 673q-31 0 -52.5 21t-21.5 52t21.5 53t52.5 22q30 0 51.5 -22t21.5 -53t-21.5 -52t-51.5 -21z" />
    <glyph glyph-name="uniFB6A#0#1" unicode="&#x6a4;" horiz-adv-x="1024" arabic-form="isolated" 
d="M424 -21l26 140q170 0 257.5 8t109.5 30q13 13 20 41q-40 -15 -88 -15q-79 0 -125.5 33.5t-46.5 118.5q0 44 15 87.5t43 79t66 57t84 21.5q68 0 112.5 -39.5t66 -106t21.5 -147.5q0 -71 -19 -133.5t-45 -93.5q-38 -45 -163 -63t-334 -18zM715 362q0 -43 67 -43q31 0 62 9
q-9 114 -67 114q-24 0 -43 -22.5t-19 -57.5zM424 -21q-143 0 -229.5 29t-124.5 80t-38 116q0 47 12 96.5t23 87.5l125 -29q-7 -28 -13.5 -59.5t-6.5 -55.5q0 -37 26.5 -65.5t87.5 -44t164 -15.5l20 -108zM789 805q-25 0 -43.5 19t-18.5 45t18.5 44t43.5 18q26 0 44 -18
t18 -44t-18 -45t-44 -19zM709 673q-25 0 -43.5 19t-18.5 45t18.5 44t43.5 18q26 0 44 -18t18 -44t-18 -45t-44 -19zM864 673q-25 0 -43.5 19t-18.5 45t18.5 44t43.5 18q26 0 44 -18t18 -44t-18 -45t-44 -19z" />
    <glyph glyph-name="uniFB6B#0#1" unicode="&#x6a4;" horiz-adv-x="1115" arabic-form="final" 
d="M424 -21l26 140q72 0 137 5t115 13q-21 24 -36 53.5t-15 68.5q0 46 18.5 85.5t49 69.5t67 46.5t72.5 16.5q58 0 102 -30.5t69.5 -78.5t25.5 -101q0 -39 -13 -71t-34 -57q29 -2 58.5 -3t57.5 -1q38 0 54.5 -19.5t16.5 -48.5q0 -31 -21 -51.5t-60 -20.5q-74 0 -144 10
t-122 29q-26 -11 -72 -21t-104 -17.5t-122 -12t-126 -4.5zM789 256q0 -20 14 -43t38 -42q36 17 56 41t20 50q0 18 -8.5 37t-22.5 31.5t-31 12.5q-25 0 -45.5 -26t-20.5 -61zM424 -21q-143 0 -229.5 29t-124.5 80t-38 116q0 47 12 96.5t23 87.5l125 -29q-7 -28 -13.5 -59.5
t-6.5 -55.5q0 -37 26.5 -65.5t87.5 -44t164 -15.5l20 -108zM866 702q-25 0 -43.5 19t-18.5 45t18.5 44t43.5 18q26 0 44 -18t18 -44t-18 -45t-44 -19zM786 570q-25 0 -43.5 19t-18.5 45t18.5 44t43.5 18q26 0 44 -18t18 -44t-18 -45t-44 -19zM941 570q-25 0 -43.5 19
t-18.5 45t18.5 44t43.5 18q26 0 44 -18t18 -44t-18 -45t-44 -19z" />
    <glyph glyph-name="uniFB6D#0#1" unicode="&#x6a4;" horiz-adv-x="529" arabic-form="medial" 
d="M0 -5l10 139q30 -1 56.5 0.5t49.5 3.5q-22 26 -36.5 58.5t-14.5 73.5q0 62 31 108.5t78.5 72.5t97.5 26q60 0 104 -28t68.5 -73.5t24.5 -97.5q0 -42 -14 -77t-37 -62q30 -2 60.5 -3t59.5 -1q38 0 54.5 -19.5t16.5 -48.5q0 -31 -21 -51.5t-60 -20.5q-74 0 -144 10t-122 29
q-37 -16 -106 -28t-156 -11zM203 260q0 -25 14 -47t39 -41q36 16 55.5 40t19.5 52q0 27 -16.5 53t-45.5 26q-28 0 -47 -24t-19 -59zM280 702q-25 0 -43.5 19t-18.5 45t18.5 44t43.5 18q26 0 44 -18t18 -44t-18 -45t-44 -19zM200 570q-25 0 -43.5 19t-18.5 45t18.5 44
t43.5 18q26 0 44 -18t18 -44t-18 -45t-44 -19zM355 570q-25 0 -43.5 19t-18.5 45t18.5 44t43.5 18q26 0 44 -18t18 -44t-18 -45t-44 -19z" />
    <glyph glyph-name="uniFB6C#0#1" unicode="&#x6a4;" horiz-adv-x="505" arabic-form="initial" 
d="M0 -5l10 139q83 0 133.5 1t79 4.5t42.5 9t24 12.5q8 6 14.5 15t11.5 22q-41 -15 -85 -15q-79 0 -125.5 33.5t-46.5 118.5q0 44 15 87.5t43 79t66 57t84 21.5q68 0 112.5 -39.5t66 -106t21.5 -147.5q0 -71 -21 -123.5t-50 -82.5q-24 -25 -55 -42t-75.5 -26.5t-109 -13.5
t-155.5 -4zM196 362q0 -43 67 -43q32 0 64 10q-5 55 -23 84t-46 29q-24 0 -43 -22.5t-19 -57.5zM271 805q-25 0 -43.5 19t-18.5 45t18.5 44t43.5 18q26 0 44 -18t18 -44t-18 -45t-44 -19zM191 673q-25 0 -43.5 19t-18.5 45t18.5 44t43.5 18q26 0 44 -18t18 -44t-18 -45
t-44 -19zM346 673q-25 0 -43.5 19t-18.5 45t18.5 44t43.5 18q26 0 44 -18t18 -44t-18 -45t-44 -19z" />
    <glyph glyph-name="uni06A1.init#0#1" unicode="&#x6a1;" horiz-adv-x="505" 
d="M0 -5l10 139q83 0 133.5 1t79 4.5t42.5 9t24 12.5q8 6 14.5 15t11.5 22q-41 -15 -85 -15q-79 0 -125.5 33.5t-46.5 118.5q0 44 15 87.5t43 79t66 57t84 21.5q68 0 112.5 -39.5t66 -106t21.5 -147.5q0 -71 -21 -123.5t-50 -82.5q-24 -25 -55 -42t-75.5 -26.5t-109 -13.5
t-155.5 -4zM196 362q0 -43 67 -43q32 0 64 10q-5 55 -23 84t-46 29q-24 0 -43 -22.5t-19 -57.5z" />
    <glyph glyph-name="uni06A1.medi#0#1" unicode="&#x6a1;" horiz-adv-x="529" 
d="M0 -5l10 139q30 -1 56.5 0.5t49.5 3.5q-22 26 -36.5 58.5t-14.5 73.5q0 62 31 108.5t78.5 72.5t97.5 26q60 0 104 -28t68.5 -73.5t24.5 -97.5q0 -42 -14 -77t-37 -62q30 -2 60.5 -3t59.5 -1q38 0 54.5 -19.5t16.5 -48.5q0 -31 -21 -51.5t-60 -20.5q-74 0 -144 10t-122 29
q-37 -16 -106 -28t-156 -11zM203 260q0 -25 14 -47t39 -41q36 16 55.5 40t19.5 52q0 27 -16.5 53t-45.5 26q-28 0 -47 -24t-19 -59z" />
    <glyph glyph-name="uni06A1.fina#0#1" unicode="&#x6a1;" horiz-adv-x="1115" 
d="M424 -21l26 140q72 0 137 5t115 13q-21 24 -36 53.5t-15 68.5q0 46 18.5 85.5t49 69.5t67 46.5t72.5 16.5q58 0 102 -30.5t69.5 -78.5t25.5 -101q0 -39 -13 -71t-34 -57q29 -2 58.5 -3t57.5 -1q38 0 54.5 -19.5t16.5 -48.5q0 -31 -21 -51.5t-60 -20.5q-74 0 -144 10
t-122 29q-26 -11 -72 -21t-104 -17.5t-122 -12t-126 -4.5zM789 256q0 -20 14 -43t38 -42q36 17 56 41t20 50q0 18 -8.5 37t-22.5 31.5t-31 12.5q-25 0 -45.5 -26t-20.5 -61zM424 -21q-143 0 -229.5 29t-124.5 80t-38 116q0 47 12 96.5t23 87.5l125 -29q-7 -28 -13.5 -59.5
t-6.5 -55.5q0 -37 26.5 -65.5t87.5 -44t164 -15.5l20 -108z" />
    <glyph glyph-name="fehDotMovedbelowar.init#0#1" unicode="&#x6a2;" horiz-adv-x="505" 
d="M0 -5l10 139q83 0 133.5 1t79 4.5t42.5 9t24 12.5q8 6 14.5 15t11.5 22q-41 -15 -85 -15q-79 0 -125.5 33.5t-46.5 118.5q0 44 15 87.5t43 79t66 57t84 21.5q68 0 112.5 -39.5t66 -106t21.5 -147.5q0 -71 -21 -123.5t-50 -82.5q-24 -25 -55 -42t-75.5 -26.5t-109 -13.5
t-155.5 -4zM196 362q0 -43 67 -43q32 0 64 10q-5 55 -23 84t-46 29q-24 0 -43 -22.5t-19 -57.5zM220 -247q-29 0 -49.5 20t-20.5 49t20.5 50.5t49.5 21.5t49.5 -21.5t20.5 -50.5t-20.5 -49t-49.5 -20z" />
    <glyph glyph-name="fehDotMovedbelowar.medi#0#1" unicode="&#x6a2;" horiz-adv-x="529" 
d="M0 -5l10 139q30 -1 56.5 0.5t49.5 3.5q-22 26 -36.5 58.5t-14.5 73.5q0 62 31 108.5t78.5 72.5t97.5 26q60 0 104 -28t68.5 -73.5t24.5 -97.5q0 -42 -14 -77t-37 -62q30 -2 60.5 -3t59.5 -1q38 0 54.5 -19.5t16.5 -48.5q0 -31 -21 -51.5t-60 -20.5q-74 0 -144 10t-122 29
q-37 -16 -106 -28t-156 -11zM203 260q0 -25 14 -47t39 -41q36 16 55.5 40t19.5 52q0 27 -16.5 53t-45.5 26q-28 0 -47 -24t-19 -59zM262 -248q-29 0 -49.5 20t-20.5 49t20.5 50.5t49.5 21.5t49.5 -21.5t20.5 -50.5t-20.5 -49t-49.5 -20z" />
    <glyph glyph-name="fehDotMovedbelowar.fina#0#1" unicode="&#x6a2;" horiz-adv-x="1115" 
d="M424 -21l26 140q72 0 137 5t115 13q-21 24 -36 53.5t-15 68.5q0 46 18.5 85.5t49 69.5t67 46.5t72.5 16.5q58 0 102 -30.5t69.5 -78.5t25.5 -101q0 -39 -13 -71t-34 -57q29 -2 58.5 -3t57.5 -1q38 0 54.5 -19.5t16.5 -48.5q0 -31 -21 -51.5t-60 -20.5q-74 0 -144 10
t-122 29q-26 -11 -72 -21t-104 -17.5t-122 -12t-126 -4.5zM789 256q0 -20 14 -43t38 -42q36 17 56 41t20 50q0 18 -8.5 37t-22.5 31.5t-31 12.5q-25 0 -45.5 -26t-20.5 -61zM424 -21q-143 0 -229.5 29t-124.5 80t-38 116q0 47 12 96.5t23 87.5l125 -29q-7 -28 -13.5 -59.5
t-6.5 -55.5q0 -37 26.5 -65.5t87.5 -44t164 -15.5l20 -108zM490 -248q-29 0 -49.5 20t-20.5 49t20.5 50.5t49.5 21.5t49.5 -21.5t20.5 -50.5t-20.5 -49t-49.5 -20z" />
    <glyph glyph-name="uni06A3.init#0#1" unicode="&#x6a3;" horiz-adv-x="505" 
d="M0 -5l10 139q83 0 133.5 1t79 4.5t42.5 9t24 12.5q8 6 14.5 15t11.5 22q-41 -15 -85 -15q-79 0 -125.5 33.5t-46.5 118.5q0 44 15 87.5t43 79t66 57t84 21.5q68 0 112.5 -39.5t66 -106t21.5 -147.5q0 -71 -21 -123.5t-50 -82.5q-24 -25 -55 -42t-75.5 -26.5t-109 -13.5
t-155.5 -4zM196 362q0 -43 67 -43q32 0 64 10q-5 55 -23 84t-46 29q-24 0 -43 -22.5t-19 -57.5zM264 673q-31 0 -52.5 21t-21.5 52t21.5 53t52.5 22q30 0 51.5 -22t21.5 -53t-21.5 -52t-51.5 -21zM220 -247q-29 0 -49.5 20t-20.5 49t20.5 50.5t49.5 21.5t49.5 -21.5
t20.5 -50.5t-20.5 -49t-49.5 -20z" />
    <glyph glyph-name="uni06A3.medi#0#1" unicode="&#x6a3;" horiz-adv-x="529" 
d="M0 -5l10 139q30 -1 56.5 0.5t49.5 3.5q-22 26 -36.5 58.5t-14.5 73.5q0 62 31 108.5t78.5 72.5t97.5 26q60 0 104 -28t68.5 -73.5t24.5 -97.5q0 -42 -14 -77t-37 -62q30 -2 60.5 -3t59.5 -1q38 0 54.5 -19.5t16.5 -48.5q0 -31 -21 -51.5t-60 -20.5q-74 0 -144 10t-122 29
q-37 -16 -106 -28t-156 -11zM203 260q0 -25 14 -47t39 -41q36 16 55.5 40t19.5 52q0 27 -16.5 53t-45.5 26q-28 0 -47 -24t-19 -59zM273 570q-31 0 -52.5 21t-21.5 52t21.5 53t52.5 22q30 0 51.5 -22t21.5 -53t-21.5 -52t-51.5 -21zM262 -248q-29 0 -49.5 20t-20.5 49
t20.5 50.5t49.5 21.5t49.5 -21.5t20.5 -50.5t-20.5 -49t-49.5 -20z" />
    <glyph glyph-name="uni06A3.fina#0#1" unicode="&#x6a3;" horiz-adv-x="1115" 
d="M424 -21l26 140q72 0 137 5t115 13q-21 24 -36 53.5t-15 68.5q0 46 18.5 85.5t49 69.5t67 46.5t72.5 16.5q58 0 102 -30.5t69.5 -78.5t25.5 -101q0 -39 -13 -71t-34 -57q29 -2 58.5 -3t57.5 -1q38 0 54.5 -19.5t16.5 -48.5q0 -31 -21 -51.5t-60 -20.5q-74 0 -144 10
t-122 29q-26 -11 -72 -21t-104 -17.5t-122 -12t-126 -4.5zM789 256q0 -20 14 -43t38 -42q36 17 56 41t20 50q0 18 -8.5 37t-22.5 31.5t-31 12.5q-25 0 -45.5 -26t-20.5 -61zM424 -21q-143 0 -229.5 29t-124.5 80t-38 116q0 47 12 96.5t23 87.5l125 -29q-7 -28 -13.5 -59.5
t-6.5 -55.5q0 -37 26.5 -65.5t87.5 -44t164 -15.5l20 -108zM859 570q-31 0 -52.5 21t-21.5 52t21.5 53t52.5 22q30 0 51.5 -22t21.5 -53t-21.5 -52t-51.5 -21zM490 -248q-29 0 -49.5 20t-20.5 49t20.5 50.5t49.5 21.5t49.5 -21.5t20.5 -50.5t-20.5 -49t-49.5 -20z" />
    <glyph glyph-name="uni06A5.init#0#1" unicode="&#x6a5;" horiz-adv-x="505" 
d="M0 -5l10 139q83 0 133.5 1t79 4.5t42.5 9t24 12.5q8 6 14.5 15t11.5 22q-41 -15 -85 -15q-79 0 -125.5 33.5t-46.5 118.5q0 44 15 87.5t43 79t66 57t84 21.5q68 0 112.5 -39.5t66 -106t21.5 -147.5q0 -71 -21 -123.5t-50 -82.5q-24 -25 -55 -42t-75.5 -26.5t-109 -13.5
t-155.5 -4zM196 362q0 -43 67 -43q32 0 64 10q-5 55 -23 84t-46 29q-24 0 -43 -22.5t-19 -57.5zM148 -236q-26 0 -44.5 18t-18.5 44t18.5 45t44.5 19t44 -19t18 -45t-18 -44t-44 -18zM304 -236q-26 0 -44.5 18t-18.5 44t18.5 45t44.5 19t44 -19t18 -45t-18 -44t-44 -18z
M224 -368q-26 0 -44.5 18t-18.5 44t18.5 45t44.5 19t44 -19t18 -45t-18 -44t-44 -18z" />
    <glyph glyph-name="uni06A5.medi#0#1" unicode="&#x6a5;" horiz-adv-x="529" 
d="M0 -5l10 139q30 -1 56.5 0.5t49.5 3.5q-22 26 -36.5 58.5t-14.5 73.5q0 62 31 108.5t78.5 72.5t97.5 26q60 0 104 -28t68.5 -73.5t24.5 -97.5q0 -42 -14 -77t-37 -62q30 -2 60.5 -3t59.5 -1q38 0 54.5 -19.5t16.5 -48.5q0 -31 -21 -51.5t-60 -20.5q-74 0 -144 10t-122 29
q-37 -16 -106 -28t-156 -11zM203 260q0 -25 14 -47t39 -41q36 16 55.5 40t19.5 52q0 27 -16.5 53t-45.5 26q-28 0 -47 -24t-19 -59zM190 -237q-26 0 -44.5 18t-18.5 44t18.5 45t44.5 19t44 -19t18 -45t-18 -44t-44 -18zM346 -237q-26 0 -44.5 18t-18.5 44t18.5 45t44.5 19
t44 -19t18 -45t-18 -44t-44 -18zM266 -369q-26 0 -44.5 18t-18.5 44t18.5 45t44.5 19t44 -19t18 -45t-18 -44t-44 -18z" />
    <glyph glyph-name="uni06A5.fina#0#1" unicode="&#x6a5;" horiz-adv-x="1115" 
d="M424 -21l26 140q72 0 137 5t115 13q-21 24 -36 53.5t-15 68.5q0 46 18.5 85.5t49 69.5t67 46.5t72.5 16.5q58 0 102 -30.5t69.5 -78.5t25.5 -101q0 -39 -13 -71t-34 -57q29 -2 58.5 -3t57.5 -1q38 0 54.5 -19.5t16.5 -48.5q0 -31 -21 -51.5t-60 -20.5q-74 0 -144 10
t-122 29q-26 -11 -72 -21t-104 -17.5t-122 -12t-126 -4.5zM789 256q0 -20 14 -43t38 -42q36 17 56 41t20 50q0 18 -8.5 37t-22.5 31.5t-31 12.5q-25 0 -45.5 -26t-20.5 -61zM424 -21q-143 0 -229.5 29t-124.5 80t-38 116q0 47 12 96.5t23 87.5l125 -29q-7 -28 -13.5 -59.5
t-6.5 -55.5q0 -37 26.5 -65.5t87.5 -44t164 -15.5l20 -108zM418 -237q-26 0 -44.5 18t-18.5 44t18.5 45t44.5 19t44 -19t18 -45t-18 -44t-44 -18zM574 -237q-26 0 -44.5 18t-18.5 44t18.5 45t44.5 19t44 -19t18 -45t-18 -44t-44 -18zM494 -369q-26 0 -44.5 18t-18.5 44
t18.5 45t44.5 19t44 -19t18 -45t-18 -44t-44 -18z" />
    <glyph glyph-name="uniFB6E#0#1" unicode="&#x6a6;" horiz-adv-x="1024" arabic-form="isolated" 
d="M424 -21l26 140q170 0 257.5 8t109.5 30q13 13 20 41q-40 -15 -88 -15q-79 0 -125.5 33.5t-46.5 118.5q0 44 15 87.5t43 79t66 57t84 21.5q68 0 112.5 -39.5t66 -106t21.5 -147.5q0 -71 -19 -133.5t-45 -93.5q-38 -45 -163 -63t-334 -18zM715 362q0 -43 67 -43q31 0 62 9
q-9 114 -67 114q-24 0 -43 -22.5t-19 -57.5zM424 -21q-143 0 -229.5 29t-124.5 80t-38 116q0 47 12 96.5t23 87.5l125 -29q-7 -28 -13.5 -59.5t-6.5 -55.5q0 -37 26.5 -65.5t87.5 -44t164 -15.5l20 -108zM719 810q-24 0 -40.5 16.5t-16.5 40.5t16.5 41.5t40.5 17.5
q23 0 40 -17.5t17 -41.5t-17 -40.5t-40 -16.5zM857 810q-24 0 -40.5 16.5t-16.5 40.5t16.5 41.5t40.5 17.5q23 0 40 -17.5t17 -41.5t-17 -40.5t-40 -16.5zM719 671q-24 0 -40.5 16.5t-16.5 40.5t16.5 41.5t40.5 17.5q23 0 40 -17.5t17 -41.5t-17 -40.5t-40 -16.5zM857 671
q-24 0 -40.5 16.5t-16.5 40.5t16.5 41.5t40.5 17.5q23 0 40 -17.5t17 -41.5t-17 -40.5t-40 -16.5z" />
    <glyph glyph-name="uniFB6F#0#1" unicode="&#x6a6;" horiz-adv-x="1115" arabic-form="final" 
d="M424 -21l26 140q72 0 137 5t115 13q-21 24 -36 53.5t-15 68.5q0 46 18.5 85.5t49 69.5t67 46.5t72.5 16.5q58 0 102 -30.5t69.5 -78.5t25.5 -101q0 -39 -13 -71t-34 -57q29 -2 58.5 -3t57.5 -1q38 0 54.5 -19.5t16.5 -48.5q0 -31 -21 -51.5t-60 -20.5q-74 0 -144 10
t-122 29q-26 -11 -72 -21t-104 -17.5t-122 -12t-126 -4.5zM789 256q0 -20 14 -43t38 -42q36 17 56 41t20 50q0 18 -8.5 37t-22.5 31.5t-31 12.5q-25 0 -45.5 -26t-20.5 -61zM424 -21q-143 0 -229.5 29t-124.5 80t-38 116q0 47 12 96.5t23 87.5l125 -29q-7 -28 -13.5 -59.5
t-6.5 -55.5q0 -37 26.5 -65.5t87.5 -44t164 -15.5l20 -108zM796 707q-24 0 -40.5 16.5t-16.5 40.5t16.5 41.5t40.5 17.5q23 0 40 -17.5t17 -41.5t-17 -40.5t-40 -16.5zM934 707q-24 0 -40.5 16.5t-16.5 40.5t16.5 41.5t40.5 17.5q23 0 40 -17.5t17 -41.5t-17 -40.5
t-40 -16.5zM796 568q-24 0 -40.5 16.5t-16.5 40.5t16.5 41.5t40.5 17.5q23 0 40 -17.5t17 -41.5t-17 -40.5t-40 -16.5zM934 568q-24 0 -40.5 16.5t-16.5 40.5t16.5 41.5t40.5 17.5q23 0 40 -17.5t17 -41.5t-17 -40.5t-40 -16.5z" />
    <glyph glyph-name="uniFB71#0#1" unicode="&#x6a6;" horiz-adv-x="529" arabic-form="medial" 
d="M0 -5l10 139q30 -1 56.5 0.5t49.5 3.5q-22 26 -36.5 58.5t-14.5 73.5q0 62 31 108.5t78.5 72.5t97.5 26q60 0 104 -28t68.5 -73.5t24.5 -97.5q0 -42 -14 -77t-37 -62q30 -2 60.5 -3t59.5 -1q38 0 54.5 -19.5t16.5 -48.5q0 -31 -21 -51.5t-60 -20.5q-74 0 -144 10t-122 29
q-37 -16 -106 -28t-156 -11zM203 260q0 -25 14 -47t39 -41q36 16 55.5 40t19.5 52q0 27 -16.5 53t-45.5 26q-28 0 -47 -24t-19 -59zM210 707q-24 0 -40.5 16.5t-16.5 40.5t16.5 41.5t40.5 17.5q23 0 40 -17.5t17 -41.5t-17 -40.5t-40 -16.5zM348 707q-24 0 -40.5 16.5
t-16.5 40.5t16.5 41.5t40.5 17.5q23 0 40 -17.5t17 -41.5t-17 -40.5t-40 -16.5zM210 568q-24 0 -40.5 16.5t-16.5 40.5t16.5 41.5t40.5 17.5q23 0 40 -17.5t17 -41.5t-17 -40.5t-40 -16.5zM348 568q-24 0 -40.5 16.5t-16.5 40.5t16.5 41.5t40.5 17.5q23 0 40 -17.5t17 -41.5
t-17 -40.5t-40 -16.5z" />
    <glyph glyph-name="uniFB70#0#1" unicode="&#x6a6;" horiz-adv-x="505" arabic-form="initial" 
d="M0 -5l10 139q83 0 133.5 1t79 4.5t42.5 9t24 12.5q8 6 14.5 15t11.5 22q-41 -15 -85 -15q-79 0 -125.5 33.5t-46.5 118.5q0 44 15 87.5t43 79t66 57t84 21.5q68 0 112.5 -39.5t66 -106t21.5 -147.5q0 -71 -21 -123.5t-50 -82.5q-24 -25 -55 -42t-75.5 -26.5t-109 -13.5
t-155.5 -4zM196 362q0 -43 67 -43q32 0 64 10q-5 55 -23 84t-46 29q-24 0 -43 -22.5t-19 -57.5zM201 810q-24 0 -40.5 16.5t-16.5 40.5t16.5 41.5t40.5 17.5q23 0 40 -17.5t17 -41.5t-17 -40.5t-40 -16.5zM339 810q-24 0 -40.5 16.5t-16.5 40.5t16.5 41.5t40.5 17.5
q23 0 40 -17.5t17 -41.5t-17 -40.5t-40 -16.5zM201 671q-24 0 -40.5 16.5t-16.5 40.5t16.5 41.5t40.5 17.5q23 0 40 -17.5t17 -41.5t-17 -40.5t-40 -16.5zM339 671q-24 0 -40.5 16.5t-16.5 40.5t16.5 41.5t40.5 17.5q23 0 40 -17.5t17 -41.5t-17 -40.5t-40 -16.5z" />
    <glyph glyph-name="uni066F.init#0#1" unicode="&#x66f;" horiz-adv-x="505" 
d="M0 -5l10 139q83 0 133.5 1t79 4.5t42.5 9t24 12.5q8 6 14.5 15t11.5 22q-41 -15 -85 -15q-79 0 -125.5 33.5t-46.5 118.5q0 44 15 87.5t43 79t66 57t84 21.5q68 0 112.5 -39.5t66 -106t21.5 -147.5q0 -71 -21 -123.5t-50 -82.5q-24 -25 -55 -42t-75.5 -26.5t-109 -13.5
t-155.5 -4zM196 362q0 -43 67 -43q32 0 64 10q-5 55 -23 84t-46 29q-24 0 -43 -22.5t-19 -57.5z" />
    <glyph glyph-name="uni066F.medi#0#1" unicode="&#x66f;" horiz-adv-x="529" 
d="M0 -5l10 139q30 -1 56.5 0.5t49.5 3.5q-22 26 -36.5 58.5t-14.5 73.5q0 62 31 108.5t78.5 72.5t97.5 26q60 0 104 -28t68.5 -73.5t24.5 -97.5q0 -42 -14 -77t-37 -62q30 -2 60.5 -3t59.5 -1q38 0 54.5 -19.5t16.5 -48.5q0 -31 -21 -51.5t-60 -20.5q-74 0 -144 10t-122 29
q-37 -16 -106 -28t-156 -11zM203 260q0 -25 14 -47t39 -41q36 16 55.5 40t19.5 52q0 27 -16.5 53t-45.5 26q-28 0 -47 -24t-19 -59z" />
    <glyph glyph-name="uni066F.fina#0#1" unicode="&#x66f;" horiz-adv-x="855" 
d="M349 -272q-89 0 -162.5 26t-117 82.5t-43.5 146.5q0 34 9.5 84t46.5 132l122 -47q-22 -54 -30 -84t-8 -61q0 -67 55.5 -103t151.5 -36q74 0 128.5 17.5t88.5 46t46 60.5l1 3h-26q-114 0 -168.5 40.5t-55.5 119.5q0 45 16.5 87.5t45.5 75.5t65.5 52.5t75.5 19.5
q87 0 141 -67.5t61 -186.5h73q38 0 54 -19.5t16 -48.5q0 -32 -21 -52.5t-59 -20.5h-79q-12 -44 -32 -81q-49 -93 -150.5 -139.5t-244.5 -46.5zM523 179q0 -15 8.5 -27t36 -17.5t85.5 -3.5q-2 60 -20 90.5t-47 30.5q-19 0 -33 -12t-22 -28.5t-8 -32.5z" />
    <glyph glyph-name="uniFED5#0#1" unicode="&#x642;" horiz-adv-x="832" arabic-form="isolated" 
d="M349 -188q-89 0 -162.5 26t-117 82.5t-43.5 146.5q0 34 9.5 84t46.5 132l122 -47q-22 -54 -30 -84t-8 -61q0 -67 55.5 -103t151.5 -36q124 0 185.5 28.5t77.5 73.5q3 7 5 14q-42 -12 -84 -12q-79 0 -125 33.5t-46 121.5q0 42 15 84.5t42 78.5t65 57.5t84 21.5
q65 0 109.5 -37.5t68 -99t23.5 -133.5q0 -67 -13.5 -117.5t-34.5 -89.5q-49 -88 -149.5 -126t-246.5 -38zM523 238q0 -46 67 -46q14 0 30 2t32 7q-3 54 -20 84t-46 30q-27 0 -45 -25.5t-18 -51.5zM508 545q-29 0 -49.5 20.5t-20.5 48.5q0 29 20.5 50t49.5 21q28 0 48 -21
t20 -50q0 -28 -20 -48.5t-48 -20.5zM681 544q-29 0 -49.5 20.5t-20.5 48.5q0 29 20.5 50t49.5 21q28 0 48 -21t20 -50q0 -28 -20 -48.5t-48 -20.5z" />
    <glyph glyph-name="uniFED6#0#1" unicode="&#x642;" horiz-adv-x="855" arabic-form="final" 
d="M349 -272q-89 0 -162.5 26t-117 82.5t-43.5 146.5q0 34 9.5 84t46.5 132l122 -47q-22 -54 -30 -84t-8 -61q0 -67 55.5 -103t151.5 -36q74 0 128.5 17.5t88.5 46t46 60.5l1 3h-26q-114 0 -168.5 40.5t-55.5 119.5q0 45 16.5 87.5t45.5 75.5t65.5 52.5t75.5 19.5
q87 0 141 -67.5t61 -186.5h73q38 0 54 -19.5t16 -48.5q0 -32 -21 -52.5t-59 -20.5h-79q-12 -44 -32 -81q-49 -93 -150.5 -139.5t-244.5 -46.5zM523 179q0 -15 8.5 -27t36 -17.5t85.5 -3.5q-2 60 -20 90.5t-47 30.5q-19 0 -33 -12t-22 -28.5t-8 -32.5zM503 482
q-29 0 -49.5 20.5t-20.5 48.5q0 29 20.5 50t49.5 21q28 0 48 -21t20 -50q0 -28 -20 -48.5t-48 -20.5zM676 481q-29 0 -49.5 20.5t-20.5 48.5q0 29 20.5 50t49.5 21q28 0 48 -21t20 -50q0 -28 -20 -48.5t-48 -20.5z" />
    <glyph glyph-name="uniFED8#0#1" unicode="&#x642;" horiz-adv-x="529" arabic-form="medial" 
d="M0 -5l10 139q30 -1 56.5 0.5t49.5 3.5q-22 26 -36.5 58.5t-14.5 73.5q0 62 31 108.5t78.5 72.5t97.5 26q60 0 104 -28t68.5 -73.5t24.5 -97.5q0 -42 -14 -77t-37 -62q30 -2 60.5 -3t59.5 -1q38 0 54.5 -19.5t16.5 -48.5q0 -31 -21 -51.5t-60 -20.5q-74 0 -144 10t-122 29
q-37 -16 -106 -28t-156 -11zM203 260q0 -25 14 -47t39 -41q36 16 55.5 40t19.5 52q0 27 -16.5 53t-45.5 26q-28 0 -47 -24t-19 -59zM187 569q-29 0 -49.5 20.5t-20.5 48.5q0 29 20.5 50t49.5 21q28 0 48 -21t20 -50q0 -28 -20 -48.5t-48 -20.5zM360 568q-29 0 -49.5 20.5
t-20.5 48.5q0 29 20.5 50t49.5 21q28 0 48 -21t20 -50q0 -28 -20 -48.5t-48 -20.5z" />
    <glyph glyph-name="uniFED7#0#1" unicode="&#x642;" horiz-adv-x="505" arabic-form="initial" 
d="M0 -5l10 139q83 0 133.5 1t79 4.5t42.5 9t24 12.5q8 6 14.5 15t11.5 22q-41 -15 -85 -15q-79 0 -125.5 33.5t-46.5 118.5q0 44 15 87.5t43 79t66 57t84 21.5q68 0 112.5 -39.5t66 -106t21.5 -147.5q0 -71 -21 -123.5t-50 -82.5q-24 -25 -55 -42t-75.5 -26.5t-109 -13.5
t-155.5 -4zM196 362q0 -43 67 -43q32 0 64 10q-5 55 -23 84t-46 29q-24 0 -43 -22.5t-19 -57.5zM178 672q-29 0 -49.5 20.5t-20.5 48.5q0 29 20.5 50t49.5 21q28 0 48 -21t20 -50q0 -28 -20 -48.5t-48 -20.5zM351 671q-29 0 -49.5 20.5t-20.5 48.5q0 29 20.5 50t49.5 21
q28 0 48 -21t20 -50q0 -28 -20 -48.5t-48 -20.5z" />
    <glyph glyph-name="uni06A7.fina#0#1" unicode="&#x6a7;" horiz-adv-x="855" 
d="M349 -272q-89 0 -162.5 26t-117 82.5t-43.5 146.5q0 34 9.5 84t46.5 132l122 -47q-22 -54 -30 -84t-8 -61q0 -67 55.5 -103t151.5 -36q74 0 128.5 17.5t88.5 46t46 60.5l1 3h-26q-114 0 -168.5 40.5t-55.5 119.5q0 45 16.5 87.5t45.5 75.5t65.5 52.5t75.5 19.5
q87 0 141 -67.5t61 -186.5h73q38 0 54 -19.5t16 -48.5q0 -32 -21 -52.5t-59 -20.5h-79q-12 -44 -32 -81q-49 -93 -150.5 -139.5t-244.5 -46.5zM523 179q0 -15 8.5 -27t36 -17.5t85.5 -3.5q-2 60 -20 90.5t-47 30.5q-19 0 -33 -12t-22 -28.5t-8 -32.5zM589 483
q-31 0 -52.5 21t-21.5 52t21.5 53t52.5 22q30 0 51.5 -22t21.5 -53t-21.5 -52t-51.5 -21z" />
    <glyph glyph-name="uni06A8.fina#0#1" unicode="&#x6a8;" horiz-adv-x="855" 
d="M349 -272q-89 0 -162.5 26t-117 82.5t-43.5 146.5q0 34 9.5 84t46.5 132l122 -47q-22 -54 -30 -84t-8 -61q0 -67 55.5 -103t151.5 -36q74 0 128.5 17.5t88.5 46t46 60.5l1 3h-26q-114 0 -168.5 40.5t-55.5 119.5q0 45 16.5 87.5t45.5 75.5t65.5 52.5t75.5 19.5
q87 0 141 -67.5t61 -186.5h73q38 0 54 -19.5t16 -48.5q0 -32 -21 -52.5t-59 -20.5h-79q-12 -44 -32 -81q-49 -93 -150.5 -139.5t-244.5 -46.5zM523 179q0 -15 8.5 -27t36 -17.5t85.5 -3.5q-2 60 -20 90.5t-47 30.5q-19 0 -33 -12t-22 -28.5t-8 -32.5zM596 615
q-25 0 -43.5 19t-18.5 45t18.5 44t43.5 18q26 0 44 -18t18 -44t-18 -45t-44 -19zM516 483q-25 0 -43.5 19t-18.5 45t18.5 44t43.5 18q26 0 44 -18t18 -44t-18 -45t-44 -19zM671 483q-25 0 -43.5 19t-18.5 45t18.5 44t43.5 18q26 0 44 -18t18 -44t-18 -45t-44 -19z" />
    <glyph glyph-name="uniFED9#0#1" unicode="&#x643;" horiz-adv-x="931" arabic-form="isolated" 
d="M424 -21l26 140q95 -1 153.5 5.5t89 25t40 53t6.5 88.5l-22 441h140l22 -448q5 -91 -13 -150.5t-68 -93t-141 -47.5t-233 -14zM376 216l-26 99q52 13 77 23t25 21q0 12 -14.5 26.5t-29 34.5t-14.5 47q0 38 32.5 70.5t110.5 63.5l43 -89q-42 -17 -56.5 -29.5t-14.5 -23.5
q0 -12 15 -29t29.5 -39t14.5 -49q0 -22 -12.5 -44t-53.5 -42.5t-126 -39.5zM424 -21q-143 0 -229.5 29t-124.5 80t-38 116q0 47 12 96.5t23 87.5l125 -29q-7 -28 -13.5 -59.5t-6.5 -55.5q0 -37 26.5 -65.5t87.5 -44t164 -15.5l20 -108z" />
    <glyph glyph-name="uniFEDA#0#1" unicode="&#x643;" horiz-adv-x="974" arabic-form="final" 
d="M424 -21l26 140q95 -1 153.5 5.5t89 25t40 53t6.5 88.5l-22 441h140l22 -448q3 -60 14 -92t33 -44.5t58 -12.5q37 0 53.5 -19.5t16.5 -48.5q0 -31 -21 -51.5t-59 -20.5q-53 0 -93 16.5t-61 59.5q-37 -43 -94.5 -63t-133.5 -25t-168 -4zM376 216l-26 99q52 13 77 23t25 21
q0 12 -14.5 26.5t-29 34.5t-14.5 47q0 38 32.5 70.5t110.5 63.5l43 -89q-42 -17 -56.5 -29.5t-14.5 -23.5q0 -12 15 -29t29.5 -39t14.5 -49q0 -22 -12.5 -44t-53.5 -42.5t-126 -39.5zM424 -21q-143 0 -229.5 29t-124.5 80t-38 116q0 47 12 96.5t23 87.5l125 -29
q-7 -28 -13.5 -59.5t-6.5 -55.5q0 -37 26.5 -65.5t87.5 -44t164 -15.5l20 -108z" />
    <glyph glyph-name="uniFEDC#0#1" unicode="&#x643;" horiz-adv-x="508" arabic-form="medial" 
d="M0 -5l10 140h140q52 0 69 9t17 28q0 22 -21.5 51.5t-53.5 61.5t-64 62t-53.5 52.5t-21.5 32.5q0 41 6.5 59t17.5 29q23 23 74.5 53t124.5 65.5t160 75.5l57 -122q-99 -44 -167 -77t-115 -60q66 -60 114 -115t91 -125q22 -35 45.5 -52t46 -22.5t40.5 -5.5q38 0 54.5 -19.5
t16.5 -48.5q0 -31 -21 -51.5t-60 -20.5t-85.5 16t-78.5 56q-32 -39 -81.5 -55.5t-121.5 -16.5h-140z" />
    <glyph glyph-name="uniFEDB#0#1" unicode="&#x643;" horiz-adv-x="454" arabic-form="initial" 
d="M0 -5l10 140h143q84 0 84 47q0 12 -12.5 38.5t-53.5 64.5q-22 20 -47.5 42.5t-48.5 43t-38 36.5t-15 23q0 23 4.5 50.5t16.5 37.5q23 21 74.5 52t125 68t162.5 76l57 -122q-84 -36 -154 -70t-123 -65q69 -57 110.5 -102.5t62 -82t27 -65.5t6.5 -51q0 -24 -11.5 -51.5
t-41 -52.5t-82.5 -41t-136 -16h-120z" />
    <glyph glyph-name="uniFB8E#0#1" unicode="&#x6a9;" horiz-adv-x="909" arabic-form="isolated" 
d="M424 -21l26 140q94 0 146.5 5t74 19t21.5 39q0 12 -12.5 38.5t-53.5 64.5q-22 20 -47.5 42.5t-48.5 43t-38 36.5t-15 23q0 23 4.5 50.5t16.5 37.5q23 21 74.5 52t125 68t162.5 76l57 -122q-84 -36 -154 -70t-123 -65q69 -57 110.5 -102.5t62 -82t27 -65.5t6.5 -51
q0 -65 -50.5 -104t-144.5 -56t-227 -17zM424 -21q-143 0 -229.5 29t-124.5 80t-38 116q0 47 12 96.5t23 87.5l125 -29q-7 -28 -13.5 -59.5t-6.5 -55.5q0 -37 26.5 -65.5t87.5 -44t164 -15.5l20 -108z" />
    <glyph glyph-name="uniFB8F#0#1" unicode="&#x6a9;" horiz-adv-x="952" arabic-form="final" 
d="M424 -21l26 140q94 0 143.5 4t68 15t18.5 31q0 22 -21.5 51.5t-53.5 61.5t-64 62t-53.5 52.5t-21.5 32.5q0 41 6.5 59t17.5 29q23 23 74.5 53t124.5 65.5t160 75.5l57 -122q-99 -44 -167 -77t-115 -60q66 -60 114 -115t91 -125q22 -35 45.5 -51.5t46 -21t40.5 -4.5
q38 0 54.5 -21t16.5 -50q0 -31 -21 -50t-60 -19t-85 15t-79 53q-26 -35 -69 -53t-113.5 -24.5t-180.5 -6.5zM424 -21q-143 0 -229.5 29t-124.5 80t-38 116q0 47 12 96.5t23 87.5l125 -29q-7 -28 -13.5 -59.5t-6.5 -55.5q0 -37 26.5 -65.5t87.5 -44t164 -15.5l20 -108z" />
    <glyph glyph-name="uniFB91#0#1" unicode="&#x6a9;" horiz-adv-x="508" arabic-form="medial" 
d="M0 -5l10 140h140q52 0 69 9t17 28q0 22 -21.5 51.5t-53.5 61.5t-64 62t-53.5 52.5t-21.5 32.5q0 41 6.5 59t17.5 29q23 23 74.5 53t124.5 65.5t160 75.5l57 -122q-99 -44 -167 -77t-115 -60q66 -60 114 -115t91 -125q22 -35 45.5 -52t46 -22.5t40.5 -5.5q38 0 54.5 -19.5
t16.5 -48.5q0 -31 -21 -51.5t-60 -20.5t-85.5 16t-78.5 56q-32 -39 -81.5 -55.5t-121.5 -16.5h-140z" />
    <glyph glyph-name="uniFB90#0#1" unicode="&#x6a9;" horiz-adv-x="454" arabic-form="initial" 
d="M0 -5l10 140h143q84 0 84 47q0 12 -12.5 38.5t-53.5 64.5q-22 20 -47.5 42.5t-48.5 43t-38 36.5t-15 23q0 23 4.5 50.5t16.5 37.5q23 21 74.5 52t125 68t162.5 76l57 -122q-84 -36 -154 -70t-123 -65q69 -57 110.5 -102.5t62 -82t27 -65.5t6.5 -51q0 -24 -11.5 -51.5
t-41 -52.5t-82.5 -41t-136 -16h-120z" />
    <glyph glyph-name="uni063B.init#0#1" unicode="&#x63b;" horiz-adv-x="454" 
d="M0 -5l10 140h143q84 0 84 47q0 12 -12.5 38.5t-53.5 64.5q-22 20 -47.5 42.5t-48.5 43t-38 36.5t-15 23q0 23 4.5 50.5t16.5 37.5q23 21 74.5 52t125 68t162.5 76l57 -122q-84 -36 -154 -70t-123 -65q69 -57 110.5 -102.5t62 -82t27 -65.5t6.5 -51q0 -24 -11.5 -51.5
t-41 -52.5t-82.5 -41t-136 -16h-120zM230.703 741.107q-21.7002 0 -36.751 14.7002q-15.0498 14.7002 -15.0498 36.4014q0 21.7002 15.0498 37.1006q15.0508 15.4004 36.751 15.4004q21 0 36.0508 -15.4004q15.0498 -15.4004 15.0498 -37.1006q0 -21.7012 -15.0498 -36.4014
q-15.0508 -14.7002 -36.0508 -14.7002zM118.701 678.807q-21.7002 0 -36.751 14.7002q-15.0498 14.7002 -15.0498 36.4004t15.0498 37.1006q15.0508 15.4004 36.751 15.4004q21 0 36.0508 -15.4004q15.0498 -15.4004 15.0498 -37.1006t-15.0498 -36.4004
q-15.0508 -14.7002 -36.0508 -14.7002z" />
    <glyph glyph-name="uni063B.medi#0#1" unicode="&#x63b;" horiz-adv-x="508" 
d="M0 -5l10 140h140q52 0 69 9t17 28q0 22 -21.5 51.5t-53.5 61.5t-64 62t-53.5 52.5t-21.5 32.5q0 41 6.5 59t17.5 29q23 23 74.5 53t124.5 65.5t160 75.5l57 -122q-99 -44 -167 -77t-115 -60q66 -60 114 -115t91 -125q22 -35 45.5 -52t46 -22.5t40.5 -5.5q38 0 54.5 -19.5
t16.5 -48.5q0 -31 -21 -51.5t-60 -20.5t-85.5 16t-78.5 56q-32 -39 -81.5 -55.5t-121.5 -16.5h-140zM227.703 739.107q-21.7002 0 -36.751 14.7002q-15.0498 14.7002 -15.0498 36.4014q0 21.7002 15.0498 37.1006q15.0508 15.4004 36.751 15.4004q21 0 36.0508 -15.4004
q15.0498 -15.4004 15.0498 -37.1006q0 -21.7012 -15.0498 -36.4014q-15.0508 -14.7002 -36.0508 -14.7002zM115.701 676.807q-21.7002 0 -36.751 14.7002q-15.0498 14.7002 -15.0498 36.4004t15.0498 37.1006q15.0508 15.4004 36.751 15.4004q21 0 36.0508 -15.4004
q15.0498 -15.4004 15.0498 -37.1006t-15.0498 -36.4004q-15.0508 -14.7002 -36.0508 -14.7002z" />
    <glyph glyph-name="uni063B.fina#0#1" unicode="&#x63b;" horiz-adv-x="952" 
d="M424 -21l26 140q94 0 143.5 4t68 15t18.5 31q0 22 -21.5 51.5t-53.5 61.5t-64 62t-53.5 52.5t-21.5 32.5q0 41 6.5 59t17.5 29q23 23 74.5 53t124.5 65.5t160 75.5l57 -122q-99 -44 -167 -77t-115 -60q66 -60 114 -115t91 -125q22 -35 45.5 -51.5t46 -21t40.5 -4.5
q38 0 54.5 -21t16.5 -50q0 -31 -21 -50t-60 -19t-85 15t-79 53q-26 -35 -69 -53t-113.5 -24.5t-180.5 -6.5zM424 -21q-143 0 -229.5 29t-124.5 80t-38 116q0 47 12 96.5t23 87.5l125 -29q-7 -28 -13.5 -59.5t-6.5 -55.5q0 -37 26.5 -65.5t87.5 -44t164 -15.5l20 -108z
M672.703 741.107q-21.7002 0 -36.751 14.7002q-15.0498 14.7002 -15.0498 36.4014q0 21.7002 15.0498 37.1006q15.0508 15.4004 36.751 15.4004q21 0 36.0508 -15.4004q15.0498 -15.4004 15.0498 -37.1006q0 -21.7012 -15.0498 -36.4014
q-15.0508 -14.7002 -36.0508 -14.7002zM560.701 678.807q-21.7002 0 -36.751 14.7002q-15.0498 14.7002 -15.0498 36.4004t15.0498 37.1006q15.0508 15.4004 36.751 15.4004q21 0 36.0508 -15.4004q15.0498 -15.4004 15.0498 -37.1006t-15.0498 -36.4004
q-15.0508 -14.7002 -36.0508 -14.7002z" />
    <glyph glyph-name="uni063C.init#0#1" unicode="&#x63c;" horiz-adv-x="454" 
d="M0 -5l10 140h143q84 0 84 47q0 12 -12.5 38.5t-53.5 64.5q-22 20 -47.5 42.5t-48.5 43t-38 36.5t-15 23q0 23 4.5 50.5t16.5 37.5q23 21 74.5 52t125 68t162.5 76l57 -122q-84 -36 -154 -70t-123 -65q69 -57 110.5 -102.5t62 -82t27 -65.5t6.5 -51q0 -24 -11.5 -51.5
t-41 -52.5t-82.5 -41t-136 -16h-120zM124 -219q-26 0 -44.5 18t-18.5 44t18.5 45t44.5 19t44 -19t18 -45t-18 -44t-44 -18zM280 -219q-26 0 -44.5 18t-18.5 44t18.5 45t44.5 19t44 -19t18 -45t-18 -44t-44 -18zM200 -351q-26 0 -44.5 18t-18.5 44t18.5 45t44.5 19t44 -19
t18 -45t-18 -44t-44 -18z" />
    <glyph glyph-name="uni063C.medi#0#1" unicode="&#x63c;" horiz-adv-x="508" 
d="M0 -5l10 140h140q52 0 69 9t17 28q0 22 -21.5 51.5t-53.5 61.5t-64 62t-53.5 52.5t-21.5 32.5q0 41 6.5 59t17.5 29q23 23 74.5 53t124.5 65.5t160 75.5l57 -122q-99 -44 -167 -77t-115 -60q66 -60 114 -115t91 -125q22 -35 45.5 -52t46 -22.5t40.5 -5.5q38 0 54.5 -19.5
t16.5 -48.5q0 -31 -21 -51.5t-60 -20.5t-85.5 16t-78.5 56q-32 -39 -81.5 -55.5t-121.5 -16.5h-140zM124 -219q-26 0 -44.5 18t-18.5 44t18.5 45t44.5 19t44 -19t18 -45t-18 -44t-44 -18zM280 -219q-26 0 -44.5 18t-18.5 44t18.5 45t44.5 19t44 -19t18 -45t-18 -44t-44 -18z
M200 -351q-26 0 -44.5 18t-18.5 44t18.5 45t44.5 19t44 -19t18 -45t-18 -44t-44 -18z" />
    <glyph glyph-name="uni063C.fina#0#1" unicode="&#x63c;" horiz-adv-x="952" 
d="M424 -21l26 140q94 0 143.5 4t68 15t18.5 31q0 22 -21.5 51.5t-53.5 61.5t-64 62t-53.5 52.5t-21.5 32.5q0 41 6.5 59t17.5 29q23 23 74.5 53t124.5 65.5t160 75.5l57 -122q-99 -44 -167 -77t-115 -60q66 -60 114 -115t91 -125q22 -35 45.5 -51.5t46 -21t40.5 -4.5
q38 0 54.5 -21t16.5 -50q0 -31 -21 -50t-60 -19t-85 15t-79 53q-26 -35 -69 -53t-113.5 -24.5t-180.5 -6.5zM424 -21q-143 0 -229.5 29t-124.5 80t-38 116q0 47 12 96.5t23 87.5l125 -29q-7 -28 -13.5 -59.5t-6.5 -55.5q0 -37 26.5 -65.5t87.5 -44t164 -15.5l20 -108z
M371 -240q-26 0 -44.5 18t-18.5 44t18.5 45t44.5 19t44 -19t18 -45t-18 -44t-44 -18zM527 -240q-26 0 -44.5 18t-18.5 44t18.5 45t44.5 19t44 -19t18 -45t-18 -44t-44 -18zM447 -372q-26 0 -44.5 18t-18.5 44t18.5 45t44.5 19t44 -19t18 -45t-18 -44t-44 -18z" />
    <glyph glyph-name="uniFB92#0#1" unicode="&#x6af;" horiz-adv-x="909" arabic-form="isolated" 
d="M424 -21l26 140q94 0 146.5 5t74 19t21.5 39q0 12 -12.5 38.5t-53.5 64.5q-22 20 -47.5 42.5t-48.5 43t-38 36.5t-15 23q0 23 4.5 50.5t16.5 37.5q23 21 74.5 52t125 68t162.5 76l57 -122q-84 -36 -154 -70t-123 -65q69 -57 110.5 -102.5t62 -82t27 -65.5t6.5 -51
q0 -65 -50.5 -104t-144.5 -56t-227 -17zM424 -21q-143 0 -229.5 29t-124.5 80t-38 116q0 47 12 96.5t23 87.5l125 -29q-7 -28 -13.5 -59.5t-6.5 -55.5q0 -37 26.5 -65.5t87.5 -44t164 -15.5l20 -108zM465 585l-49 82q49 29 101 58.5t116.5 64t151.5 78.5l46 -88
q-89 -43 -153.5 -77t-115 -62.5t-97.5 -55.5z" />
    <glyph glyph-name="uniFB93#0#1" unicode="&#x6af;" horiz-adv-x="952" arabic-form="final" 
d="M424 -21l26 140q94 0 143.5 4t68 15t18.5 31q0 22 -21.5 51.5t-53.5 61.5t-64 62t-53.5 52.5t-21.5 32.5q0 41 6.5 59t17.5 29q23 23 74.5 53t124.5 65.5t160 75.5l57 -122q-99 -44 -167 -77t-115 -60q66 -60 114 -115t91 -125q22 -35 45.5 -51.5t46 -21t40.5 -4.5
q38 0 54.5 -21t16.5 -50q0 -31 -21 -50t-60 -19t-85 15t-79 53q-26 -35 -69 -53t-113.5 -24.5t-180.5 -6.5zM424 -21q-143 0 -229.5 29t-124.5 80t-38 116q0 47 12 96.5t23 87.5l125 -29q-7 -28 -13.5 -59.5t-6.5 -55.5q0 -37 26.5 -65.5t87.5 -44t164 -15.5l20 -108z
M453 585l-49 82q49 29 101 58.5t116.5 64t151.5 78.5l46 -88q-89 -43 -153.5 -77t-115 -62.5t-97.5 -55.5z" />
    <glyph glyph-name="uniFB95#0#1" unicode="&#x6af;" horiz-adv-x="508" arabic-form="medial" 
d="M0 -5l10 140h140q52 0 69 9t17 28q0 22 -21.5 51.5t-53.5 61.5t-64 62t-53.5 52.5t-21.5 32.5q0 41 6.5 59t17.5 29q23 23 74.5 53t124.5 65.5t160 75.5l57 -122q-99 -44 -167 -77t-115 -60q66 -60 114 -115t91 -125q22 -35 45.5 -52t46 -22.5t40.5 -5.5q38 0 54.5 -19.5
t16.5 -48.5q0 -31 -21 -51.5t-60 -20.5t-85.5 16t-78.5 56q-32 -39 -81.5 -55.5t-121.5 -16.5h-140zM8 585l-49 82q49 29 101 58.5t116.5 64t151.5 78.5l46 -88q-89 -43 -153.5 -77t-115 -62.5t-97.5 -55.5z" />
    <glyph glyph-name="uniFB94#0#1" unicode="&#x6af;" horiz-adv-x="454" arabic-form="initial" 
d="M0 -5l10 140h143q84 0 84 47q0 12 -12.5 38.5t-53.5 64.5q-22 20 -47.5 42.5t-48.5 43t-38 36.5t-15 23q0 23 4.5 50.5t16.5 37.5q23 21 74.5 52t125 68t162.5 76l57 -122q-84 -36 -154 -70t-123 -65q69 -57 110.5 -102.5t62 -82t27 -65.5t6.5 -51q0 -24 -11.5 -51.5
t-41 -52.5t-82.5 -41t-136 -16h-120zM3 585l-49 82q49 29 101 58.5t116.5 64t151.5 78.5l46 -88q-89 -43 -153.5 -77t-115 -62.5t-97.5 -55.5z" />
    <glyph glyph-name="uni06B0.init#0#1" unicode="&#x6b0;" horiz-adv-x="454" 
d="M0 -5l10 140h143q84 0 84 47q0 12 -12.5 38.5t-53.5 64.5q-22 20 -47.5 42.5t-48.5 43t-38 36.5t-15 23q0 23 4.5 50.5t16.5 37.5q23 21 74.5 52t125 68t162.5 76l57 -122q-84 -36 -154 -70t-123 -65q69 -57 110.5 -102.5t62 -82t27 -65.5t6.5 -51q0 -24 -11.5 -51.5
t-41 -52.5t-82.5 -41t-136 -16h-120zM3 585l-49 82q49 29 101 58.5t116.5 64t151.5 78.5l46 -88q-89 -43 -153.5 -77t-115 -62.5t-97.5 -55.5zM345 400q-42 0 -71 29.5t-29 70.5t29 70.5t71 29.5q41 0 70.5 -29.5t29.5 -70.5t-29.5 -70.5t-70.5 -29.5zM344 466
q16 0 26.5 9.5t10.5 24.5q0 16 -10.5 25.5t-26.5 9.5q-15 0 -25.5 -10t-10.5 -25t10.5 -24.5t25.5 -9.5z" />
    <glyph glyph-name="uni06B0.medi#0#1" unicode="&#x6b0;" horiz-adv-x="508" 
d="M0 -5l10 140h140q52 0 69 9t17 28q0 22 -21.5 51.5t-53.5 61.5t-64 62t-53.5 52.5t-21.5 32.5q0 41 6.5 59t17.5 29q23 23 74.5 53t124.5 65.5t160 75.5l57 -122q-99 -44 -167 -77t-115 -60q66 -60 114 -115t91 -125q22 -35 45.5 -52t46 -22.5t40.5 -5.5q38 0 54.5 -19.5
t16.5 -48.5q0 -31 -21 -51.5t-60 -20.5t-85.5 16t-78.5 56q-32 -39 -81.5 -55.5t-121.5 -16.5h-140zM8 585l-49 82q49 29 101 58.5t116.5 64t151.5 78.5l46 -88q-89 -43 -153.5 -77t-115 -62.5t-97.5 -55.5zM346 400q-42 0 -71 29.5t-29 70.5t29 70.5t71 29.5
q41 0 70.5 -29.5t29.5 -70.5t-29.5 -70.5t-70.5 -29.5zM345 466q16 0 26.5 9.5t10.5 24.5q0 16 -10.5 25.5t-26.5 9.5q-15 0 -25.5 -10t-10.5 -25t10.5 -24.5t25.5 -9.5z" />
    <glyph glyph-name="uni06B0.fina#0#1" unicode="&#x6b0;" horiz-adv-x="952" 
d="M424 -21l26 140q94 0 143.5 4t68 15t18.5 31q0 22 -21.5 51.5t-53.5 61.5t-64 62t-53.5 52.5t-21.5 32.5q0 41 6.5 59t17.5 29q23 23 74.5 53t124.5 65.5t160 75.5l57 -122q-99 -44 -167 -77t-115 -60q66 -60 114 -115t91 -125q22 -35 45.5 -51.5t46 -21t40.5 -4.5
q38 0 54.5 -21t16.5 -50q0 -31 -21 -50t-60 -19t-85 15t-79 53q-26 -35 -69 -53t-113.5 -24.5t-180.5 -6.5zM424 -21q-143 0 -229.5 29t-124.5 80t-38 116q0 47 12 96.5t23 87.5l125 -29q-7 -28 -13.5 -59.5t-6.5 -55.5q0 -37 26.5 -65.5t87.5 -44t164 -15.5l20 -108z
M453 585l-49 82q49 29 101 58.5t116.5 64t151.5 78.5l46 -88q-89 -43 -153.5 -77t-115 -62.5t-97.5 -55.5zM800 400q-42 0 -71 29.5t-29 70.5t29 70.5t71 29.5q41 0 70.5 -29.5t29.5 -70.5t-29.5 -70.5t-70.5 -29.5zM799 466q16 0 26.5 9.5t10.5 24.5q0 16 -10.5 25.5
t-26.5 9.5q-15 0 -25.5 -10t-10.5 -25t10.5 -24.5t25.5 -9.5z" />
    <glyph glyph-name="uni06B4.init#0#1" unicode="&#x6b4;" horiz-adv-x="454" 
d="M0 -5l10 140h143q84 0 84 47q0 12 -12.5 38.5t-53.5 64.5q-22 20 -47.5 42.5t-48.5 43t-38 36.5t-15 23q0 23 4.5 50.5t16.5 37.5q23 21 74.5 52t125 68t162.5 76l57 -122q-84 -36 -154 -70t-123 -65q69 -57 110.5 -102.5t62 -82t27 -65.5t6.5 -51q0 -24 -11.5 -51.5
t-41 -52.5t-82.5 -41t-136 -16h-120zM3 585l-49 82q49 29 101 58.5t116.5 64t151.5 78.5l46 -88q-89 -43 -153.5 -77t-115 -62.5t-97.5 -55.5zM41.7012 919.109q-21.7002 0 -36.751 14.7002q-15.0498 14.7002 -15.0498 36.4014q0 21.7002 15.0498 37.1006
q15.0508 15.4004 36.751 15.4004q21 0 36.0508 -15.4004q15.0498 -15.4004 15.0498 -37.1006q0 -21.7012 -15.0498 -36.4014q-15.0508 -14.7002 -36.0508 -14.7002zM146.703 860.309q-21.7002 0 -36.751 14.7002q-15.0498 14.7002 -15.0498 36.4004
q0 21.7012 15.0498 37.1006q15.0508 15.4004 36.751 15.4004q21 0 36.0508 -15.4004q15.0498 -15.3994 15.0498 -37.1006q0 -21.7002 -15.0498 -36.4004q-15.0508 -14.7002 -36.0508 -14.7002zM41.7012 798.708q-21.7002 0 -36.751 14.7002
q-15.0498 14.7002 -15.0498 36.4004t15.0498 37.1006q15.0508 15.4004 36.751 15.4004q21 0 36.0508 -15.4004q15.0498 -15.4004 15.0498 -37.1006t-15.0498 -36.4004q-15.0508 -14.7002 -36.0508 -14.7002z" />
    <glyph glyph-name="uni06B4.medi#0#1" unicode="&#x6b4;" horiz-adv-x="508" 
d="M0 -5l10 140h140q52 0 69 9t17 28q0 22 -21.5 51.5t-53.5 61.5t-64 62t-53.5 52.5t-21.5 32.5q0 41 6.5 59t17.5 29q23 23 74.5 53t124.5 65.5t160 75.5l57 -122q-99 -44 -167 -77t-115 -60q66 -60 114 -115t91 -125q22 -35 45.5 -52t46 -22.5t40.5 -5.5q38 0 54.5 -19.5
t16.5 -48.5q0 -31 -21 -51.5t-60 -20.5t-85.5 16t-78.5 56q-32 -39 -81.5 -55.5t-121.5 -16.5h-140zM8 585l-49 82q49 29 101 58.5t116.5 64t151.5 78.5l46 -88q-89 -43 -153.5 -77t-115 -62.5t-97.5 -55.5zM42.7012 919.109q-21.7002 0 -36.751 14.7002
q-15.0498 14.7002 -15.0498 36.4014q0 21.7002 15.0498 37.1006q15.0508 15.4004 36.751 15.4004q21 0 36.0508 -15.4004q15.0498 -15.4004 15.0498 -37.1006q0 -21.7012 -15.0498 -36.4014q-15.0508 -14.7002 -36.0508 -14.7002zM147.703 860.309
q-21.7002 0 -36.751 14.7002q-15.0498 14.7002 -15.0498 36.4004q0 21.7012 15.0498 37.1006q15.0508 15.4004 36.751 15.4004q21 0 36.0508 -15.4004q15.0498 -15.3994 15.0498 -37.1006q0 -21.7002 -15.0498 -36.4004q-15.0508 -14.7002 -36.0508 -14.7002z
M42.7012 798.708q-21.7002 0 -36.751 14.7002q-15.0498 14.7002 -15.0498 36.4004t15.0498 37.1006q15.0508 15.4004 36.751 15.4004q21 0 36.0508 -15.4004q15.0498 -15.4004 15.0498 -37.1006t-15.0498 -36.4004q-15.0508 -14.7002 -36.0508 -14.7002z" />
    <glyph glyph-name="uni06B4.fina#0#1" unicode="&#x6b4;" horiz-adv-x="952" 
d="M424 -21l26 140q94 0 143.5 4t68 15t18.5 31q0 22 -21.5 51.5t-53.5 61.5t-64 62t-53.5 52.5t-21.5 32.5q0 41 6.5 59t17.5 29q23 23 74.5 53t124.5 65.5t160 75.5l57 -122q-99 -44 -167 -77t-115 -60q66 -60 114 -115t91 -125q22 -35 45.5 -51.5t46 -21t40.5 -4.5
q38 0 54.5 -21t16.5 -50q0 -31 -21 -50t-60 -19t-85 15t-79 53q-26 -35 -69 -53t-113.5 -24.5t-180.5 -6.5zM424 -21q-143 0 -229.5 29t-124.5 80t-38 116q0 47 12 96.5t23 87.5l125 -29q-7 -28 -13.5 -59.5t-6.5 -55.5q0 -37 26.5 -65.5t87.5 -44t164 -15.5l20 -108z
M453 585l-49 82q49 29 101 58.5t116.5 64t151.5 78.5l46 -88q-89 -43 -153.5 -77t-115 -62.5t-97.5 -55.5zM487.701 924.109q-21.7002 0 -36.751 14.7002q-15.0498 14.7002 -15.0498 36.4014q0 21.7002 15.0498 37.1006q15.0508 15.3994 36.751 15.3994
q21 0 36.0508 -15.3994q15.0498 -15.4004 15.0498 -37.1006q0 -21.7012 -15.0498 -36.4014q-15.0508 -14.7002 -36.0508 -14.7002zM592.703 865.309q-21.7002 0 -36.751 14.7002q-15.0498 14.7002 -15.0498 36.4004q0 21.7012 15.0498 37.1006
q15.0508 15.4004 36.751 15.4004q21 0 36.0508 -15.4004q15.0498 -15.3994 15.0498 -37.1006q0 -21.7002 -15.0498 -36.4004q-15.0508 -14.7002 -36.0508 -14.7002zM487.701 803.708q-21.7002 0 -36.751 14.7002q-15.0498 14.7002 -15.0498 36.4004t15.0498 37.1006
q15.0508 15.4004 36.751 15.4004q21 0 36.0508 -15.4004q15.0498 -15.4004 15.0498 -37.1006t-15.0498 -36.4004q-15.0508 -14.7002 -36.0508 -14.7002z" />
    <glyph glyph-name="uni06AA.init#0#1" unicode="&#x6aa;" horiz-adv-x="813" 
d="M0 -5l10 140h309q115 0 183 1t98.5 7.5t30.5 23.5t-16.5 27.5t-62.5 18t-135 15.5q-113 10 -180.5 27t-97 46.5t-29.5 76.5q0 66 50.5 115t142 83t213.5 52l27 -137q-136 -20 -215.5 -46.5t-79.5 -46.5q0 -11 18 -18t60.5 -12.5t116.5 -11.5q126 -10 197 -32.5t100 -61
t29 -99.5q0 -67 -44 -103.5t-142.5 -50.5t-263.5 -14h-319z" />
    <glyph glyph-name="uni06AA.medi#0#1" unicode="&#x6aa;" horiz-adv-x="900" 
d="M0 -5l10 140h309q115 0 183 1t98.5 7.5t30.5 23.5t-16.5 27.5t-62.5 18t-135 15.5q-113 10 -180.5 27t-97 46.5t-29.5 76.5q0 66 50.5 115t142 83t213.5 52l27 -137q-136 -20 -215.5 -46.5t-79.5 -46.5q0 -11 18 -18t60.5 -12.5t116.5 -11.5q126 -10 197 -32.5t100 -61
t29 -99.5q0 -67 -44 -103.5t-142.5 -50.5t-263.5 -14h-319zM899 -5q-77 0 -143 20.5t-101 50.5l90 97q36 -15 74 -21.5t90 -6.5q38 0 54.5 -19.5t16.5 -48.5q0 -31 -21 -51.5t-60 -20.5z" />
    <glyph glyph-name="uni06AA.fina#0#1" unicode="&#x6aa;" horiz-adv-x="1122" 
d="M1121 -5q-77 0 -143 20.5t-101 50.5l90 97q36 -15 74 -21.5t90 -6.5q38 0 54.5 -19.5t16.5 -48.5q0 -31 -21 -51.5t-60 -20.5zM540 -15q-48 0 -112.5 1t-134 3t-133.5 6t-111 9l6 138q67 -4 147.5 -8t167 -6.5t170.5 -2.5q115 0 183 3t98.5 11.5t30.5 24.5q0 11 -7 20
t-28.5 16.5t-64 14.5t-114.5 13q-112 10 -180 26t-98 46.5t-30 82.5q0 51 31 90.5t86.5 69t129.5 51t160 34.5l27 -137q-137 -21 -216.5 -47t-79.5 -46q0 -15 42.5 -24t153.5 -18q126 -10 197 -33t100 -62t29 -98q0 -67 -44 -106t-142.5 -55.5t-263.5 -16.5z" />
    <glyph glyph-name="uni06AB.init#0#1" unicode="&#x6ab;" horiz-adv-x="454" 
d="M0 -5l10 140h143q84 0 84 47q0 12 -12.5 38.5t-53.5 64.5q-22 20 -47.5 42.5t-48.5 43t-38 36.5t-15 23q0 23 4.5 50.5t16.5 37.5q23 21 74.5 52t125 68t162.5 76l57 -122q-84 -36 -154 -70t-123 -65q69 -57 110.5 -102.5t62 -82t27 -65.5t6.5 -51q0 -24 -11.5 -51.5
t-41 -52.5t-82.5 -41t-136 -16h-120zM345 400q-42 0 -71 29.5t-29 70.5t29 70.5t71 29.5q41 0 70.5 -29.5t29.5 -70.5t-29.5 -70.5t-70.5 -29.5zM344 466q16 0 26.5 9.5t10.5 24.5q0 16 -10.5 25.5t-26.5 9.5q-15 0 -25.5 -10t-10.5 -25t10.5 -24.5t25.5 -9.5z" />
    <glyph glyph-name="uni06AB.medi#0#1" unicode="&#x6ab;" horiz-adv-x="508" 
d="M0 -5l10 140h140q52 0 69 9t17 28q0 22 -21.5 51.5t-53.5 61.5t-64 62t-53.5 52.5t-21.5 32.5q0 41 6.5 59t17.5 29q23 23 74.5 53t124.5 65.5t160 75.5l57 -122q-99 -44 -167 -77t-115 -60q66 -60 114 -115t91 -125q22 -35 45.5 -52t46 -22.5t40.5 -5.5q38 0 54.5 -19.5
t16.5 -48.5q0 -31 -21 -51.5t-60 -20.5t-85.5 16t-78.5 56q-32 -39 -81.5 -55.5t-121.5 -16.5h-140zM346 400q-42 0 -71 29.5t-29 70.5t29 70.5t71 29.5q41 0 70.5 -29.5t29.5 -70.5t-29.5 -70.5t-70.5 -29.5zM345 466q16 0 26.5 9.5t10.5 24.5q0 16 -10.5 25.5t-26.5 9.5
q-15 0 -25.5 -10t-10.5 -25t10.5 -24.5t25.5 -9.5z" />
    <glyph glyph-name="uni06AB.fina#0#1" unicode="&#x6ab;" horiz-adv-x="952" 
d="M424 -21l26 140q94 0 143.5 4t68 15t18.5 31q0 22 -21.5 51.5t-53.5 61.5t-64 62t-53.5 52.5t-21.5 32.5q0 41 6.5 59t17.5 29q23 23 74.5 53t124.5 65.5t160 75.5l57 -122q-99 -44 -167 -77t-115 -60q66 -60 114 -115t91 -125q22 -35 45.5 -51.5t46 -21t40.5 -4.5
q38 0 54.5 -21t16.5 -50q0 -31 -21 -50t-60 -19t-85 15t-79 53q-26 -35 -69 -53t-113.5 -24.5t-180.5 -6.5zM424 -21q-143 0 -229.5 29t-124.5 80t-38 116q0 47 12 96.5t23 87.5l125 -29q-7 -28 -13.5 -59.5t-6.5 -55.5q0 -37 26.5 -65.5t87.5 -44t164 -15.5l20 -108z
M800 400q-42 0 -71 29.5t-29 70.5t29 70.5t71 29.5q41 0 70.5 -29.5t29.5 -70.5t-29.5 -70.5t-70.5 -29.5zM799 466q16 0 26.5 9.5t10.5 24.5q0 16 -10.5 25.5t-26.5 9.5q-15 0 -25.5 -10t-10.5 -25t10.5 -24.5t25.5 -9.5z" />
    <glyph glyph-name="uni06AC.init#0#1" unicode="&#x6ac;" horiz-adv-x="454" 
d="M0 -5l10 140h143q84 0 84 47q0 12 -12.5 38.5t-53.5 64.5q-22 20 -47.5 42.5t-48.5 43t-38 36.5t-15 23q0 23 4.5 50.5t16.5 37.5q23 21 74.5 52t125 68t162.5 76l57 -122q-84 -36 -154 -70t-123 -65q69 -57 110.5 -102.5t62 -82t27 -65.5t6.5 -51q0 -24 -11.5 -51.5
t-41 -52.5t-82.5 -41t-136 -16h-120zM153 729q-31 0 -52.5 21t-21.5 52t21.5 53t52.5 22q30 0 51.5 -22t21.5 -53t-21.5 -52t-51.5 -21z" />
    <glyph glyph-name="uni06AC.medi#0#1" unicode="&#x6ac;" horiz-adv-x="508" 
d="M0 -5l10 140h140q52 0 69 9t17 28q0 22 -21.5 51.5t-53.5 61.5t-64 62t-53.5 52.5t-21.5 32.5q0 41 6.5 59t17.5 29q23 23 74.5 53t124.5 65.5t160 75.5l57 -122q-99 -44 -167 -77t-115 -60q66 -60 114 -115t91 -125q22 -35 45.5 -52t46 -22.5t40.5 -5.5q38 0 54.5 -19.5
t16.5 -48.5q0 -31 -21 -51.5t-60 -20.5t-85.5 16t-78.5 56q-32 -39 -81.5 -55.5t-121.5 -16.5h-140zM135 729q-31 0 -52.5 21t-21.5 52t21.5 53t52.5 22q30 0 51.5 -22t21.5 -53t-21.5 -52t-51.5 -21z" />
    <glyph glyph-name="uni06AC.fina#0#1" unicode="&#x6ac;" horiz-adv-x="974" 
d="M424 -21l26 140q95 -1 153.5 5.5t89 25t40 53t6.5 88.5l-22 441h140l22 -448q3 -60 14 -92t33 -44.5t58 -12.5q37 0 53.5 -19.5t16.5 -48.5q0 -31 -21 -51.5t-59 -20.5q-53 0 -93 16.5t-61 59.5q-37 -43 -94.5 -63t-133.5 -25t-168 -4zM376 216l-26 99q52 13 77 23t25 21
q0 12 -14.5 26.5t-29 34.5t-14.5 47q0 38 32.5 70.5t110.5 63.5l43 -89q-42 -17 -56.5 -29.5t-14.5 -23.5q0 -12 15 -29t29.5 -39t14.5 -49q0 -22 -12.5 -44t-53.5 -42.5t-126 -39.5zM424 -21q-143 0 -229.5 29t-124.5 80t-38 116q0 47 12 96.5t23 87.5l125 -29
q-7 -28 -13.5 -59.5t-6.5 -55.5q0 -37 26.5 -65.5t87.5 -44t164 -15.5l20 -108zM468 678q-31 0 -52.5 21t-21.5 52t21.5 53t52.5 22q30 0 51.5 -22t21.5 -53t-21.5 -52t-51.5 -21z" />
    <glyph glyph-name="uni06AE.init#0#1" unicode="&#x6ae;" horiz-adv-x="454" 
d="M0 -5l10 140h143q84 0 84 47q0 12 -12.5 38.5t-53.5 64.5q-22 20 -47.5 42.5t-48.5 43t-38 36.5t-15 23q0 23 4.5 50.5t16.5 37.5q23 21 74.5 52t125 68t162.5 76l57 -122q-84 -36 -154 -70t-123 -65q69 -57 110.5 -102.5t62 -82t27 -65.5t6.5 -51q0 -24 -11.5 -51.5
t-41 -52.5t-82.5 -41t-136 -16h-120zM124 -219q-26 0 -44.5 18t-18.5 44t18.5 45t44.5 19t44 -19t18 -45t-18 -44t-44 -18zM280 -219q-26 0 -44.5 18t-18.5 44t18.5 45t44.5 19t44 -19t18 -45t-18 -44t-44 -18zM200 -351q-26 0 -44.5 18t-18.5 44t18.5 45t44.5 19t44 -19
t18 -45t-18 -44t-44 -18z" />
    <glyph glyph-name="uni06AE.medi#0#1" unicode="&#x6ae;" horiz-adv-x="508" 
d="M0 -5l10 140h140q52 0 69 9t17 28q0 22 -21.5 51.5t-53.5 61.5t-64 62t-53.5 52.5t-21.5 32.5q0 41 6.5 59t17.5 29q23 23 74.5 53t124.5 65.5t160 75.5l57 -122q-99 -44 -167 -77t-115 -60q66 -60 114 -115t91 -125q22 -35 45.5 -52t46 -22.5t40.5 -5.5q38 0 54.5 -19.5
t16.5 -48.5q0 -31 -21 -51.5t-60 -20.5t-85.5 16t-78.5 56q-32 -39 -81.5 -55.5t-121.5 -16.5h-140zM124 -219q-26 0 -44.5 18t-18.5 44t18.5 45t44.5 19t44 -19t18 -45t-18 -44t-44 -18zM280 -219q-26 0 -44.5 18t-18.5 44t18.5 45t44.5 19t44 -19t18 -45t-18 -44t-44 -18z
M200 -351q-26 0 -44.5 18t-18.5 44t18.5 45t44.5 19t44 -19t18 -45t-18 -44t-44 -18z" />
    <glyph glyph-name="uni06AE.fina#0#1" unicode="&#x6ae;" horiz-adv-x="974" 
d="M424 -21l26 140q95 -1 153.5 5.5t89 25t40 53t6.5 88.5l-22 441h140l22 -448q3 -60 14 -92t33 -44.5t58 -12.5q37 0 53.5 -19.5t16.5 -48.5q0 -31 -21 -51.5t-59 -20.5q-53 0 -93 16.5t-61 59.5q-37 -43 -94.5 -63t-133.5 -25t-168 -4zM376 216l-26 99q52 13 77 23t25 21
q0 12 -14.5 26.5t-29 34.5t-14.5 47q0 38 32.5 70.5t110.5 63.5l43 -89q-42 -17 -56.5 -29.5t-14.5 -23.5q0 -12 15 -29t29.5 -39t14.5 -49q0 -22 -12.5 -44t-53.5 -42.5t-126 -39.5zM424 -21q-143 0 -229.5 29t-124.5 80t-38 116q0 47 12 96.5t23 87.5l125 -29
q-7 -28 -13.5 -59.5t-6.5 -55.5q0 -37 26.5 -65.5t87.5 -44t164 -15.5l20 -108zM355 -240q-26 0 -44.5 18t-18.5 44t18.5 45t44.5 19t44 -19t18 -45t-18 -44t-44 -18zM511 -240q-26 0 -44.5 18t-18.5 44t18.5 45t44.5 19t44 -19t18 -45t-18 -44t-44 -18zM431 -372
q-26 0 -44.5 18t-18.5 44t18.5 45t44.5 19t44 -19t18 -45t-18 -44t-44 -18z" />
    <glyph glyph-name="uni06B2.init#0#1" unicode="&#x6b2;" horiz-adv-x="454" 
d="M0 -5l10 140h143q84 0 84 47q0 12 -12.5 38.5t-53.5 64.5q-22 20 -47.5 42.5t-48.5 43t-38 36.5t-15 23q0 23 4.5 50.5t16.5 37.5q23 21 74.5 52t125 68t162.5 76l57 -122q-84 -36 -154 -70t-123 -65q69 -57 110.5 -102.5t62 -82t27 -65.5t6.5 -51q0 -24 -11.5 -51.5
t-41 -52.5t-82.5 -41t-136 -16h-120zM3 585l-49 82q49 29 101 58.5t116.5 64t151.5 78.5l46 -88q-89 -43 -153.5 -77t-115 -62.5t-97.5 -55.5zM254 -232q-29 0 -49.5 20.5t-20.5 48.5q0 29 20.5 50t49.5 21q28 0 48 -21t20 -50q0 -28 -20 -48.5t-48 -20.5zM81 -232
q-29 0 -49.5 20.5t-20.5 48.5q0 29 20.5 50t49.5 21q28 0 48 -21t20 -50q0 -28 -20 -48.5t-48 -20.5z" />
    <glyph glyph-name="uni06B2.medi#0#1" unicode="&#x6b2;" horiz-adv-x="508" 
d="M0 -5l10 140h140q52 0 69 9t17 28q0 22 -21.5 51.5t-53.5 61.5t-64 62t-53.5 52.5t-21.5 32.5q0 41 6.5 59t17.5 29q23 23 74.5 53t124.5 65.5t160 75.5l57 -122q-99 -44 -167 -77t-115 -60q66 -60 114 -115t91 -125q22 -35 45.5 -52t46 -22.5t40.5 -5.5q38 0 54.5 -19.5
t16.5 -48.5q0 -31 -21 -51.5t-60 -20.5t-85.5 16t-78.5 56q-32 -39 -81.5 -55.5t-121.5 -16.5h-140zM8 585l-49 82q49 29 101 58.5t116.5 64t151.5 78.5l46 -88q-89 -43 -153.5 -77t-115 -62.5t-97.5 -55.5zM254 -232q-29 0 -49.5 20.5t-20.5 48.5q0 29 20.5 50t49.5 21
q28 0 48 -21t20 -50q0 -28 -20 -48.5t-48 -20.5zM81 -232q-29 0 -49.5 20.5t-20.5 48.5q0 29 20.5 50t49.5 21q28 0 48 -21t20 -50q0 -28 -20 -48.5t-48 -20.5z" />
    <glyph glyph-name="uni06B2.fina#0#1" unicode="&#x6b2;" horiz-adv-x="952" 
d="M424 -21l26 140q94 0 143.5 4t68 15t18.5 31q0 22 -21.5 51.5t-53.5 61.5t-64 62t-53.5 52.5t-21.5 32.5q0 41 6.5 59t17.5 29q23 23 74.5 53t124.5 65.5t160 75.5l57 -122q-99 -44 -167 -77t-115 -60q66 -60 114 -115t91 -125q22 -35 45.5 -51.5t46 -21t40.5 -4.5
q38 0 54.5 -21t16.5 -50q0 -31 -21 -50t-60 -19t-85 15t-79 53q-26 -35 -69 -53t-113.5 -24.5t-180.5 -6.5zM424 -21q-143 0 -229.5 29t-124.5 80t-38 116q0 47 12 96.5t23 87.5l125 -29q-7 -28 -13.5 -59.5t-6.5 -55.5q0 -37 26.5 -65.5t87.5 -44t164 -15.5l20 -108z
M453 585l-49 82q49 29 101 58.5t116.5 64t151.5 78.5l46 -88q-89 -43 -153.5 -77t-115 -62.5t-97.5 -55.5zM501 -253q-29 0 -49.5 20.5t-20.5 48.5q0 29 20.5 50t49.5 21q28 0 48 -21t20 -50q0 -28 -20 -48.5t-48 -20.5zM328 -253q-29 0 -49.5 20.5t-20.5 48.5q0 29 20.5 50
t49.5 21q28 0 48 -21t20 -50q0 -28 -20 -48.5t-48 -20.5z" />
    <glyph glyph-name="uniFBD3#0#1" unicode="&#x6ad;" horiz-adv-x="931" arabic-form="isolated" 
d="M424 -21l26 140q95 -1 153.5 5.5t89 25t40 53t6.5 88.5l-22 441h140l22 -448q5 -91 -13 -150.5t-68 -93t-141 -47.5t-233 -14zM376 216l-26 99q52 13 77 23t25 21q0 12 -14.5 26.5t-29 34.5t-14.5 47q0 38 32.5 70.5t110.5 63.5l43 -89q-42 -17 -56.5 -29.5t-14.5 -23.5
q0 -12 15 -29t29.5 -39t14.5 -49q0 -22 -12.5 -44t-53.5 -42.5t-126 -39.5zM424 -21q-143 0 -229.5 29t-124.5 80t-38 116q0 47 12 96.5t23 87.5l125 -29q-7 -28 -13.5 -59.5t-6.5 -55.5q0 -37 26.5 -65.5t87.5 -44t164 -15.5l20 -108zM475 810q-25 0 -43.5 19t-18.5 45
t18.5 44t43.5 18q26 0 44 -18t18 -44t-18 -45t-44 -19zM395 678q-25 0 -43.5 19t-18.5 45t18.5 44t43.5 18q26 0 44 -18t18 -44t-18 -45t-44 -19zM550 678q-25 0 -43.5 19t-18.5 45t18.5 44t43.5 18q26 0 44 -18t18 -44t-18 -45t-44 -19z" />
    <glyph glyph-name="uniFBD4#0#1" unicode="&#x6ad;" horiz-adv-x="974" arabic-form="final" 
d="M424 -21l26 140q95 -1 153.5 5.5t89 25t40 53t6.5 88.5l-22 441h140l22 -448q3 -60 14 -92t33 -44.5t58 -12.5q37 0 53.5 -19.5t16.5 -48.5q0 -31 -21 -51.5t-59 -20.5q-53 0 -93 16.5t-61 59.5q-37 -43 -94.5 -63t-133.5 -25t-168 -4zM376 216l-26 99q52 13 77 23t25 21
q0 12 -14.5 26.5t-29 34.5t-14.5 47q0 38 32.5 70.5t110.5 63.5l43 -89q-42 -17 -56.5 -29.5t-14.5 -23.5q0 -12 15 -29t29.5 -39t14.5 -49q0 -22 -12.5 -44t-53.5 -42.5t-126 -39.5zM424 -21q-143 0 -229.5 29t-124.5 80t-38 116q0 47 12 96.5t23 87.5l125 -29
q-7 -28 -13.5 -59.5t-6.5 -55.5q0 -37 26.5 -65.5t87.5 -44t164 -15.5l20 -108zM475 820q-25 0 -43.5 19t-18.5 45t18.5 44t43.5 18q26 0 44 -18t18 -44t-18 -45t-44 -19zM395 688q-25 0 -43.5 19t-18.5 45t18.5 44t43.5 18q26 0 44 -18t18 -44t-18 -45t-44 -19zM550 688
q-25 0 -43.5 19t-18.5 45t18.5 44t43.5 18q26 0 44 -18t18 -44t-18 -45t-44 -19z" />
    <glyph glyph-name="uniFBD6#0#1" unicode="&#x6ad;" horiz-adv-x="508" arabic-form="medial" 
d="M0 -5l10 140h140q52 0 69 9t17 28q0 22 -21.5 51.5t-53.5 61.5t-64 62t-53.5 52.5t-21.5 32.5q0 41 6.5 59t17.5 29q23 23 74.5 53t124.5 65.5t160 75.5l57 -122q-99 -44 -167 -77t-115 -60q66 -60 114 -115t91 -125q22 -35 45.5 -52t46 -22.5t40.5 -5.5q38 0 54.5 -19.5
t16.5 -48.5q0 -31 -21 -51.5t-60 -20.5t-85.5 16t-78.5 56q-32 -39 -81.5 -55.5t-121.5 -16.5h-140zM100.701 800.109q-21.7002 0 -36.751 14.7002q-15.0498 14.7002 -15.0498 36.4014q0 21.7002 15.0498 37.1006q15.0508 15.4004 36.751 15.4004q21 0 36.0508 -15.4004
q15.0498 -15.4004 15.0498 -37.1006q0 -21.7012 -15.0498 -36.4014q-15.0508 -14.7002 -36.0508 -14.7002zM205.703 741.309q-21.7002 0 -36.751 14.7002q-15.0498 14.7002 -15.0498 36.4004q0 21.7012 15.0498 37.1006q15.0508 15.4004 36.751 15.4004
q21 0 36.0508 -15.4004q15.0498 -15.3994 15.0498 -37.1006q0 -21.7002 -15.0498 -36.4004q-15.0508 -14.7002 -36.0508 -14.7002zM100.701 679.708q-21.7002 0 -36.751 14.7002q-15.0498 14.7002 -15.0498 36.4004t15.0498 37.1006q15.0508 15.4004 36.751 15.4004
q21 0 36.0508 -15.4004q15.0498 -15.4004 15.0498 -37.1006t-15.0498 -36.4004q-15.0508 -14.7002 -36.0508 -14.7002z" />
    <glyph glyph-name="uniFBD5#0#1" unicode="&#x6ad;" horiz-adv-x="454" arabic-form="initial" 
d="M0 -5l10 140h143q84 0 84 47q0 12 -12.5 38.5t-53.5 64.5q-22 20 -47.5 42.5t-48.5 43t-38 36.5t-15 23q0 23 4.5 50.5t16.5 37.5q23 21 74.5 52t125 68t162.5 76l57 -122q-84 -36 -154 -70t-123 -65q69 -57 110.5 -102.5t62 -82t27 -65.5t6.5 -51q0 -24 -11.5 -51.5
t-41 -52.5t-82.5 -41t-136 -16h-120zM118.701 800.109q-21.7002 0 -36.751 14.7002q-15.0498 14.7002 -15.0498 36.4014q0 21.7002 15.0498 37.1006q15.0508 15.4004 36.751 15.4004q21 0 36.0508 -15.4004q15.0498 -15.4004 15.0498 -37.1006q0 -21.7012 -15.0498 -36.4014
q-15.0508 -14.7002 -36.0508 -14.7002zM223.703 741.309q-21.7002 0 -36.751 14.7002q-15.0498 14.7002 -15.0498 36.4004q0 21.7012 15.0498 37.1006q15.0508 15.4004 36.751 15.4004q21 0 36.0508 -15.4004q15.0498 -15.3994 15.0498 -37.1006
q0 -21.7002 -15.0498 -36.4004q-15.0508 -14.7002 -36.0508 -14.7002zM118.701 679.708q-21.7002 0 -36.751 14.7002q-15.0498 14.7002 -15.0498 36.4004t15.0498 37.1006q15.0508 15.4004 36.751 15.4004q21 0 36.0508 -15.4004q15.0498 -15.4004 15.0498 -37.1006
t-15.0498 -36.4004q-15.0508 -14.7002 -36.0508 -14.7002z" />
    <glyph glyph-name="uniFB9A#0#1" unicode="&#x6b1;" horiz-adv-x="909" arabic-form="isolated" 
d="M424 -21l26 140q94 0 146.5 5t74 19t21.5 39q0 12 -12.5 38.5t-53.5 64.5q-22 20 -47.5 42.5t-48.5 43t-38 36.5t-15 23q0 23 4.5 50.5t16.5 37.5q23 21 74.5 52t125 68t162.5 76l57 -122q-84 -36 -154 -70t-123 -65q69 -57 110.5 -102.5t62 -82t27 -65.5t6.5 -51
q0 -65 -50.5 -104t-144.5 -56t-227 -17zM424 -21q-143 0 -229.5 29t-124.5 80t-38 116q0 47 12 96.5t23 87.5l125 -29q-7 -28 -13.5 -59.5t-6.5 -55.5q0 -37 26.5 -65.5t87.5 -44t164 -15.5l20 -108zM465 585l-49 82q49 29 101 58.5t116.5 64t151.5 78.5l46 -88
q-89 -43 -153.5 -77t-115 -62.5t-97.5 -55.5zM599.703 884.107q-21.7002 0 -36.751 14.7002q-15.0498 14.7002 -15.0498 36.4014q0 21.7002 15.0498 37.1006q15.0508 15.4004 36.751 15.4004q21 0 36.0508 -15.4004q15.0498 -15.4004 15.0498 -37.1006
q0 -21.7012 -15.0498 -36.4014q-15.0508 -14.7002 -36.0508 -14.7002zM487.701 821.807q-21.7002 0 -36.751 14.7002q-15.0498 14.7002 -15.0498 36.4004t15.0498 37.1006q15.0508 15.4004 36.751 15.4004q21 0 36.0508 -15.4004q15.0498 -15.4004 15.0498 -37.1006
t-15.0498 -36.4004q-15.0508 -14.7002 -36.0508 -14.7002z" />
    <glyph glyph-name="uniFB9B#0#1" unicode="&#x6b1;" horiz-adv-x="952" arabic-form="final" 
d="M424 -21l26 140q94 0 143.5 4t68 15t18.5 31q0 22 -21.5 51.5t-53.5 61.5t-64 62t-53.5 52.5t-21.5 32.5q0 41 6.5 59t17.5 29q23 23 74.5 53t124.5 65.5t160 75.5l57 -122q-99 -44 -167 -77t-115 -60q66 -60 114 -115t91 -125q22 -35 45.5 -51.5t46 -21t40.5 -4.5
q38 0 54.5 -21t16.5 -50q0 -31 -21 -50t-60 -19t-85 15t-79 53q-26 -35 -69 -53t-113.5 -24.5t-180.5 -6.5zM424 -21q-143 0 -229.5 29t-124.5 80t-38 116q0 47 12 96.5t23 87.5l125 -29q-7 -28 -13.5 -59.5t-6.5 -55.5q0 -37 26.5 -65.5t87.5 -44t164 -15.5l20 -108z
M453 585l-49 82q49 29 101 58.5t116.5 64t151.5 78.5l46 -88q-89 -43 -153.5 -77t-115 -62.5t-97.5 -55.5zM579.703 887.107q-21.7002 0 -36.751 14.7002q-15.0498 14.7002 -15.0498 36.4014q0 21.7002 15.0498 37.1006q15.0508 15.4004 36.751 15.4004
q21 0 36.0508 -15.4004q15.0498 -15.4004 15.0498 -37.1006q0 -21.7012 -15.0498 -36.4014q-15.0508 -14.7002 -36.0508 -14.7002zM467.701 824.807q-21.7002 0 -36.751 14.7002q-15.0498 14.7002 -15.0498 36.4004t15.0498 37.1006q15.0508 15.4004 36.751 15.4004
q21 0 36.0508 -15.4004q15.0498 -15.4004 15.0498 -37.1006t-15.0498 -36.4004q-15.0508 -14.7002 -36.0508 -14.7002z" />
    <glyph glyph-name="uniFB9D#0#1" unicode="&#x6b1;" horiz-adv-x="498" arabic-form="medial" 
d="M0 -5l10 140h140q52 0 69 9t17 28q0 22 -21.5 51.5t-53.5 61.5t-64 62t-53.5 52.5t-21.5 32.5q0 41 6.5 59t17.5 29q23 23 74.5 53t124.5 65.5t160 75.5l57 -122q-99 -44 -167 -77t-115 -60q66 -60 114 -115t91 -125q22 -35 45.5 -52t46 -22.5t40.5 -5.5q38 0 54.5 -19.5
t16.5 -48.5q0 -31 -21 -51.5t-60 -20.5t-85.5 16t-78.5 56q-32 -39 -81.5 -55.5t-121.5 -16.5h-140zM8 585l-49 82q49 29 101 58.5t116.5 64t151.5 78.5l46 -88q-89 -43 -153.5 -77t-115 -62.5t-97.5 -55.5zM145.703 887.107q-21.7002 0 -36.751 14.7002
q-15.0498 14.7002 -15.0498 36.4014q0 21.7002 15.0498 37.1006q15.0508 15.4004 36.751 15.4004q21 0 36.0508 -15.4004q15.0498 -15.4004 15.0498 -37.1006q0 -21.7012 -15.0498 -36.4014q-15.0508 -14.7002 -36.0508 -14.7002zM33.7012 824.807
q-21.7002 0 -36.751 14.7002q-15.0498 14.7002 -15.0498 36.4004t15.0498 37.1006q15.0508 15.4004 36.751 15.4004q21 0 36.0508 -15.4004q15.0498 -15.4004 15.0498 -37.1006t-15.0498 -36.4004q-15.0508 -14.7002 -36.0508 -14.7002z" />
    <glyph glyph-name="uniFB9C#0#1" unicode="&#x6b1;" horiz-adv-x="454" arabic-form="initial" 
d="M0 -5l10 140h143q84 0 84 47q0 12 -12.5 38.5t-53.5 64.5q-22 20 -47.5 42.5t-48.5 43t-38 36.5t-15 23q0 23 4.5 50.5t16.5 37.5q23 21 74.5 52t125 68t162.5 76l57 -122q-84 -36 -154 -70t-123 -65q69 -57 110.5 -102.5t62 -82t27 -65.5t6.5 -51q0 -24 -11.5 -51.5
t-41 -52.5t-82.5 -41t-136 -16h-120zM3 585l-49 82q49 29 101 58.5t116.5 64t151.5 78.5l46 -88q-89 -43 -153.5 -77t-115 -62.5t-97.5 -55.5zM144.703 887.107q-21.7002 0 -36.751 14.7002q-15.0498 14.7002 -15.0498 36.4014q0 21.7002 15.0498 37.1006
q15.0508 15.4004 36.751 15.4004q21 0 36.0508 -15.4004q15.0498 -15.4004 15.0498 -37.1006q0 -21.7012 -15.0498 -36.4014q-15.0508 -14.7002 -36.0508 -14.7002zM32.7012 824.807q-21.7002 0 -36.751 14.7002q-15.0498 14.7002 -15.0498 36.4004t15.0498 37.1006
q15.0508 15.4004 36.751 15.4004q21 0 36.0508 -15.4004q15.0498 -15.4004 15.0498 -37.1006t-15.0498 -36.4004q-15.0508 -14.7002 -36.0508 -14.7002z" />
    <glyph glyph-name="uniFB96#0#1" unicode="&#x6b3;" horiz-adv-x="909" arabic-form="isolated" 
d="M424 -21l26 140q94 0 146.5 5t74 19t21.5 39q0 12 -12.5 38.5t-53.5 64.5q-22 20 -47.5 42.5t-48.5 43t-38 36.5t-15 23q0 23 4.5 50.5t16.5 37.5q23 21 74.5 52t125 68t162.5 76l57 -122q-84 -36 -154 -70t-123 -65q69 -57 110.5 -102.5t62 -82t27 -65.5t6.5 -51
q0 -65 -50.5 -104t-144.5 -56t-227 -17zM424 -21q-143 0 -229.5 29t-124.5 80t-38 116q0 47 12 96.5t23 87.5l125 -29q-7 -28 -13.5 -59.5t-6.5 -55.5q0 -37 26.5 -65.5t87.5 -44t164 -15.5l20 -108zM465 585l-49 82q49 29 101 58.5t116.5 64t151.5 78.5l46 -88
q-89 -43 -153.5 -77t-115 -62.5t-97.5 -55.5zM411 -235q-26 0 -44.5 18t-18.5 44t18.5 45t44.5 19t44.5 -19t18.5 -45t-18.5 -44t-44.5 -18zM411 -406q-26 0 -44.5 18t-18.5 44t18.5 45t44.5 19t44.5 -19t18.5 -45t-18.5 -44t-44.5 -18z" />
    <glyph glyph-name="uniFB97#0#1" unicode="&#x6b3;" horiz-adv-x="952" arabic-form="final" 
d="M424 -21l26 140q94 0 143.5 4t68 15t18.5 31q0 22 -21.5 51.5t-53.5 61.5t-64 62t-53.5 52.5t-21.5 32.5q0 41 6.5 59t17.5 29q23 23 74.5 53t124.5 65.5t160 75.5l57 -122q-99 -44 -167 -77t-115 -60q66 -60 114 -115t91 -125q22 -35 45.5 -51.5t46 -21t40.5 -4.5
q38 0 54.5 -21t16.5 -50q0 -31 -21 -50t-60 -19t-85 15t-79 53q-26 -35 -69 -53t-113.5 -24.5t-180.5 -6.5zM424 -21q-143 0 -229.5 29t-124.5 80t-38 116q0 47 12 96.5t23 87.5l125 -29q-7 -28 -13.5 -59.5t-6.5 -55.5q0 -37 26.5 -65.5t87.5 -44t164 -15.5l20 -108z
M453 585l-49 82q49 29 101 58.5t116.5 64t151.5 78.5l46 -88q-89 -43 -153.5 -77t-115 -62.5t-97.5 -55.5zM411 -235q-26 0 -44.5 18t-18.5 44t18.5 45t44.5 19t44.5 -19t18.5 -45t-18.5 -44t-44.5 -18zM411 -406q-26 0 -44.5 18t-18.5 44t18.5 45t44.5 19t44.5 -19
t18.5 -45t-18.5 -44t-44.5 -18z" />
    <glyph glyph-name="uniFB99#0#1" unicode="&#x6b3;" horiz-adv-x="508" arabic-form="medial" 
d="M0 -5l10 140h140q52 0 69 9t17 28q0 22 -21.5 51.5t-53.5 61.5t-64 62t-53.5 52.5t-21.5 32.5q0 41 6.5 59t17.5 29q23 23 74.5 53t124.5 65.5t160 75.5l57 -122q-99 -44 -167 -77t-115 -60q66 -60 114 -115t91 -125q22 -35 45.5 -52t46 -22.5t40.5 -5.5q38 0 54.5 -19.5
t16.5 -48.5q0 -31 -21 -51.5t-60 -20.5t-85.5 16t-78.5 56q-32 -39 -81.5 -55.5t-121.5 -16.5h-140zM8 585l-49 82q49 29 101 58.5t116.5 64t151.5 78.5l46 -88q-89 -43 -153.5 -77t-115 -62.5t-97.5 -55.5zM164 -214q-26 0 -44.5 18t-18.5 44t18.5 45t44.5 19t44.5 -19
t18.5 -45t-18.5 -44t-44.5 -18zM164 -385q-26 0 -44.5 18t-18.5 44t18.5 45t44.5 19t44.5 -19t18.5 -45t-18.5 -44t-44.5 -18z" />
    <glyph glyph-name="uniFB98#0#1" unicode="&#x6b3;" horiz-adv-x="454" arabic-form="initial" 
d="M0 -5l10 140h143q84 0 84 47q0 12 -12.5 38.5t-53.5 64.5q-22 20 -47.5 42.5t-48.5 43t-38 36.5t-15 23q0 23 4.5 50.5t16.5 37.5q23 21 74.5 52t125 68t162.5 76l57 -122q-84 -36 -154 -70t-123 -65q69 -57 110.5 -102.5t62 -82t27 -65.5t6.5 -51q0 -24 -11.5 -51.5
t-41 -52.5t-82.5 -41t-136 -16h-120zM3 585l-49 82q49 29 101 58.5t116.5 64t151.5 78.5l46 -88q-89 -43 -153.5 -77t-115 -62.5t-97.5 -55.5zM164 -214q-26 0 -44.5 18t-18.5 44t18.5 45t44.5 19t44.5 -19t18.5 -45t-18.5 -44t-44.5 -18zM164 -385q-26 0 -44.5 18t-18.5 44
t18.5 45t44.5 19t44.5 -19t18.5 -45t-18.5 -44t-44.5 -18z" />
    <glyph glyph-name="uniFEDD#0#1" unicode="&#x644;" horiz-adv-x="741" arabic-form="isolated" 
d="M26 28q0 35 9.5 87.5t42.5 125.5l123 -43q-17 -47 -26 -80.5t-9 -65.5q0 -76 49.5 -112.5t131.5 -36.5q72 0 114 24t61 66.5t23.5 99t2.5 120.5l-19 519h141l17 -510q2 -65 -4.5 -130t-27 -123t-59.5 -103t-100.5 -71t-151.5 -26q-87 0 -159.5 27t-115.5 84.5t-43 147.5z
" />
    <glyph glyph-name="uniFEDE#0#1" unicode="&#x644;" horiz-adv-x="791" arabic-form="final" 
d="M26 28q0 35 9.5 87.5t42.5 125.5l123 -43q-17 -47 -26 -80.5t-9 -65.5q0 -67 49 -108t127 -41q85 0 130.5 27.5t62 87t12.5 154.5l-20 560h141l15 -473q2 -50 14 -77t37.5 -37t66.5 -10q38 0 54 -19.5t16 -48.5q0 -31 -21 -51.5t-59 -20.5q-26 0 -56.5 8.5t-55.5 27.5
q-23 -143 -110 -202.5t-231 -59.5q-85 0 -156 28.5t-113.5 86t-42.5 144.5z" />
    <glyph glyph-name="uniFEE0#0#1" unicode="&#x644;" horiz-adv-x="344" arabic-form="medial" 
d="M0 -5l10 140q47 0 66.5 9.5t23.5 36t2 77.5l-16 474h142l17 -473q2 -50 12 -77t33.5 -37t63.5 -10q38 0 54 -19.5t16 -48.5q0 -31 -21 -51.5t-59 -20.5q-52 0 -95 14t-65 57q-28 -42 -72 -56.5t-112 -14.5z" />
    <glyph glyph-name="uniFEDF#0#1" unicode="&#x644;" horiz-adv-x="297" arabic-form="initial" 
d="M0 -5l10 140q46 0 66 9.5t24 36t2 77.5l-18 474h141l20 -484q2 -58 -4.5 -104.5t-31 -79.5t-75 -51t-134.5 -18z" />
    </font>
</defs>
</svg>
